<ttFont>
          <CharString index="0">
            -31 callgsubr
            -6 -41 callsubr
            -134 214 callsubr
            -61 callsubr
            630 hlineto
            64 240 rlineto
            -43 hlineto
            -17 -65 -32 -50 -47 -36 -17 -13 -22 -11 -28 -10 -28 -9 -24 -5 -19 -1 -168 -3 rcurveline
            63 294 rlineto
            107 hlineto
            47 30 -43 -79 -16 hvcurveto
            36 hlineto
            60 278 rlineto
            -37 hlineto
            -10 -41 -14 -31 -19 -20 rrcurveto
            -17 -16 -23 -8 -30 hhcurveto
            -107 hlineto
            59 283 150 -3 63 -1 43 -15 21 -27 rlinecurve
            16 -21 8 -26 -33 vvcurveto
            -8 -1 -13 -1 -19 140 callgsubr
            return
          </CharString>
          <CharString index="1">
            rmoveto
            -20 -16 rlineto
            -19 -24 -18 -10 -13 hhcurveto
            -9 -5 7 13 3 3 17 7 32 hvcurveto
            45 214 5 22 5 21 7 19 rlinecurve
            15 43 -16 12 -45 -27 rlineto
            17 -39 -33 9 -27 hhcurveto
            -29 -22 -3 -7 -16 hvcurveto
            -18 -8 -28 -19 -39 -31 -35 -28 -22 -20 -11 -12 -21 -25 -19 -44 -17 -64 rrcurveto
            -16 -59 -8 -49 -40 vvcurveto
            -19 4 -17 8 -15 vhcurveto
            -17 9 14 -9 18 hhcurveto
            45 50 31 61 55 hvcurveto
            41 45 35 50 30 57 2 -2 rcurveline
            -35 -142 rlineto
            return
          </CharString>
          <CharString index="2">
            rmoveto
            53 -40 31 -55 -23 -25 -5 -10 -25 vhcurveto
            -30 -11 -30 -17 -31 -21 -31 -21 -23 -24 -15 -25 -13 -20 -12 -30 -12 -39 rrcurveto
            -17 -54 -8 -46 -38 vvcurveto
            -83 41 -42 83 37 41 11 23 45 vhcurveto
            11 6 38 23 63 40 -10 28 rcurveline
            -45 -67 -52 -22 -39 hhcurveto
            -51 -26 27 53 19 2 22 3 25 hvcurveto
            74 16 55 17 35 17 rrcurveto
            71 35 36 47 60 vvcurveto
            -94 -15 rmoveto
            -35 -14 -30 -28 -26 vhcurveto
            -23 -21 -30 -16 -37 -11 -41 -12 rcurveline
            14 58 rlineto
            96 23 38 48 52 hhcurveto
            31 15 -17 -34 hvcurveto
            return
          </CharString>
          <CharString index="3">
            2 17 2 12 1 8 rrcurveto
            -38 hlineto
            -44 -168 rlineto
            279 hlineto
            34 127 -53 40 -25 57 4 75 rlinecurve
            5 91 24 80 43 71 rrcurveto
            85 52 68 43 83 hhcurveto
            95 44 -53 -105 -5 hvcurveto
            -4 -76 -21 -73 -37 -69 -41 -75 -52 -55 -63 -36 -35 -127 rcurveline
            273 hlineto
            45 168 rlineto
            -39 hlineto
            -7 -15 -8 -16 -7 -16 rrcurveto
            return
          </CharString>
          <CharString index="4">
            745 260 rmoveto
            48 -19 46 -38 44 vhcurveto
            44 -38 85 callsubr
            -4 7 -10 14 -15 hvcurveto
            18 -19 13 -18 9 -17 rrcurveto
            15 -27 7 -30 -32 vvcurveto
            -51 -13 -50 -25 -47 vhcurveto
            -57 -30 -38 -29 -47 hhcurveto
            -28 -31 -38 callsubr
            15 33 7 25 19 vvcurveto
            29 -19 15 -38 -59 -30 -37 -74 -33 4 -26 7 -20 137 callgsubr
            49 15 47 29 43 vhcurveto
            15 22 27 30 40 38 rrcurveto
            return
          </CharString>
          <CharString index="5">
            -31 callgsubr
            -61 callsubr
            37 22 176 callgsubr
            10 -10 5 -15 -20 vvcurveto
            -10 -1 -11 -3 -12 vhcurveto
            -66 -310 rlineto
            -157 -33 -82 -79 -129 hhcurveto
            -102 -51 46 93 23 3 27 6 30 hvcurveto
            88 414 rlineto
            93 -84 callgsubr
            -324 hlineto
            -61 callsubr
            93 hlineto
            -93 -437 rlineto
            -3 -13 -1 -14 -13 vvcurveto
            -56 23 -47 47 -39 vhcurveto
            47 -38 61 -19 74 1 95 1 72 22 51 45 51 45 36 74 22 104 64 297 rcurveline
            7 35 14 26 20 16 rrcurveto
            7 8 24 3 39 hhcurveto
            -63 callsubr
            return
          </CharString>
          <CharString index="6">
            rmoveto
            -1 3 -5 2 -9 1 -9 1 -7 -1 -5 -3 -19 -36 -19 -24 -19 -12 -14 -9 -19 -5 -23 -1 -34 -1 -22 6 -10 13 -9 11 -4 22 1 35 -4 4 -6 2 -9 -1 rrcurveto
            -8 -1 -6 -1 -3 -3 rrcurveto
            -5 -19 -2 -18 -16 vvcurveto
            -61 36 -32 71 -1 vhcurveto
            101 -1 47 42 15 104 rrcurveto
            return
          </CharString>
          <CharString index="7">
            rmoveto
            3 48 -17 46 -35 44 rrcurveto
            44 -35 85 callsubr
            -1 hvcurveto
            -4 7 -10 13 -15 vhcurveto
            17 -19 12 -18 8 -17 13 -27 6 -30 -2 -32 -3 -51 -15 -50 -27 -47 rrcurveto
            -57 -33 -40 224 callgsubr
            -31 28 27 3 223 callgsubr
            14 16 23 16 32 rlinecurve
            17 33 8 25 1 19 1 14 -6 11 -12 9 rrcurveto
            7 -10 -13 3 -15 hhcurveto
            -59 -32 -37 -74 -3 hvcurveto
            -2 -31 2 -27 6 -21 rrcurveto
            -35 -12 -36 -26 -36 hhcurveto
            -25 -20 10 21 -13 hvcurveto
            -12 18 -5 23 1 27 3 49 17 47 32 43 16 22 29 30 41 38 31 29 16 21 1 13 rrcurveto
            21 1 -16 10 -35 hhcurveto
            -63 -60 -36 -71 -56 hvcurveto
            -51 -67 -28 -66 -4 -66 -2 -42 10 -39 21 -35 rrcurveto
            -39 24 32 -20 40 hhcurveto
            74 62 29 59 50 hvcurveto
            4 -25 10 -20 15 -16 rrcurveto
            -18 17 174 callgsubr
            70 25 50 59 hvcurveto
            61 53 33 67 4 81 rrcurveto
            endchar
          </CharString>
          <CharString index="8">
            520 454 -97 callgsubr
            return
          </CharString>
          <CharString index="9">
            rmoveto
            -27 -17 rlineto
            -20 -32 -20 -10 -9 hhcurveto
            -8 -4 4 9 12 7 30 13 49 hvcurveto
            54 196 rlineto
            6 22 3 22 23 vvcurveto
            25 -8 12 -17 -32 -50 -25 -51 -68 vhcurveto
            -63 -47 13 -26 22 16 rlineto
            23 31 23 11 14 hhcurveto
            7 4 -5 -9 hvcurveto
            -3 -17 -3 -12 -2 -8 -59 -241 rcurveline
            -4 -17 -2 -17 -18 -24 callsubr
            -20 callgsubr
            rrcurveto
            return
          </CharString>
          <CharString index="10">
            14 callgsubr
            -92 callsubr
            return
          </CharString>
          <CharString index="11">
            rmoveto
            -29 -20 rlineto
            -15 -21 -16 -7 -9 hhcurveto
            -7 -3 5 10 20 4 27 9 33 hvcurveto
            48 184 rlineto
            11 41 5 27 13 vvcurveto
            29 -13 15 -27 -21 -29 -11 -22 -36 vhcurveto
            -29 -18 -31 -25 -32 -31 -42 -42 -33 -45 -24 -47 rrcurveto
            -2 hlineto
            15 54 rlineto
            23 81 11 53 23 vvcurveto
            20 -10 10 -19 -23 -33 -16 -33 -44 vhcurveto
            -84 -62 13 -27 32 22 rlineto
            11 17 14 6 11 hhcurveto
            7 3 -6 -13 -22 -9 -50 -18 -79 hvcurveto
            -15 -67 -20 -67 -23 -68 10 -11 rcurveline
            27 10 36 6 43 1 3 22 8 38 13 54 17 68 32 62 49 55 rrcurveto
            45 39 30 22 21 hhcurveto
            14 7 -7 -15 -15 -10 -43 -20 -72 hvcurveto
            -29 -103 -14 -64 -25 77 callgsubr
            30 11 23 37 vhcurveto
            29 21 30 21 29 21 rrcurveto
            return
          </CharString>
          <CharString index="12">
            rmoveto
            -93 hlineto
            -158 -175 rlineto
            55 hlineto
            133 98 92 -98 rlineto
            57 hlineto
            return
          </CharString>
          <CharString index="13">
            55 36 34 27 31 hhcurveto
            24 12 -13 -25 -34 -33 -90 -65 -145 hvcurveto
            -65 -145 -32 -94 -43 vvcurveto
            -31 23 -15 47 18 16 3 5 15 vhcurveto
            20 7 10 10 15 vvcurveto
            74 10 77 20 79 vhcurveto
            2 9 18 62 35 115 rrcurveto
            19 65 10 53 40 vvcurveto
            return
          </CharString>
          <CharString index="14">
            517 653 rmoveto
            29 -44 -50 15 -56 hhcurveto
            -67 -62 -24 -49 -56 hvcurveto
            -52 -46 -26 -57 -67 vvcurveto
            -50 16 -39 32 -27 vhcurveto
            21 -17 38 -19 55 -20 49 -18 32 -15 13 -11 rrcurveto
            19 -17 10 -26 -36 vvcurveto
            -33 -10 -26 -19 -21 vhcurveto
            -25 -24 -36 -13 -49 hhcurveto
            -79 -51 25 49 -23 hvcurveto
            76 -27 vlineto
            -21 -166 rlineto
            -27 38 54 -13 70 hhcurveto
            79 69 27 54 58 hvcurveto
            19 17 16 22 15 28 rrcurveto
            18 35 9 33 32 vvcurveto
            49 -18 39 -35 27 vhcurveto
            -19 14 -39 18 -60 23 -42 15 -29 15 -17 13 rrcurveto
            -27 21 -13 29 35 vvcurveto
            31 13 27 27 21 vhcurveto
            21 25 29 10 35 hhcurveto
            58 47 -17 -33 35 hvcurveto
            -85 30 vlineto
            47 7 49 15 51 vhcurveto
            return
          </CharString>
          <CharString index="15">
            33 -18 16 -36 -33 -38 -19 -28 -13 vhcurveto
            22 -17 9 11 9 6 9 1 rlinecurve
            21 2 10 -8 -17 vvcurveto
            -15 -9 -16 -18 -18 vhcurveto
            -19 -20 -11 -16 -2 -11 -3 -11 4 -10 9 -10 return
          </CharString>
          <CharString index="16">
            rmoveto
            -78 -147 rlineto
            2 15 1 15 14 vvcurveto
            77 -36 39 -72 -79 -69 -31 -63 -61 vhcurveto
            -60 -63 -30 -71 -79 vvcurveto
            -49 17 -42 33 -34 vhcurveto
            -34 33 42 -17 49 hhcurveto
            45 45 16 31 46 hvcurveto
            39 27 35 35 29 42 rrcurveto
            return
          </CharString>
          <CharString index="17">
            420 438 rmoveto
            21 -35 -41 10 -48 hhcurveto
            -15 -15 -2 -4 -17 hvcurveto
            -21 -5 -34 -20 -49 -33 rrcurveto
            -42 -29 -21 -36 -43 vvcurveto
            -59 38 -37 76 -15 vhcurveto
            44 -9 rlineto
            45 -9 23 -22 -35 vvcurveto
            -49 -31 -24 -63 -21 -23 5 11 -25 vhcurveto
            -25 11 -18 14 -12 15 rrcurveto
            47 -30 vlineto
            -3 -34 -7 -44 -11 -53 rrcurveto
            -18 58 45 -9 32 hhcurveto
            60 57 23 45 54 hvcurveto
            22 19 15 16 9 13 rrcurveto
            11 18 6 21 25 vvcurveto
            27 -10 22 -20 19 vhcurveto
            -17 17 -23 11 -28 6 -59 13 rcurveline
            -51 11 -25 20 29 vvcurveto
            51 28 25 55 39 36 -15 -29 34 vhcurveto
            6 -48 rlineto
            30 hlineto
            7 6 39 11 70 vhcurveto
            return
          </CharString>
          <CharString index="18">
            675 428 rmoveto
            2 7 1 7 7 vvcurveto
            33 -20 27 -40 21 vhcurveto
            2 -5 -4 1 -5 hhcurveto
            -24 -24 -26 -23 -9 4 -7 9 -5 hvcurveto
            26 -15 12 -13 -3 -11 -5 -25 -23 -19 -39 -12 rrcurveto
            69 -21 -61 34 -100 hhcurveto
            -159 -105 -90 -156 -33 hvcurveto
            -5 -27 -3 -24 -23 vvcurveto
            -112 60 -56 121 164 108 91 163 35 vhcurveto
            8 39 2 35 -5 30 74 7 44 29 14 51 rrcurveto
            -282 -232 rmoveto
            -110 -23 -44 -55 -63 hhcurveto
            -52 -26 36 72 29 5 37 9 44 hvcurveto
            116 25 45 58 67 hhcurveto
            return
          </CharString>
          <CharString index="19">
            -5 -21 -38 -2 -55 hhcurveto
            -142 hlineto
            -61 callsubr
            38 189 callsubr
            14 -15 3 -26 -8 -37 -65 -310 rcurveline
            -157 -34 -81 -79 -128 hhcurveto
            -111 -44 40 87 25 4 31 7 36 hvcurveto
            88 414 rlineto
            93 -84 callgsubr
            -324 hlineto
            -61 callsubr
            93 hlineto
            -93 -437 rlineto
            -4 -20 -2 -19 -18 vvcurveto
            -116 87 -65 167 94 72 22 45 51 vhcurveto
            51 45 37 75 23 104 63 297 rcurveline
            7 35 14 25 20 17 rrcurveto
            7 8 24 3 39 hhcurveto
            return
          </CharString>
          <CharString index="20">
            rmoveto
            31 -69 -78 16 -88 hhcurveto
            -113 -100 -29 -57 -85 hvcurveto
            -94 -63 -59 -86 -23 -110 rrcurveto
            -7 -32 -3 -31 -29 vvcurveto
            -88 30 -68 60 -48 vhcurveto
            -47 58 79 -24 101 hhcurveto
            93 81 18 37 68 hvcurveto
            32 49 -9 12 rlineto
            -34 -65 -67 -17 -70 hhcurveto
            -77 -59 21 42 -42 hvcurveto
            -40 40 -20 55 70 vvcurveto
            27 3 29 7 31 vhcurveto
            18 82 36 66 53 50 rrcurveto
            52 57 68 26 81 hhcurveto
            76 55 -23 -46 34 hvcurveto
            -13 -86 -17 callgsubr
            26 79 18 51 11 23 rrcurveto
            return
          </CharString>
          <CharString index="21">
            hstem
            91 114 194 97 229 77 vstem
            802 371 rmoveto
            23 -7 22 -13 21 vhcurveto
            21 -13 -16 11 -17 hhcurveto
            -11 -10 -1 -3 -9 hvcurveto
            -17 -20 -24 -20 -30 -21 12 -23 rcurveline
            5 10 13 3 15 hhcurveto
            27 13 -19 -37 -51 -16 -57 -32 -65 hvcurveto
            -76 -37 -41 -38 -45 hhcurveto
            -20 -15 9 19 -10 hvcurveto
            -9 15 -4 18 21 vvcurveto
            31 10 63 21 97 vhcurveto
            16 63 12 47 9 31 -12 9 rcurveline
            -37 -15 -35 -9 -35 -3 -2 -21 -3 -21 -5 -22 -13 -61 rcurveline
            -11 -48 -14 -63 -24 -53 -34 -45 rlinecurve
            -41 -31 -29 -21 -26 hhcurveto
            -32 -16 33 67 111 42 101 85 92 hvcurveto
            -14 19 rlineto
            -9 -11 -20 -5 -31 hhcurveto
            -7 -18 1 2 -27 hvcurveto
            -31 1 -20 1 -11 1 -28 1 -25 -2 -21 -4 -41 -132 rcurveline
            28 hlineto
            28 60 rlineto
            5 3 14 3 26 hhcurveto
            60 44 3 7 27 hvcurveto
            2 -2 -38 -38 -45 -45 -31 -38 -19 -32 rlinecurve
            -23 -40 -12 -42 -43 vvcurveto
            -39 7 -31 15 -24 vhcurveto
            -30 18 27 -15 36 hhcurveto
            41 42 22 45 44 hvcurveto
            36 37 28 40 20 44 2 -2 rcurveline
            -5 -32 -3 -25 -19 vvcurveto
            -33 8 -26 15 -19 vhcurveto
            -21 17 24 -11 31 hhcurveto
            73 71 47 94 69 hvcurveto
            63 88 32 82 77 vvcurveto
            return
          </CharString>
          <CharString index="22">
            -464 rmoveto
            -7 -9 -8 -3 -6 hhcurveto
            -11 -5 6 13 13 3 16 5 21 hvcurveto
            4 16 4 16 4 17 rrcurveto
            -72 hlineto
            -5 -17 -4 -18 -4 -17 rrcurveto
            -5 -21 -3 -18 -14 vvcurveto
            -33 16 -17 32 27 23 12 25 21 vhcurveto
            return
          </CharString>
          <CharString index="23">
            -11 -8 -16 -6 -24 hhcurveto
            -140 1 4 13 86 23 73 43 61 63 rlinecurve
            65 67 35 76 5 84 rrcurveto
            return
          </CharString>
          <CharString index="24">
            720 512 rmoveto
            3 13 1 13 12 vvcurveto
            43 -17 34 -35 24 vhcurveto
            26 -37 -54 13 -71 hhcurveto
            -350 hlineto
            -61 callsubr
            93 hlineto
            -133 214 callsubr
            -61 callsubr
            324 -84 callgsubr
            -93 hlineto
            63 297 rlineto
            22 hlineto
            16 -21 10 -15 5 -9 84 -178 45 -94 6 -11 rrcurveto
            4 32 27 2 22 hhcurveto
            8 17 -1 -2 26 hvcurveto
            -2 30 18 -1 6 hhcurveto
            6 30 -26 3 -17 8 -7 13 rlinecurve
            -145 278 43 4 44 17 43 31 rlinecurve
            50 35 30 43 11 50 rrcurveto
            -130 2 rmoveto
            -9 -47 -22 -38 -35 -29 rrcurveto
            -29 -35 -39 -15 -44 hhcurveto
            -86 hlineto
            64 303 rlineto
            107 hlineto
            69 35 -33 -66 -14 -2 -15 -3 -17 hvcurveto
            return
          </CharString>
          <CharString index="25">
            127 callgsubr
            -22 hhcurveto
            -13 -13 -4 -7 -12 hvcurveto
            -14 -9 -62 callgsubr
            return
          </CharString>
          <CharString index="26">
            rmoveto
            10 -1 7 -1 3 vhcurveto
            1 7 15 14 29 22 29 22 16 19 3 16 rrcurveto
            return
          </CharString>
          <CharString index="27">
            57 44 41 59 7 hvcurveto
            -134 -168 185 callgsubr
            -45 -36 -56 -3 hvcurveto
            -1 -22 9 -18 19 -15 19 -14 21 -7 23 1 7 27 rcurveline
            -31 6 -15 11 1 16 rrcurveto
            20 21 24 19 vhcurveto
            3 3 -11 15 hhcurveto
            30 16 12 23 1 hvcurveto
            return
          </CharString>
          <CharString index="28">
            -73 -50 -43 -37 -36 hhcurveto
            -39 -19 26 51 53 18 62 36 71 hvcurveto
            80 41 45 40 48 hhcurveto
            45 23 -45 -90 hvcurveto
            return
          </CharString>
          <CharString index="29">
            19 -26 13 -21 -19 -19 -13 -25 -19 vhcurveto
            -115 20 callsubr
            151 115 18 14 10 15 1 17 rlinecurve
            159 callsubr
            return
          </CharString>
          <CharString index="30">
            rmoveto
            3 58 -18 47 -40 35 rrcurveto
            33 -37 -49 16 -59 hhcurveto
            -87 -74 -27 -55 -63 hvcurveto
            -65 -57 -34 -71 -5 -86 rrcurveto
            -120 -5 77 -74 121 hhcurveto
            81 75 30 59 69 hvcurveto
            69 60 37 71 4 81 rrcurveto
            -131 79 rmoveto
            -3 -59 -22 -70 -42 -80 rrcurveto
            -91 -49 -49 -46 -51 hhcurveto
            -43 -19 28 56 3 hvcurveto
            3 62 23 69 41 77 rrcurveto
            89 49 51 44 55 hhcurveto
            38 18 -26 -53 -3 hvcurveto
            endchar
          </CharString>
          <CharString index="31">
            397 463 rmoveto
            4 -8 -8 2 -9 hhcurveto
            -36 -33 -20 -40 -29 hvcurveto
            -15 -21 -30 -56 -45 -90 -7 -4 rcurveline
            12 52 rlineto
            21 89 10 50 10 vvcurveto
            20 -8 10 -17 -27 -36 -18 -35 -45 vhcurveto
            -81 -64 13 -26 34 24 rlineto
            13 19 14 7 9 hhcurveto
            8 4 -6 -13 -27 -9 -53 -17 -77 hvcurveto
            -24 -107 -5 -23 -9 -30 -13 -39 rlinecurve
            11 -12 22 8 36 6 50 5 rlinecurve
            15 101 18 73 22 47 18 37 14 25 9 13 rrcurveto
            27 20 23 14 27 hhcurveto
            15 17 -6 -13 18 hvcurveto
            12 6 rlineto
            35 7 45 13 57 vhcurveto
            return
          </CharString>
          <CharString index="32">
            32 1 -19 16 -41 hhcurveto
            -30 -18 callsubr
            -3 -56 134 callsubr
            3 134 callgsubr
            -20 14 1 18 rrcurveto
            return
          </CharString>
          <CharString index="33">
            74 60 29 59 47 hvcurveto
            5 -25 11 -20 17 -16 rrcurveto
            -18 18 174 callgsubr
            69 25 50 56 hvcurveto
            59 53 29 67 81 vvcurveto
            return
          </CharString>
          <CharString index="34">
            19 -26 13 -21 -19 -18 -13 -25 -19 vhcurveto
            -115 20 callsubr
            150 115 18 14 10 15 1 17 rlinecurve
            return
          </CharString>
          <CharString index="35">
            rmoveto
            12 1 -23 6 -47 hhcurveto
            -37 -23 -6 -12 -11 hvcurveto
            -8 -8 -17 -59 -27 -111 -26 -107 -13 -65 -1 -23 rrcurveto
            -62 -3 29 -31 63 hhcurveto
            31 143 callsubr
            25 22 14 27 1 31 1 25 -6 14 -15 2 rrcurveto
            -37 -26 -32 -18 -37 hhcurveto
            return
          </CharString>
          <CharString index="36">
            116 -54 callgsubr
            return
          </CharString>
          <CharString index="37">
            -6 -2 -3 -6 hvcurveto
            -8 -4 -4 -3 -3 vvcurveto
            -2 5 -14 10 -25 vhcurveto
            10 -25 5 -21 -19 vvcurveto
            -56 -21 -67 -42 -78 vhcurveto
            -87 -47 -49 -43 -50 hhcurveto
            return
          </CharString>
          <CharString index="38">
            hvcurveto
            15 -16 3 -26 -7 -35 -70 -340 rcurveline
            -193 457 rlineto
            -248 hlineto
            -6 -31 rlineto
            56 hlineto
            19 8 -7 -15 -3 hvcurveto
            -109 -519 -7 -35 -15 -26 -23 -17 rlinecurve
            -6 -8 -22 -3 -37 hhcurveto
            -61 callsubr
            98 callsubr
            return
          </CharString>
          <CharString index="39">
            rmoveto
            2 9 1 8 9 vvcurveto
            51 -21 25 -43 -43 -34 -31 -43 vhcurveto
            -1 vlineto
            -21 15 -13 29 -5 vhcurveto
            3 29 12 1 -6 hhcurveto
            10 4 -5 -11 -2 hvcurveto
            -4 -17 -14 -21 -25 -24 -25 -23 -22 -16 -20 -7 6 -22 rcurveline
            29 11 31 22 33 31 33 32 19 30 6 28 rrcurveto
            endchar
          </CharString>
          <CharString index="40">
            -25 -23 -20 -34 -15 -45 rrcurveto
            -16 -47 -8 -43 -37 vvcurveto
            -109 44 -52 109 return
          </CharString>
          <CharString index="41">
            rlineto
            117 hlineto
            51 27 -47 -75 -17 hvcurveto
            37 hlineto
            60 278 rlineto
            -37 hlineto
            -10 -41 -15 -30 -19 -21 rrcurveto
            -17 -16 -23 -8 -29 hhcurveto
            -117 hlineto
            60 283 159 -3 64 -1 42 -14 20 -27 rlinecurve
            20 -26 8 -40 -5 -55 rrcurveto
            42 hlineto
            41 203 rlineto
            return
          </CharString>
          <CharString index="42">
            295 112 -98 callsubr
            return
          </CharString>
          <CharString index="43">
            -569 rmoveto
            -7 -9 -8 -3 -6 hhcurveto
            -11 -5 6 13 13 3 16 5 21 hvcurveto
            4 16 4 16 4 17 rrcurveto
            -72 hlineto
            -5 -17 -4 -18 -4 -17 rrcurveto
            -5 -21 -3 -18 -14 vvcurveto
            return
          </CharString>
          <CharString index="44">
            7 31 rlineto
            return
          </CharString>
          <CharString index="45">
            rmoveto
            93 hlineto
            158 175 rlineto
            -65 hlineto
            -123 -111 -102 111 rlineto
            -47 hlineto
            endchar
          </CharString>
          <CharString index="46">
            -7 -31 rlineto
            return
          </CharString>
          <CharString index="47">
            hstemhm
            hintmask 01111000
            450 469 rmoveto
            -9 -13 rlineto
            -16 -11 -19 -8 -26 hhcurveto
            -28 -32 5 9 -37 hvcurveto
            15 -60 -37 8 -14 hhcurveto
            -19 -19 -3 -7 -20 hvcurveto
            -45 -139 29 -3 23 52 rlineto
            -9 83 55 -4 26 hhcurveto
            25 27 7 13 28 hvcurveto
            2 -2 -341 -349 16 -30 rlineto
            18 21 25 9 27 hhcurveto
            30 33 -5 -11 37 hvcurveto
            hintmask 10111000
            -15 53 47 -8 42 hhcurveto
            33 18 8 15 3 hvcurveto
            9 49 12 44 14 39 -28 2 rcurveline
            -28 -58 -17 -2 -23 2 -27 5 rlinecurve
            7 -35 -34 3 -32 hhcurveto
            -25 -31 -7 -14 -37 hvcurveto
            -2 2 324 333 14 50 rlineto
            return
          </CharString>
          <CharString index="48">
            7 27 4 22 18 vvcurveto
            29 -13 15 -27 -27 -32 -10 -21 -35 vhcurveto
            -35 -20 -31 -25 -27 -29 -40 -43 -30 -38 -20 -33 -2 2 rcurveline
            85 383 7 29 6 22 4 14 rlinecurve
            -10 9 -26 -11 -32 -9 -38 -9 rlinecurve
            -15 -3 -34 -7 -53 -9 -8 -40 rcurveline
            39 5 29 6 17 7 -17 -113 -21 -123 -25 -131 -31 -159 -22 -91 -15 -24 10 -11 rcurveline
            27 10 36 6 43 1 2 27 7 35 11 43 12 43 12 33 12 23 31 59 33 46 34 32 rrcurveto
            24 27 21 12 17 hhcurveto
            15 7 -11 -22 -15 -10 -43 -20 -72 hvcurveto
            return
          </CharString>
          <CharString index="49">
            -153 74 callsubr
            257 -20 hstemhm
            30 65 -8 49 -49 239 hintmask 11110010
            498 691 -10 callgsubr
            -16 -274 -13 callsubr
            hintmask 11111000
            -52 callgsubr
            hintmask 11110010
            30 callgsubr
            hintmask 11110100
            -7 callgsubr
          </CharString>
          <CharString index="50">
            42 64 rlineto
            -41 hlineto
            -64 -96 8 -8 rlineto
            3 13 12 1 9 hhcurveto
            23 12 -8 -17 -3 0 -4 -1 -3 hvcurveto
            -25 -5 -20 -12 -35 hhcurveto
            -17 -21 3 6 -25 hvcurveto
            -24 -37 rlineto
            -12 28 28 -6 28 hhcurveto
            35 31 5 11 27 hvcurveto
            36 15 21 23 7 31 rrcurveto
            return
          </CharString>
          <CharString index="51">
            rmoveto
            215 callgsubr
            -18 -12 -6 -13 -6 vhcurveto
            -94 -202 27 -7 124 159 rlineto
            8 11 4 11 12 vvcurveto
            -147 hmoveto
            215 callgsubr
            -19 -12 -6 -13 -6 vhcurveto
            -94 -202 27 -4 124 156 rlineto
            9 11 4 11 12 vvcurveto
            endchar
          </CharString>
          <CharString index="52">
            -17 -21 -21 -8 -21 hhcurveto
            -39 -23 27 55 -5 hvcurveto
            204 284 rlineto
            -268 -185 rmoveto
            -1 -25 -26 -46 -49 -67 rrcurveto
            return
          </CharString>
          <CharString index="53">
            -25 -484 rmoveto
            -31 -15 -24 -30 -17 vhcurveto
            -14 -25 -28 -7 -33 hhcurveto
            -37 -31 8 16 -25 hvcurveto
            -31 19 -15 26 34 vvcurveto
            46 32 38 64 30 vhcurveto
            28 13 82 -55 rlineto
            43 -29 21 -27 -26 vvcurveto
            return
          </CharString>
          <CharString index="54">
            rmoveto
            31 29 12 25 25 hvcurveto
            26 25 13 28 31 vvcurveto
            45 -34 34 -47 -31 -29 -12 -25 -26 vhcurveto
            -25 -24 -13 -28 -31 vvcurveto
            -45 34 -35 47 vhcurveto
            73 111 rmoveto
            -32 -30 -29 -32 -27 -14 13 27 32 30 28 32 27 14 -13 -26 vhcurveto
            return
          </CharString>
          <CharString index="55">
            5 -33 -25 180 callsubr
            -43 -32 -63 -13 hvcurveto
            31 -5 3 11 8 8 14 7 rlinecurve
            return
          </CharString>
          <CharString index="56">
            rmoveto
            24 5 -14 21 -27 hhcurveto
            -32 -26 -27 -32 -23 13 -12 25 31 18 16 33 7 hvcurveto
            endchar
          </CharString>
          <CharString index="57">
            457 rmoveto
            -134 -5 13 56 13 51 11 39 7 26 rlinecurve
            -10 12 -66 -24 -18 -7 -19 -4 -20 -3 rlinecurve
            -16 vlineto
            -21 -5 -41 -11 -60 vhcurveto
            -115 -32 -7 -27 rlineto
            109 hlineto
            -62 -293 rlineto
            -7 -31 -3 -21 -9 vvcurveto
            -43 19 -21 39 33 43 20 39 53 vhcurveto
            77 57 -13 26 -56 -40 rlineto
            -14 -19 -19 -7 -19 hhcurveto
            -14 -7 10 19 19 3 24 6 28 hvcurveto
            51 237 rlineto
            47 hlineto
            37 31 -2 -3 24 hvcurveto
            14 56 rlineto
            return
          </CharString>
          <CharString index="58">
            81 callsubr
            36 12 33 24 37 25 19 31 2 36 rrcurveto
            return
          </CharString>
          <CharString index="59">
            rmoveto
            31 1 -26 22 -29 hhcurveto
            -20 -19 -8 -15 -17 hvcurveto
            -17 -15 -10 -18 -1 -19 rrcurveto
            -29 -1 25 -25 31 hhcurveto
            71 callgsubr
            18 16 10 17 1 19 rrcurveto
            -202 hmoveto
            31 1 -25 22 -29 hhcurveto
            -20 -19 -8 -15 -18 hvcurveto
            -18 -15 -10 -17 -1 -19 rrcurveto
            -31 -1 26 -24 31 hhcurveto
            71 callgsubr
            18 17 10 17 1 18 rrcurveto
            202 213 -49 callgsubr
            return
          </CharString>
          <CharString index="60">
            -24 175 callsubr
            -29 109 callsubr
            -7 3 4 callsubr
            16 1 16 20 16 90 callsubr
          </CharString>
          <CharString index="61">
            15 17 20 15 vhcurveto
            8 18 -11 12 hhcurveto
            28 25 23 27 1 hvcurveto
            return
          </CharString>
          <CharString index="62">
            rmoveto
            25 -8 12 -17 -32 -50 -25 -51 -68 vhcurveto
            -63 -47 13 -26 22 16 rlineto
            23 31 23 11 14 hhcurveto
            7 4 -5 -9 -14 -5 -29 -9 -44 hvcurveto
            -86 -408 rlineto
            -52 -11 -15 -26 -21 hhcurveto
            -16 -14 11 22 -13 hvcurveto
            -14 -3 -2 -29 -3 -27 -5 -23 rlinecurve
            -3 13 12 -2 10 hhcurveto
            46 47 40 81 49 hvcurveto
            29 48 29 80 27 113 67 274 rcurveline
            6 25 3 22 20 vvcurveto
            return
          </CharString>
          <CharString index="63">
            -18 -30 callgsubr
            return
          </CharString>
          <CharString index="64">
            13 -27 -30 7 -33 hhcurveto
            -31 -39 -11 -23 -47 hvcurveto
            -41 -19 -29 -22 -17 -23 rrcurveto
            -21 -28 -11 -37 -47 vvcurveto
            -83 51 -40 102 1 vhcurveto
            2 -2 -89 -54 rlineto
            return
          </CharString>
          <CharString index="65">
            -8 -15 39 callsubr
            return
          </CharString>
          <CharString index="66">
            -31 -41 callgsubr
            return
          </CharString>
          <CharString index="67">
            -28 18 -15 36 -1 vhcurveto
            13 5 -5 -11 -2 hvcurveto
            -7 -33 -33 -21 -59 -9 rrcurveto
            endchar
          </CharString>
          <CharString index="68">
            528 460 rmoveto
            6 -15 -15 3 -17 hhcurveto
            -53 -74 -52 -103 -93 hvcurveto
            -33 -37 -25 -29 -16 -22 -2 2 rcurveline
            92 406 9 38 5 22 3 5 rlinecurve
            -10 9 -41 -17 -67 -16 -91 -13 rlinecurve
            -8 -40 37 2 29 4 21 7 rlinecurve
            -13 -89 -21 -121 -30 -153 -31 -157 -22 -92 -13 -28 10 -9 rcurveline
            12 52 35 6 18 hhcurveto
            18 4 31 9 43 vhcurveto
            7 36 5 23 3 9 5 13 7 12 11 12 31 34 rcurveline
            57 -155 13 -34 10 -23 7 -13 rlinecurve
            -18 11 12 -9 13 hhcurveto
            25 41 20 39 56 hvcurveto
            44 31 -10 29 -27 -17 rlineto
            -13 -21 -16 -7 -9 hhcurveto
            -19 -20 27 53 -20 hvcurveto
            -65 173 rlineto
            53 41 49 27 57 hhcurveto
            14 16 -3 -5 18 hvcurveto
            return
          </CharString>
          <CharString index="69">
            28 27 1 223 callgsubr
            14 14 23 14 32 rlinecurve
            return
          </CharString>
          <CharString index="70">
            19 rlineto
            -11 -19 -21 -5 -21 hhcurveto
            -19 -14 5 9 -7 hvcurveto
            -5 7 -3 7 9 vvcurveto
            30 23 33 45 36 vhcurveto
            endchar
          </CharString>
          <CharString index="71">
            -20 -29 callgsubr
            return
          </CharString>
          <CharString index="72">
            -52 callsubr
            8 callgsubr
            return
          </CharString>
          <CharString index="73">
            -20 hstem
            43 216 callgsubr
            114 vstem
            446 499 rmoveto
            -159 -226 -126 -180 -94 -133 2 -3 9 -7 15 -12 231 330 127 181 23 31 -4 3 -9 6 -15 10 rrcurveto
            51 -191 -46 callgsubr
            return
          </CharString>
          <CharString index="74">
            42 194 callgsubr
            78 28 56 65 hvcurveto
            69 59 34 75 89 vvcurveto
            return
          </CharString>
          <CharString index="75">
            218 -84 callgsubr
            return
          </CharString>
          <CharString index="76">
            rmoveto
            27 -8 -13 -6 callgsubr
            42 hlineto
            return
          </CharString>
          <CharString index="77">
            hhcurveto
            -19 -18 -12 return
          </CharString>
          <CharString index="78">
            51 85 26 56 27 vvcurveto
            12 -23 6 -46 -37 120 callgsubr
            124 callgsubr
            31 -31 63 32 12 callsubr
            return
          </CharString>
          <CharString index="79">
            -92 callsubr
            rrcurveto
            endchar
          </CharString>
          <CharString index="80">
            31 198 37 444 -20 return
          </CharString>
          <CharString index="81">
            rmoveto
            hintmask 11101000
            -12 -20 -27 -6 -33 hhcurveto
            hintmask 11011000
            -33 -27 6 12 -21 hvcurveto
            -24 -6 -59 -193 rlineto
            22 hlineto
            30 27 26 15 26 hhcurveto
            36 17 -20 -42 -3 hvcurveto
            -29 -9 -28 -18 -29 vhcurveto
            -35 -19 -23 -17 -26 hhcurveto
            -25 -12 9 21 1 hvcurveto
            8 15 18 10 vvcurveto
            14 1 -10 7 -20 hhcurveto
            -29 -15 -15 -32 -2 hvcurveto
            -36 -2 35 -18 72 hhcurveto
            38 35 16 33 32 hvcurveto
            33 33 17 35 3 39 rrcurveto
            28 -9 20 -18 16 vhcurveto
            13 -18 -22 6 -28 hhcurveto
            -39 -32 -11 -25 -25 hvcurveto
            35 113 rlineto
            hintmask 11101000
            -10 19 20 -4 21 hhcurveto
            46 41 17 35 38 hvcurveto
            endchar
          </CharString>
          <CharString index="82">
            rmoveto
            1 21 -7 16 -15 13 rrcurveto
            11 -14 -18 5 -22 hhcurveto
            -20 -19 -5 -10 -17 hvcurveto
            return
          </CharString>
          <CharString index="83">
            vvcurveto
            -29 10 -14 20 return
          </CharString>
          <CharString index="84">
            rmoveto
            -20 -7 -18 -10 -28 81 callgsubr
            5 -33 hvcurveto
            return
          </CharString>
          <CharString index="85">
            2 -5 -6 1 -6 hhcurveto
            -24 -23 -23 -21 -11 5 -8 11 -7 hvcurveto
            33 -20 10 -8 4 -10 -3 -13 rlinecurve
            -4 -19 -17 -13 -29 -6 rrcurveto
            return
          </CharString>
          <CharString index="86">
            rmoveto
            61 3 -31 31 -67 hhcurveto
            -95 -80 -62 -124 -66 hvcurveto
            return
          </CharString>
          <CharString index="87">
            38 51 hhcurveto
            48 32 -42 -51 hvcurveto
            return
          </CharString>
          <CharString index="88">
            14 1 -10 7 -21 hhcurveto
            -29 -16 -16 -31 -1 hvcurveto
            -36 -2 35 -18 72 hhcurveto
            38 35 16 33 32 hvcurveto
            33 33 17 35 2 39 rrcurveto
            55 4 -42 28 -56 hhcurveto
            -39 -32 -12 -23 -25 hvcurveto
            35 112 rlineto
            -9 19 20 -5 21 hhcurveto
            46 42 17 35 37 hvcurveto
            endchar
          </CharString>
          <CharString index="89">
            13 callgsubr
            -1 -30 return
          </CharString>
          <CharString index="90">
            -105 callsubr
            endchar
          </CharString>
          <CharString index="91">
            rmoveto
            -74 callgsubr
            -181 150 rmoveto
            31 2 -19 15 -40 hhcurveto
            -31 -26 -9 -18 -23 hvcurveto
            -25 -20 -13 -25 -2 -29 -3 -56 134 callsubr
            4 29 rcurveline
            return
          </CharString>
          <CharString index="92">
            10 callgsubr
            17 14 9 15 17 vvcurveto
            return
          </CharString>
          <CharString index="93">
            hintmask 11111010
            -93 callgsubr
            return
          </CharString>
          <CharString index="94">
            rmoveto
            18 -27 13 -54 9 vhcurveto
            5 -33 -34 3 -35 hhcurveto
            -55 -48 -12 -25 -39 hvcurveto
            -47 -29 -23 -40 -53 vvcurveto
            -33 17 -22 34 -12 vhcurveto
            -32 -7 -26 -18 -20 -28 rrcurveto
            return
          </CharString>
          <CharString index="95">
            37 -6 18 -17 -27 vvcurveto
            -10 -2 -12 -5 -15 vhcurveto
            -16 -49 -27 -26 -39 -3 rrcurveto
            -6 -8 4 7 -11 hvcurveto
            -11 7 -4 9 2 9 3 13 15 10 4 13 3 11 -6 8 -17 5 rrcurveto
            -33 5 -31 -23 -32 vvcurveto
            -21 11 -16 21 -10 vhcurveto
            14 -9 27 -5 40 1 28 1 27 6 25 13 32 17 21 24 9 31 rrcurveto
            3 10 1 9 9 vvcurveto
            25 -11 18 -23 13 vhcurveto
            9 -17 -18 5 -19 hhcurveto
            18 1 20 6 21 11 25 13 16 17 6 19 rrcurveto
            return
          </CharString>
          <CharString index="96">
            rlineto
            -94 hlineto
            -7 -31 44 2 47 1 49 -1 rlinecurve
            11 42 -1 -2 71 hvcurveto
            58 -1 43 -1 27 1 86 2 79 34 73 65 73 65 47 80 20 93 rrcurveto
            return
          </CharString>
          <CharString index="97">
            721 337 rmoveto
            99 -35 83 -70 69 vhcurveto
            69 -69 -84 35 -99 hhcurveto
            -97 -83 -35 -70 -69 hvcurveto
            -69 -70 -35 -84 -97 vvcurveto
            -97 35 -83 69 -69 vhcurveto
            -69 69 84 -35 97 hhcurveto
            98 84 34 69 69 hvcurveto
            70 69 35 84 98 vvcurveto
            -43 hmoveto
            -86 -31 -74 -61 -61 vhcurveto
            -61 -61 -74 -30 -86 hhcurveto
            -85 -74 30 61 -61 hvcurveto
            -61 61 -30 74 85 vvcurveto
            85 30 74 61 61 vhcurveto
            61 61 73 31 85 hhcurveto
            86 74 -30 -61 61 hvcurveto
            62 -61 31 -73 -86 vvcurveto
            return
          </CharString>
          <CharString index="98">
            -33 callsubr
            endchar
          </CharString>
          <CharString index="99">
            532 129 hstem
            153 139 134 138 vstem
            564 63 callsubr
            -272 hmoveto
            31 1 -25 22 -29 hhcurveto
            -20 -19 -8 -15 -18 hvcurveto
            -18 -15 -10 -17 -1 -19 rrcurveto
            -31 -1 26 -24 31 hhcurveto
            71 callgsubr
            18 17 10 17 1 18 rrcurveto
            endchar
          </CharString>
          <CharString index="100">
            -78 callsubr
            -86 callgsubr
            return
          </CharString>
          <CharString index="101">
            7 19 -12 11 hhcurveto
            28 26 24 27 1 hvcurveto
            return
          </CharString>
          <CharString index="102">
            hstem
            -65 callsubr
            return
          </CharString>
          <CharString index="103">
            -5 -19 -2 -16 -13 158 callsubr
            25 27 56 33 66 87 vhcurveto
            -9 28 -26 -17 rlineto
            -19 -29 -16 -9 -4 hhcurveto
            -9 -5 6 11 9 2 13 3 17 hvcurveto
            104 514 5 27 5 22 4 16 rlinecurve
            -187 -394 rmoveto
            -10 -40 -27 -50 -43 -59 rrcurveto
            -61 -45 -34 -31 -23 hhcurveto
            -17 -9 9 17 44 8 54 16 65 hvcurveto
            18 73 21 50 23 25 rrcurveto
            11 11 21 6 32 hhcurveto
            24 27 -6 -12 31 hvcurveto
            return
          </CharString>
          <CharString index="104">
            192 callgsubr
            281 39 return
          </CharString>
          <CharString index="105">
            294 rmoveto
            1 24 -9 18 -19 13 rrcurveto
            11 -16 -21 5 -25 hhcurveto
            -36 -32 -10 -19 -29 hvcurveto
            -33 -21 -17 -28 -1 -35 -2 -33 17 -25 37 -17 -31 -5 -25 -12 -20 -19 -22 -20 -12 -25 -1 -29 rrcurveto
            return
          </CharString>
          <CharString index="106">
            rmoveto
            -11 -25 -16 -15 -23 -3 -13 -1 -26 5 -37 11 rrcurveto
            return
          </CharString>
          <CharString index="107">
            -1 rmoveto
            -73 callsubr
            -184 -15 rmoveto
            hintmask 11100010
            -75 callsubr
            hintmask 11010010
            -46 callsubr
            endchar
          </CharString>
          <CharString index="108">
            rmoveto
            62 35 -40 -52 -99 -58 -74 -86 -68 -31 38 56 115 70 56 76 hvcurveto
            14 61 rmoveto
            -128 -111 -90 -148 -97 74 -51 95 120 114 92 141 78 -54 75 -110 hvcurveto
            return
          </CharString>
          <CharString index="109">
            361 680 rmoveto
            -127 -114 -100 -136 -86 58 -63 114 133 99 105 139 12 -1 11 -2 9 hvcurveto
            -14 25 36 -7 24 hhcurveto
            26 32 8 7 18 hvcurveto
            -448 -613 rlineto
            89 hlineto
            548 758 rlineto
            -76 hlineto
            -18 -14 -77 -80 -68 -112 -30 68 -133 hhcurveto
            -17 -61 rmoveto
            63 35 -40 -52 -98 -59 -74 -82 -70 -32 33 61 99 70 71 75 hvcurveto
            return
          </CharString>
          <CharString index="110">
            rmoveto
            5 13 2 12 11 vvcurveto
            43 -31 21 -61 -27 -24 -4 -9 -22 vhcurveto
            -28 -11 -18 -16 -7 -20 rrcurveto
            -1 -5 -1 -4 -4 vvcurveto
            -15 9 -8 20 25 14 7 14 4 vhcurveto
            1 9 -7 7 3 9 5 21 23 17 23 -3 rrcurveto
            24 -3 11 -14 -28 vvcurveto
            -11 -2 -12 -4 -13 vhcurveto
            -6 -19 -12 -15 -15 -12 rrcurveto
            -20 -24 -15 2 -52 hhcurveto
            -4 -18 rlineto
            21 16 -1 -1 9 hvcurveto
            return
          </CharString>
          <CharString index="111">
            29 rcurveline
            -42 11 -21 15 1 18 rrcurveto
            return
          </CharString>
          <CharString index="112">
            rmoveto
            -307 hlineto
            -15 -66 rlineto
            308 hlineto
            endchar
          </CharString>
          <CharString index="113">
            -240 153 -134 -21 587 121 -71 71 return
          </CharString>
          <CharString index="114">
            37 -37 104 316 63 return
          </CharString>
          <CharString index="115">
            9 22 9 8 hhcurveto
            11 6 -6 -11 -1 hvcurveto
            -1 -16 -10 -14 -21 -12 -15 -9 -17 -6 -19 -3 -13 158 callgsubr
            35 12 23 34 hvcurveto
            69 callsubr
            return
          </CharString>
          <CharString index="116">
            rmoveto
            31 -24 25 -31 -40 -28 -34 -40 -38 18 -19 37 41 27 32 43 vhcurveto
            return
          </CharString>
          <CharString index="117">
            rmoveto
            -78 -147 rlineto
            3 15 1 15 14 vvcurveto
            77 -36 39 -73 -78 -69 -31 -63 -61 vhcurveto
            -61 -63 -30 -71 -79 vvcurveto
            -49 17 -42 33 -34 vhcurveto
            -34 34 41 -17 49 hhcurveto
            45 46 16 31 45 hvcurveto
            40 27 34 35 29 42 rrcurveto
            -1 -21 -1 -16 -11 vvcurveto
            -69 22 -34 44 25 22 15 29 21 vhcurveto
            19 27 10 27 26 vvcurveto
            5 vlineto
            return
          </CharString>
          <CharString index="118">
            693 -31 callsubr
            return
          </CharString>
          <CharString index="119">
            28 11 22 23 vhcurveto
            24 22 12 27 31 vvcurveto
            return
          </CharString>
          <CharString index="120">
            -219 -21 585 121 -71 71 return
          </CharString>
          <CharString index="121">
            19 callgsubr
            33 -18 16 -36 -33 -38 -19 -28 -13 vhcurveto
            22 -17 9 11 9 6 9 1 rlinecurve
            hintmask 11110100
            113 callsubr
            endchar
          </CharString>
          <CharString index="122">
            rmoveto
            2 7 1 7 7 vvcurveto
            36 -22 18 -44 -11 -15 -2 -4 -18 vhcurveto
            return
          </CharString>
          <CharString index="123">
            -31 -19 -19 -42 callsubr
            -9 return
          </CharString>
          <CharString index="124">
            23 9 20 11 33 hhcurveto
            18 27 -3 -7 return
          </CharString>
          <CharString index="125">
            261 97 rmoveto
            25 -8 14 -15 2 vhcurveto
            -37 -24 -31 84 callsubr
            return
          </CharString>
          <CharString index="126">
            -31 callgsubr
            27 68 callsubr
            -3 -7 -13 hvcurveto
            -14 -9 -7 -10 -1 -12 rrcurveto
            -9 10 -28 21 -47 vhcurveto
            11 -25 12 -24 11 -25 rrcurveto
            42 hlineto
            return
          </CharString>
          <CharString index="127">
            -155 -17 callgsubr
            return
          </CharString>
          <CharString index="128">
            rmoveto
            14 -7 -13 7 -17 hhcurveto
            -26 -13 -12 -25 -13 4 -10 8 -8 hvcurveto
            139 -136 rlineto
            25 hlineto
            endchar
          </CharString>
          <CharString index="129">
            -7 36 27 callsubr
            endchar
          </CharString>
          <CharString index="130">
            -31 callgsubr
            -61 callsubr
            77 hlineto
            -167 -628 rlineto
            -76 hlineto
            -9 -31 rlineto
            323 hlineto
            9 31 rlineto
            -92 hlineto
            hintmask 11000000
            162 612 rlineto
            232 hlineto
            -162 -612 rlineto
            -85 hlineto
            -9 -31 rlineto
            324 hlineto
            8 31 rlineto
            -92 hlineto
            hintmask 10100000
            167 628 rlineto
            92 -84 callgsubr
            endchar
          </CharString>
          <CharString index="131">
            660 rmoveto
            41 3 -34 24 -43 175 callgsubr
            -10 -17 hvcurveto
            -20 -12 -10 36 callsubr
            -22 -1 11 -11 25 9 22 9 8 hhcurveto
            11 5 -5 -11 hvcurveto
            -1 -17 -11 -14 -19 -29 callgsubr
            -14 158 callgsubr
            35 12 24 34 hvcurveto
            69 callsubr
            return
          </CharString>
          <CharString index="132">
            vvcurveto
            -109 44 -52 109 79 72 32 64 67 vhcurveto
            30 29 23 43 15 58 rrcurveto
            -99 123 61 callsubr
            endchar
          </CharString>
          <CharString index="133">
            -16 -69 hvcurveto
            -79 -340 -11 -45 -10 -41 -11 -36 rlinecurve
            10 -7 47 9 37 7 28 5 rlinecurve
            2 31 6 40 11 49 5 21 9 40 15 59 rrcurveto
            return
          </CharString>
          <CharString index="134">
            7 callgsubr
            10 -18 19 -15 19 -14 20 -7 23 1 7 27 rcurveline
            -31 6 -15 11 1 16 rrcurveto
            20 21 24 19 vhcurveto
            3 3 -11 15 hhcurveto
            30 16 12 23 1 hvcurveto
            return
          </CharString>
          <CharString index="135">
            160 callsubr
            -31 28 -23 6 callgsubr
            return
          </CharString>
          <CharString index="136">
            326 39 callgsubr
            return
          </CharString>
          <CharString index="137">
            -98 -17 84 350 52 return
          </CharString>
          <CharString index="138">
            rmoveto
            55 -20 44 -39 33 vhcurveto
            30 -36 -46 15 -56 hhcurveto
            -129 -100 -70 -140 -69 hvcurveto
            -56 -112 -28 -128 -144 vvcurveto
            -73 17 -36 33 21 23 8 16 23 vhcurveto
            24 16 12 18 20 vvcurveto
            13 -7 16 -14 17 vhcurveto
            -21 26 -13 18 -5 10 rrcurveto
            return
          </CharString>
          <CharString index="139">
            rmoveto
            -122 -162 rlineto
            20 hlineto
            69 86 -58 -269 rlineto
            -49 hlineto
            -3 -16 rlineto
            170 hlineto
            3 16 rlineto
            -49 hlineto
            74 345 rlineto
            return
          </CharString>
          <CharString index="140">
            74 callgsubr
            61 -26 73 hhcurveto
            return
          </CharString>
          <CharString index="141">
            -40 -35 callgsubr
            return
          </CharString>
          <CharString index="142">
            62 callgsubr
            24 callgsubr
            101 callsubr
            vhcurveto
            -11 7 9 -6 11 12 21 17 11 hhcurveto
            return
          </CharString>
          <CharString index="143">
            -16 -1 -19 rrcurveto
            return
          </CharString>
          <CharString index="144">
            -242 155 return
          </CharString>
          <CharString index="145">
            -11 -51 -5 -40 -29 -24 callsubr
            26 30 10 21 35 vhcurveto
            19 11 35 24 52 38 -14 27 rcurveline
            -30 -23 rlineto
            -17 -23 -17 -9 -13 hhcurveto
            -8 -4 4 9 25 4 31 8 36 hvcurveto
            107 482 7 29 6 22 4 14 rlinecurve
            return
          </CharString>
          <CharString index="146">
            -17 vhcurveto
            -17 -15 return
          </CharString>
          <CharString index="147">
            89 callsubr
            14 -3 17 136 callsubr
            return
          </CharString>
          <CharString index="148">
            rmoveto
            25 -7 14 -15 2 vhcurveto
            -37 -25 -30 -18 -37 hhcurveto
            return
          </CharString>
          <CharString index="149">
            -17 33 -33 23 vhcurveto
            -31 21 -39 11 -49 -1 -48 -1 -46 -11 -43 -21 rrcurveto
            -53 -27 -27 -36 -44 vvcurveto
            -19 8 -14 17 -9 vhcurveto
            13 -7 12 -3 11 2 34 5 19 14 4 23 3 17 -10 12 1 19 1 15 8 13 return
          </CharString>
          <CharString index="150">
            rmoveto
            -235 hlineto
            -10 -51 rlineto
            234 hlineto
            endchar
          </CharString>
          <CharString index="151">
            37 callsubr
            87 104 -104 168 return
          </CharString>
          <CharString index="152">
            37 callsubr
            87 112 callsubr
            return
          </CharString>
          <CharString index="153">
            -70 -3 34 -35 72 hhcurveto
            40 36 14 28 32 hvcurveto
            33 28 17 34 2 41 rrcurveto
            48 3 -41 35 -49 hhcurveto
            -15 -16 -3 -7 -17 hvcurveto
            -20 -7 -14 -9 -8 -11 7 31 16 33 23 34 rrcurveto
            40 28 27 20 27 hhcurveto
            return
          </CharString>
          <CharString index="154">
            -8 callgsubr
            596 312 rmoveto
            1 17 -9 14 -19 11 rrcurveto
            9 -15 -17 4 -19 hhcurveto
            -56 -50 -30 -60 -44 hvcurveto
            -41 -55 -22 -56 -3 -59 rrcurveto
            return
          </CharString>
          <CharString index="155">
            -22 -1 11 -11 25 11 22 11 88 callsubr
            -6 -12 157 callsubr
            -14 -20 -11 -16 -10 -17 -6 -18 -2 -14 -31 rcurveline
            155 callsubr
          </CharString>
          <CharString index="156">
            vhcurveto
            -107 20 callsubr
            145 115 rlineto
            return
          </CharString>
          <CharString index="157">
            28 24 22 28 3 hvcurveto
            return
          </CharString>
          <CharString index="158">
            -25 -17 49 callsubr
            return
          </CharString>
          <CharString index="159">
            -14 26 -7 30 35 vvcurveto
            25 3 29 7 32 vhcurveto
            -81 20 66 -57 83 hhcurveto
            88 76 29 58 64 hvcurveto
            67 60 33 74 88 vvcurveto
            -128 72 rmoveto
            -56 -20 -70 -40 -83 vhcurveto
            -94 -45 -47 -47 -48 hhcurveto
            return
          </CharString>
          <CharString index="160">
            31 24 24 31 31 -24 24 -31 -31 -24 -24 -31 -31 24 -24 31 hvcurveto
            return
          </CharString>
          <CharString index="161">
            29 29 15 21 13 vvcurveto
            return
          </CharString>
          <CharString index="162">
            -98 -17 44 398 44 return
          </CharString>
          <CharString index="163">
            -63 -58 -36 -71 -52 vhcurveto
            return
          </CharString>
          <CharString index="164">
            -13 37 29 -6 20 hhcurveto
            59 32 35 69 3 hvcurveto
            endchar
          </CharString>
          <CharString index="165">
            -53 vhcurveto
            -53 48 return
          </CharString>
          <CharString index="166">
            126 37 callsubr
            71 57 return
          </CharString>
          <CharString index="167">
            rmoveto
            29 113 -85 -20 -25 -93 rlineto
            -119 hlineto
            5 7 43 48 80 89 rrcurveto
            69 77 35 44 12 vvcurveto
            13 1 -8 7 -17 hhcurveto
            -16 -16 -12 -23 -17 hvcurveto
            -189 -264 rlineto
            return
          </CharString>
          <CharString index="168">
            rmoveto
            -69 -10 -64 -20 -57 vhcurveto
            -77 -27 -38 -38 -51 hhcurveto
            -24 -20 10 19 -15 hvcurveto
            -14 17 -7 22 25 vvcurveto
            70 10 64 20 57 vhcurveto
            76 27 38 -20 callsubr
            return
          </CharString>
          <CharString index="169">
            216 -117 117 return
          </CharString>
          <CharString index="170">
            608 rmoveto
            31 1 -26 22 -29 hhcurveto
            -20 -19 -8 -15 -17 hvcurveto
            -17 -15 -10 -18 -1 -19 rrcurveto
            -29 -1 25 -25 31 hhcurveto
            71 callgsubr
            18 16 10 17 1 19 rrcurveto
            return
          </CharString>
          <CharString index="171">
            -6 11 10 -3 10 hhcurveto
            32 22 33 36 27 -10 20 -20 13 hvcurveto
            14 -23 -32 7 -42 hhcurveto
            -23 -18 -2 -5 -13 hvcurveto
            -37 -15 -37 -22 -36 -30 -5 15 -9 11 -12 8 rrcurveto
            return
          </CharString>
          <CharString index="172">
            649 -25 callsubr
            return
          </CharString>
          <CharString index="173">
            690 188 callsubr
            -9 -10 2 -11 hhcurveto
            -19 -19 139 callgsubr
            145 167 callsubr
            return
          </CharString>
          <CharString index="174">
            -29 -7 -16 -15 -27 hhcurveto
            -19 -30 6 11 -39 hvcurveto
            return
          </CharString>
          <CharString index="175">
            -2 -12 14 -23 hhcurveto
            -13 -12 return
          </CharString>
          <CharString index="176">
            37 26 19 31 2 36 rrcurveto
            return
          </CharString>
          <CharString index="177">
            161 callgsubr
            0 157 return
          </CharString>
          <CharString index="178">
            -16 34 452 -20 return
          </CharString>
          <CharString index="179">
            15 hvcurveto
            4 -5 4 -10 4 -15 4 -15 return
          </CharString>
          <CharString index="180">
            38 214 41 192 -20 223 34 return
          </CharString>
          <CharString index="181">
            -18 116 85 110 73 99 return
          </CharString>
          <CharString index="182">
            213 callsubr
            -20 -18 -8 -16 39 callsubr
            -8 -18 -19 vvcurveto
            -29 27 -24 83 callsubr
            -124 83 rmoveto
            return
          </CharString>
          <CharString index="183">
            7 35 4 33 31 vvcurveto
            153 -92 94 -149 4 vhcurveto
            return
          </CharString>
          <CharString index="184">
            134 385 136 return
          </CharString>
          <CharString index="185">
            -41 80 callsubr
            return
          </CharString>
          <CharString index="186">
            194 -96 96 10 -20 hstemhm
            return
          </CharString>
          <CharString index="187">
            -1 callgsubr
            40 203 callgsubr
            -8 19 rlineto
            -11 -19 -21 -5 -21 hhcurveto
            -19 -14 5 9 -7 hvcurveto
            return
          </CharString>
          <CharString index="188">
            4 hlineto
            37 -1 return
          </CharString>
          <CharString index="189">
            -13 -30 72 callgsubr
            35 11 34 24 69 callsubr
            return
          </CharString>
          <CharString index="190">
            31 19 17 8 15 17 vhcurveto
            17 16 9 18 19 vvcurveto
            return
          </CharString>
          <CharString index="191">
            -18 -37 hhcurveto
            27 callgsubr
            return
          </CharString>
          <CharString index="192">
            -42 22 -47 hhcurveto
            -25 -12 -6 -11 return
          </CharString>
          <CharString index="193">
            138 135 137 return
          </CharString>
          <CharString index="194">
            -20 124 callsubr
            return
          </CharString>
          <CharString index="195">
            7 hhcurveto
            11 5 return
          </CharString>
          <CharString index="196">
            rlinecurve
            -7 -28 -6 -20 -6 -11 rrcurveto
            -17 -9 -13 -8 -15 hhcurveto
            -23 -17 15 29 -11 hvcurveto
            -17 -3 -5 -38 -11 -36 -16 -33 rlinecurve
            -6 9 return
          </CharString>
          <CharString index="197">
            -6 callsubr
            endchar
          </CharString>
          <CharString index="198">
            -98 -271 46 208 84 402 -20 return
          </CharString>
          <CharString index="199">
            57 77 callsubr
            return
          </CharString>
          <CharString index="200">
            -17 145 callgsubr
            return
          </CharString>
          <CharString index="201">
            27 -3 19 hhcurveto
            return
          </CharString>
          <CharString index="202">
            -153 -17 114 -75 75 259 76 37 -20 return
          </CharString>
          <CharString index="203">
            -98 93 callsubr
            return
          </CharString>
          <CharString index="204">
            42 55 149 46 68 return
          </CharString>
          <CharString index="205">
            225 -84 callgsubr
            return
          </CharString>
          <CharString index="206">
            54 callsubr
            21 -17 10 -34 56 callsubr
            -49 -67 -24 -66 -66 vvcurveto
            -42 11 -39 23 -35 vhcurveto
            -39 return
          </CharString>
          <CharString index="207">
            16 1 17 18 15 7 18 -10 11 hhcurveto
            50 callsubr
            return
          </CharString>
          <CharString index="208">
            -11 3 -11 6 -9 return
          </CharString>
          <CharString index="209">
            19 18 8 16 17 return
          </CharString>
          <CharString index="210">
            -17 -19 -21 -8 -22 hhcurveto
            -39 -24 27 55 -8 hvcurveto
            189 284 rlineto
            -258 -185 rmoveto
            -25 -23 -46 -45 -67 vhcurveto
            return
          </CharString>
          <CharString index="211">
            -79 -68 -51 -88 -23 -107 rrcurveto
            -6 return
          </CharString>
          <CharString index="212">
            -20 108 callsubr
            return
          </CharString>
          <CharString index="213">
            897 rmoveto
            -61 callgsubr
            return
          </CharString>
          <CharString index="214">
            608 rmoveto
            31 1 -26 22 -29 hhcurveto
            -38 -44 -36 -39 -2 hvcurveto
            -29 -1 25 -25 31 hhcurveto
            36 45 39 37 2 hvcurveto
            return
          </CharString>
          <CharString index="215">
            hstemhm
            54 115 -44 138 return
          </CharString>
          <CharString index="216">
            -3 -55 37 -31 77 return
          </CharString>
          <CharString index="217">
            -29 -24 -20 -17 -13 -9 -2 -9 rcurveline
            228 hlineto
            21 101 rlineto
            -22 hlineto
            -33 -8 -12 -16 -23 hhcurveto
            -101 hlineto
            37 return
          </CharString>
          <CharString index="218">
            -32 -26 6 11 -20 hvcurveto
            -24 -6 -56 -185 rlineto
            21 hlineto
            29 25 26 14 25 hhcurveto
            35 16 -20 -40 -2 hvcurveto
            return
          </CharString>
          <CharString index="219">
            31 315 35 return
          </CharString>
          <CharString index="220">
            21 2 10 -8 -17 vvcurveto
            -15 -9 -16 -18 -18 vhcurveto
            -19 -20 -11 -16 -2 -11 -3 -11 4 -10 9 -10 rrcurveto
            return
          </CharString>
          <CharString index="221">
            -128 -17 44 398 44 237 212 callgsubr
            120 vstem
            487 209 rmoveto
            14 return
          </CharString>
          <CharString index="222">
            -16 131 callgsubr
            return
          </CharString>
          <CharString index="223">
            rrcurveto
            26 10 16 13 22 hhcurveto
            23 25 -19 -37 25 hvcurveto
            15 3 7 41 10 42 11 42 rlinecurve
            endchar
          </CharString>
          <CharString index="224">
            115 rlineto
            18 14 9 return
          </CharString>
          <CharString index="225">
            -43 -22 28 57 62 19 69 38 76 hvcurveto
            89 45 49 44 55 hhcurveto
            39 20 -25 -50 hvcurveto
            endchar
          </CharString>
          <CharString index="226">
            14 -23 -33 7 -42 hhcurveto
            -23 -17 -2 -5 -13 hvcurveto
            -43 return
          </CharString>
          <CharString index="227">
            63 29 70 -50 223 callsubr
            return
          </CharString>
          <CharString index="228">
            -19 -5 -9 -25 hvcurveto
            -9 -24 -17 return
          </CharString>
          <CharString index="229">
            11 21 22 hvcurveto
            23 22 11 17 return
          </CharString>
          <CharString index="230">
            hstemhm
            39 113 265 39 return
          </CharString>
          <CharString index="231">
            15 1 19 rrcurveto
            return
          </CharString>
          <CharString index="232">
            -25 -19 -13 -25 -2 -30 -3 -55 178 callgsubr
            return
          </CharString>
          <CharString index="233">
            4 30 rcurveline
            -42 return
          </CharString>
          <CharString index="234">
            -443 -675 rlineto
            86 hlineto
            441 675 rlineto
            return
          </CharString>
          <CharString index="235">
            -12 101 -85 -21 219 25 63 48 return
          </CharString>
          <CharString index="236">
            28 114 182 94 return
          </CharString>
          <CharString index="237">
            -4 -8 19 hvcurveto
            -8 return
          </CharString>
          <CharString index="238">
            -21 486 -20 return
          </CharString>
          <CharString index="239">
            783 rmoveto
            53 callsubr
            return
          </CharString>
          <CharString index="240">
            hlineto
            -35 -162 rlineto
            40 hlineto
            1 20 8 16 16 12 rrcurveto
            10 13 15 5 16 hhcurveto
            return
          </CharString>
          <CharString index="241">
            37 -31 77 -6 return
          </CharString>
          <CharString index="242">
            rmoveto
            hintmask 11100110
            29 -27 24 -29 -19 -19 -42 callsubr
            -9 -18 -19 vvcurveto
            return
          </CharString>
          <CharString index="243">
            hhcurveto
            17 23 10 20 29 hvcurveto
            25 17 21 17 15 18 31 35 24 38 17 39 return
          </CharString>
          <CharString index="244">
            43 -35 24 -44 -20 -18 -5 -10 -17 vhcurveto
            -19 -13 -9 -16 -19 vvcurveto
            -22 12 -11 return
          </CharString>
          <CharString index="245">
            53 callsubr
            endchar
          </CharString>
          <CharString index="246">
            -20 34 -20 hstemhm
            83 160 return
          </CharString>
          <CharString index="247">
            86 callsubr
            vstem
            return
          </CharString>
          <CharString index="248">
            -209 -17 67 357 62 return
          </CharString>
          <CharString index="249">
            131 callgsubr
            -31 197 return
          </CharString>
          <CharString index="250">
            28 11 22 25 hvcurveto
            return
          </CharString>
          <CharString index="251">
            hstemhm
            13 177 return
          </CharString>
          <CharString index="252">
            72 9 -20 hstemhm
            return
          </CharString>
          <CharString index="253">
            -16 57 681 -20 hstem
            40 127 148 146 146 137 vstem
            return
          </CharString>
          <CharString index="254">
            -27 callgsubr
            62 callgsubr
            return
          </CharString>
          <CharString index="255">
            hstemhm
            92 callsubr
            return
          </CharString>
          <CharString index="256">
            hstemhm
            43 138 642 123 return
          </CharString>
          <CharString index="257">
            rmoveto
            20 7 10 14 21 vvcurveto
            13 return
          </CharString>
          <CharString index="258">
            -261 -35 261 hlineto
            return
          </CharString>
          <CharString index="259">
            -7 37 94 callsubr
            return
          </CharString>
          <CharString index="260">
            33 26 26 32 33 -26 26 -33 -33 -25 -26 -33 -32 26 -26 32 hvcurveto
            return
          </CharString>
          <CharString index="261">
            -17 -20 -21 -8 -21 hhcurveto
            -39 -24 27 55 -8 hvcurveto
            189 284 rlineto
            return
          </CharString>
          <CharString index="262">
            -49 callsubr
            endchar
          </CharString>
          <CharString index="263">
            hvcurveto
            -17 -9 207 callsubr
            return
          </CharString>
          <CharString index="264">
            -1 hvcurveto
            -1 -17 -10 return
          </CharString>
          <CharString index="265">
            vvcurveto
            -29 12 -14 return
          </CharString>
          <CharString index="266">
            -203 -45 rmoveto
            return
          </CharString>
          <CharString index="267">
            29 -27 24 -29 -20 -19 -42 callsubr
            -9 -18 -19 vvcurveto
            return
          </CharString>
          <CharString index="268">
            hlineto
            hintmask 10010000
            39 150 rlineto
            -36 hlineto
            hintmask 10100000
            -39 -150 rlineto
            return
          </CharString>
          <CharString index="269">
            -2 -8 -2 -7 -1 -7 rrcurveto
            146 hlineto
            -18 -72 rlineto
            -53 hlineto
            return
          </CharString>
          <CharString index="270">
            650 rmoveto
            -29 -13 -21 -15 -27 hhcurveto
            -18 -26 6 11 -34 hvcurveto
            return
          </CharString>
          <CharString index="271">
            -20 185 callsubr
            return
          </CharString>
          <CharString index="272">
            -10 -5 -5 -9 -8 5 -4 10 hvcurveto
            return
          </CharString>
          <CharString index="273">
            194 -96 96 -52 31 31 -20 hstemhm
            return
          </CharString>
          <CharString index="274">
            115 -54 callgsubr
            17 vvcurveto
            return
          </CharString>
          <CharString index="275">
            180 -17 63 343 80 return
          </CharString>
          <CharString index="276">
            394 1 -21 679 31 return
          </CharString>
          <CharString index="277">
            -6 -11 -1 hvcurveto
            -1 -17 return
          </CharString>
          <CharString index="278">
            11 22 10 7 hhcurveto
            11 return
          </CharString>
          <CharString index="279">
            27 -3 -7 36 hvcurveto
            return
          </CharString>
          <CharString index="280">
            28 23 23 28 hvcurveto
            return
          </CharString>
          <CharString index="281">
            hstem
            42 153 vstem
            return
          </CharString>
          <CharString index="282">
            -19 -13 -25 -1 return
          </CharString>
          <CharString index="283">
            229 -22 22 37 100 hstemhm
            296 68 hintmask 10110000
            396 return
          </CharString>
          <CharString index="284">
            -17 -25 hhcurveto
            -25 -11 10 20 1 hvcurveto
            8 15 18 8 vvcurveto
            return
          </CharString>
          <CharString index="285">
            150 callsubr
            -6 10 -13 6 vhcurveto
            -16 return
          </CharString>
          <CharString index="286">
            hhcurveto
            5 31 rlineto
            return
          </CharString>
          <CharString index="287">
            3 -17 hhcurveto
            -72 return
          </CharString>
          <CharString index="288">
            -21 363 -20 hstem
            91 63 158 66 vstem
            378 return
          </CharString>
          <CharString index="289">
            rrcurveto
            1 -9 -10 1 -11 hhcurveto
            -77 -73 -32 -64 -68 hvcurveto
            return
          </CharString>
          <CharString index="290">
            hlineto
            -6 -41 callsubr
            -134 -628 rlineto
            -94 hlineto
            return
          </CharString>
          <CharString index="291">
            -22 5 -15 hhcurveto
            -27 -21 -13 -26 return
          </CharString>
          <CharString index="292">
            hstem
            92 callsubr
            return
          </CharString>
          <CharString index="293">
            -20 hstemhm
            129 callsubr
            return
          </CharString>
          <CharString index="294">
            32 rcurveline
            -45 -23 -35 -23 -23 -23 return
          </CharString>
          <CharString index="295">
            rmoveto
            9 -6 8 -11 7 vhcurveto
            5 return
          </CharString>
          <CharString index="296">
            22 -3 -6 5 hvcurveto
            return
          </CharString>
          <CharString index="297">
            -20 hstemhm
            179 66 return
          </CharString>
          <CharString index="298">
            15 14 4 15 hhcurveto
            return
          </CharString>
          <CharString index="299">
            23 16 26 2 return
          </CharString>
          <CharString index="300">
            1 8 7 vvcurveto
            return
          </CharString>
          <CharString index="301">
            rmoveto
            33 -12 36 return
          </CharString>
          <CharString index="302">
            -9 18 19 -5 21 hhcurveto
            44 40 17 33 36 hvcurveto
            return
          </CharString>
          <CharString index="303">
            -21 364 -20 hstem
            91 56 3 61 vstem
            388 return
          </CharString>
          <CharString index="304">
            -13 34 27 -6 21 hhcurveto
            63 42 40 80 20 hvcurveto
            return
          </CharString>
          <CharString index="305">
            98 108 24 60 47 17 -20 hstemhm
            294 67 return
          </CharString>
          <CharString index="306">
            56 3 61 123 53 return
          </CharString>
          <CharString index="307">
            -98 -15 56 600 56 return
          </CharString>
          <CharString index="308">
            80 0 38 614 37 return
          </CharString>
          <CharString index="309">
            -26 -13 10 20 return
          </CharString>
          <CharString index="310">
            -39 -15 -34 -12 -27 -8 -5 -25 rcurveline
            91 hlineto
            return
          </CharString>
          <CharString index="311">
            129 37 187 callgsubr
            return
          </CharString>
          <CharString index="312">
            68 callsubr
            -4 -7 -12 hvcurveto
            return
          </CharString>
          <CharString index="313">
            51 122 275 131 return
          </CharString>
          <CharString index="314">
            -9 -13 -1 -16 rrcurveto
            -15 -1 return
          </CharString>
          <CharString index="315">
            41 126 447 137 return
          </CharString>
          <CharString index="316">
            199 callgsubr
            -20 return
          </CharString>
          <CharString index="317">
            -47 21 -21 720 -20 hstem
            return
          </CharString>
          <CharString index="318">
            -11 36 callsubr
            -22 -1 return
          </CharString>
          <CharString index="319">
            20 17 19 15 17 18 13 return
          </CharString>
          <CharString index="320">
            rmoveto
            29 -28 24 -29 return
          </CharString>
          <CharString index="321">
            -628 rlineto
            -93 hlineto
            return
          </CharString>
          <CharString index="322">
            -31 rcurveline
            4 hlineto
            return
          </CharString>
          <CharString index="323">
            -37 -36 hhcurveto
            -38 return
          </CharString>
          <CharString index="324">
            -10 228 -214 -21 213 22 38 return
          </CharString>
          <CharString index="325">
            31 -20 15 -40 -30 -26 -9 -18 -23 vhcurveto
            return
          </CharString>
          <CharString index="326">
            0 31 508 172 -26 26 -1 -20 return
          </CharString>
          <CharString index="327">
            hstemhm
            24 72 -72 153 -153 186 return
          </CharString>
          <CharString index="328">
            74 15 -20 34 69 -49 67 13 -20 hstemhm
            return
          </CharString>
          <CharString index="329">
            40 48 hhcurveto
            45 23 -45 -90 hvcurveto
            endchar
          </CharString>
          <CharString index="330">
            66 14 -20 hstemhm
            return
          </CharString>
        <CharString name=".notdef">
          -153 0 63 594 62 hstem
          63 62 250 63 vstem
          438 hmoveto
          719 -375 -719 vlineto
          62 657 rmoveto
          250 -594 -250 hlineto
          endchar
        </CharString>
        <CharString name="A">
          56 0 -27 callsubr
          hstem
          612 -107 callgsubr
          endchar
        </CharString>
        <CharString name="AE">
          469 0 38 191 37 65 39 281 39 hstem
          507 -76 callgsubr
          endchar
        </CharString>
        <CharString name="AEacute">
          437 0 38 191 37 65 39 281 39 242 -20 hstem
          521 -76 callgsubr
          287 335 rmoveto
          -105 callgsubr
          endchar
        </CharString>
        <CharString name="Aacute">
          48 0 -27 callsubr
          240 -20 hstem
          612 -107 callgsubr
          228 656 rmoveto
          -105 callgsubr
          endchar
        </CharString>
        <CharString name="Abreve">
          53 0 -27 callsubr
          55 61 hstem
          612 -107 callgsubr
          205 624 -101 callsubr
          endchar
        </CharString>
        <CharString name="Acircumflex">
          50 0 -27 callsubr
          229 -20 hstem
          612 -107 callgsubr
          128 653 -95 callsubr
          endchar
        </CharString>
        <CharString name="Acute">
          772 -21 174 -20 hstem
          271 921 rmoveto
          -5 4 -92 -13 -30 -37 -15 -19 -1 -1 rlinecurve
          -70 -85 -1 -7 12 -12 7 2 98 77 102 76 rlineto
          endchar
        </CharString>
        <CharString name="Acutesmall">
          -142 486 -21 205 -20 hstem
          407 635 9 callgsubr
        </CharString>
        <CharString name="Adieresis">
          57 0 -27 callsubr
          52 129 hstem
          286 140 callsubr
          617 742 rmoveto
          19 17 8 16 17 hvcurveto
          -44 callgsubr
          29 -26 24 -31 -20 -44 callsubr
          -29 26 -25 32 vhcurveto
          -272 hmoveto
          18 18 8 16 17 hvcurveto
          17 16 9 17 19 vvcurveto
          160 callsubr
          -29 27 -25 32 vhcurveto
          271 -711 rmoveto
          5 callgsubr
        </CharString>
        <CharString name="Agrave">
          49 0 -27 callsubr
          235 -20 hstem
          612 -107 callgsubr
          -53 615 rmoveto
          -59 callgsubr
        </CharString>
        <CharString name="Alpha">
          92 0 -27 callsubr
          hstem
          647 -107 callgsubr
          endchar
        </CharString>
        <CharString name="Alphatonos">
          62 0 -27 callsubr
          26 -20 hstemhm
          hintmask 11010000
          231 -13 callgsubr
          399 -676 rmoveto
          hintmask 11100000
          5 callgsubr
        </CharString>
        <CharString name="Amacron">
          50 0 -27 callsubr
          54 66 hstem
          612 -107 callgsubr
          204 544 5 callsubr
        </CharString>
        <CharString name="Aogonek">
          63 -188 54 134 -27 callsubr
          hstem
          420 78 vstem
          622 -107 callgsubr
          88 -264 rmoveto
          44 callgsubr
          39 203 callgsubr
          -7 -37 callsubr
        </CharString>
        <CharString name="Aring">
          53 0 -27 callsubr
          58 50 100 50 hstem
          413 51 103 51 vstem
          612 -107 callgsubr
          51 482 -53 callsubr
          endchar
        </CharString>
        <CharString name="Aringacute">
          155 0 -27 callsubr
          61 50 100 50 212 -20 hstem
          482 51 103 51 vstem
          697 -107 callgsubr
          257 889 rmoveto
          -105 callgsubr
          -222 -404 rmoveto
          31 29 12 25 25 hvcurveto
          26 25 13 27 31 vvcurveto
          47 -34 33 -47 -31 -29 -12 -25 -26 vhcurveto
          -25 -25 -13 -28 -31 vvcurveto
          -45 34 -34 47 vhcurveto
          73 111 rmoveto
          -32 -30 -29 -32 -27 -14 13 26 32 30 29 32 27 14 -13 -26 vhcurveto
          endchar
        </CharString>
        <CharString name="Atilde">
          49 0 -27 callsubr
          170 -20 hstem
          612 -107 callgsubr
          205 594 -1 callsubr
          -75 callgsubr
          58 callgsubr
        </CharString>
        <CharString name="B">
          105 20 callgsubr
          hstemhm
          555 154 -103 145 hintmask 11010000
          746 519 rmoveto
          3 14 2 13 13 vvcurveto
          81 -62 50 -111 vhcurveto
          -396 183 callsubr
          -61 callsubr
          395 hlineto
          157 92 58 116 25 hvcurveto
          hintmask 11100000
          3 15 2 14 13 vvcurveto
          45 -18 36 -36 25 vhcurveto
          -29 20 -34 11 -38 1 46 7 40 18 35 28 38 31 24 37 9 44 rrcurveto
          -144 1 rmoveto
          -11 -54 -26 -41 -41 -28 rrcurveto
          -21 -31 -31 -11 -32 hhcurveto
          -76 hlineto
          63 294 rlineto
          89 hlineto
          hintmask 11010000
          56 44 -36 -65 -12 -1 -13 -3 -13 hvcurveto
          -52 -344 rmoveto
          -11 -53 -29 -40 -49 -26 rrcurveto
          -17 -32 -31 -9 -30 hhcurveto
          -85 hlineto
          64 305 rlineto
          77 hlineto
          33 29 -8 -15 23 hvcurveto
          hintmask 11100000
          31 -21 15 -31 -43 vvcurveto
          -13 -2 -14 -3 -15 vhcurveto
          endchar
        </CharString>
        <CharString name="Beta">
          117 20 callgsubr
          hstemhm
          528 154 -103 145 hintmask 11010000
          719 519 rmoveto
          3 14 2 13 13 vvcurveto
          81 -62 50 -111 vhcurveto
          -396 183 callsubr
          -61 callsubr
          395 hlineto
          157 92 58 116 25 hvcurveto
          hintmask 11100000
          3 15 2 14 13 vvcurveto
          45 -18 36 -36 25 vhcurveto
          -29 20 -34 11 -38 1 46 7 40 18 35 28 38 31 24 37 9 44 rrcurveto
          -144 1 rmoveto
          -11 -54 -26 -41 -41 -28 rrcurveto
          -21 -31 -31 -11 -32 hhcurveto
          -76 hlineto
          63 294 rlineto
          89 hlineto
          hintmask 11010000
          56 44 -36 -65 -12 -1 -13 -3 -13 hvcurveto
          -52 -344 rmoveto
          -11 -53 -29 -40 -49 -26 rrcurveto
          -17 -32 -31 -9 -30 hhcurveto
          -85 hlineto
          64 305 rlineto
          77 hlineto
          33 29 -8 -15 23 hvcurveto
          hintmask 11100000
          31 -21 15 -31 -43 vvcurveto
          -13 -2 -14 -3 -15 vhcurveto
          endchar
        </CharString>
        <CharString name="Breve">
          759 64 94 -20 hstem
          312 917 -43 callgsubr
          endchar
        </CharString>
        <CharString name="Brevesmall">
          530 60 92 -20 hstem
          301 682 rmoveto
          -24 hlineto
          -61 -11 -36 -31 -60 hhcurveto
          -65 -38 31 61 -11 hvcurveto
          -24 hlineto
          -3 -4 rlineto
          -88 52 -60 88 41 33 14 29 24 vhcurveto
          24 29 12 35 41 vvcurveto
          endchar
        </CharString>
        <CharString name="C">
          200 callgsubr
          174 callsubr
          761 650 -87 callsubr
          endchar
        </CharString>
        <CharString name="CR">
          -255 endchar
        </CharString>
        <CharString name="Cacute">
          200 callgsubr
          235 -20 174 callsubr
          761 650 -87 callsubr
          -134 285 rmoveto
          -105 callgsubr
          endchar
        </CharString>
        <CharString name="Caron">
          772 -21 179 -20 hstem
          334 930 rmoveto
          -31 hlineto
          -134 -123 -135 123 rlineto
          -31 hlineto
          -3 -5 140 -174 rlineto
          61 hlineto
          137 174 rlineto
          endchar
        </CharString>
        <CharString name="Caronsmall">
          547 -21 160 -20 hstem
          326 686 rmoveto
          -33 hlineto
          -126 -111 -127 111 rlineto
          -32 hlineto
          -2 -4 127 -156 rlineto
          67 hlineto
          127 156 rlineto
          endchar
        </CharString>
        <CharString name="Ccaron">
          200 callgsubr
          224 -20 174 callsubr
          761 650 -87 callsubr
          -292 107 -62 callsubr
        </CharString>
        <CharString name="Ccedilla">
          -238 46 72 42 63 65 591 56 174 callsubr
          461 -153 15 callsubr
          -57 callsubr
          300 803 -87 callsubr
          endchar
        </CharString>
        <CharString name="Ccircumflex">
          200 callgsubr
          221 -20 174 callsubr
          761 650 -87 callsubr
          -144 279 -95 callsubr
          endchar
        </CharString>
        <CharString name="Cdotaccent">
          200 callgsubr
          47 94 174 callsubr
          761 650 -87 callsubr
          -182 154 -51 callsubr
        </CharString>
        <CharString name="Cedilla">
          -270 -173 -21 185 -20 hstemhm
          206 45 vstemhm
          251 -114 rmoveto
          24 -14 22 -28 20 vhcurveto
          -11 6 -3 7 6 8 12 16 rcurveline
          -34 2 -30 -54 rlineto
          -5 vlineto
          38 -15 19 -21 -25 vvcurveto
          -20 -19 -16 -12 -4 -8 5 9 -11 vhcurveto
          9 -11 -8 4 -6 hhcurveto
          hintmask 11100000
          -15 -8 -8 -16 -21 18 -11 35 48 46 36 44 hvcurveto
          endchar
        </CharString>
        <CharString name="Cedillasmall">
          -225 46 72 42 58 -20 hstem
          270 -140 15 callsubr
          -57 callsubr
          endchar
        </CharString>
        <CharString name="Chi">
          186 129 callgsubr
          657 -31 callgsubr
          -6 -31 rlineto
          21 12 0 -1 3 hvcurveto
          10 -1 8 -5 6 -7 rrcurveto
          1 -2 1 -3 -3 vvcurveto
          -13 -12 -16 -23 -21 vhcurveto
          -183 -155 -37 76 -37 76 -38 75 rlinecurve
          89 hlineto
          6 31 rlineto
          -330 hlineto
          -5 -31 rlineto
          71 hlineto
          170 -333 -77 -71 -77 -72 -77 -73 rlinecurve
          -33 -27 -27 -18 -19 -11 rrcurveto
          -15 -27 -29 -8 -31 hhcurveto
          -61 callsubr
          239 -84 callgsubr
          -32 hlineto
          -8 1 -8 5 -9 9 rrcurveto
          -3 3 -1 3 4 vvcurveto
          12 10 16 20 20 vhcurveto
          101 93 69 63 37 34 132 -263 rcurveline
          -83 hlineto
          -61 callsubr
          341 -84 callgsubr
          -85 hlineto
          -195 369 210 184 33 29 27 20 20 10 rlinecurve
          11 21 28 5 35 179 callsubr
          endchar
        </CharString>
        <CharString name="Circumflex">
          772 -21 179 -20 hstem
          191 930 rmoveto
          -46 hlineto
          -141 -174 3 -5 rlineto
          31 hlineto
          129 115 128 -115 rlineto
          31 hlineto
          3 6 rlineto
          endchar
        </CharString>
        <CharString name="Circumflexsmall">
          547 -21 160 -20 hstem
          198 686 rmoveto
          -62 hlineto
          -128 -156 2 -4 rlineto
          32 hlineto
          125 111 125 -111 rlineto
          32 hlineto
          1 4 rlineto
          endchar
        </CharString>
        <CharString name="Commaaccent">
          -653 -274 62 callsubr
          hstemhm
          -55 127 hintmask 01100000
          -84 -274 -55 callgsubr
          -28 18 -15 36 -1 hvcurveto
          13 5 -5 -11 -2 hvcurveto
          -7 -33 -33 -21 -59 -9 rrcurveto
          hintmask 10100000
          -20 vlineto
          endchar
        </CharString>
        <CharString name="Commaaccentsmall">
          -287 -186 -21 86 80 hstemhm
          -47 93 vstemhm
          46 -104 rmoveto
          17 -4 14 -7 11 vhcurveto
          14 -9 -12 7 -16 hhcurveto
          -24 -21 -16 -24 -23 17 -17 23 hvcurveto
          4 9 8 4 hhcurveto
          hintmask 11100000
          3 1 1 -4 -9 vvcurveto
          -29 -27 -30 -28 -8 vhcurveto
          -15 vlineto
          25 3 20 13 17 21 rrcurveto
          17 21 8 22 23 vvcurveto
          endchar
        </CharString>
        <CharString name="D">
          127 -1 29 -29 41 616 28 4 -20 hstemhm
          644 147 hintmask 10101000
          780 334 rmoveto
          76 callsubr
          hintmask 10011000
          117 callgsubr
          hintmask 10101000
          -10 -32 -41 callgsubr
          -133 -628 -11 callsubr
          -151 2 rmoveto
          hintmask 01101000
          66 callgsubr
          endchar
        </CharString>
        <CharString name="Dcaron">
          127 -1 29 -29 41 616 28 237 -20 hstemhm
          644 147 hintmask 10111000
          780 334 rmoveto
          76 callsubr
          117 callgsubr
          -10 -32 -41 callgsubr
          -133 -628 -11 callsubr
          -151 2 rmoveto
          hintmask 01111000
          66 callgsubr
          -207 410 -62 callsubr
        </CharString>
        <CharString name="Delta">
          76 callgsubr
        </CharString>
        <CharString name="Dieresis">
          783 110 hstem
          -9 110 131 110 vstem
          287 132 callsubr
          -241 hmoveto
          138 callsubr
        </CharString>
        <CharString name="Dieresissmall">
          -206 -8 callsubr
        </CharString>
        <CharString name="Dmacron">
          148 135 callgsubr
          780 334 rmoveto
          76 callsubr
          hintmask 10101100
          117 callgsubr
          hintmask 10110100
          -10 -32 -41 callgsubr
          -62 -293 rlineto
          -91 hlineto
          -8 -35 rlineto
          91 hlineto
          -63 -300 -11 callsubr
          -151 2 rmoveto
          hintmask 01110100
          67 callgsubr
          62 294 rcurveline
          101 hlineto
          7 35 rlineto
          -101 hlineto
          61 285 45 5 38 0 31 -3 rlinecurve
          83 callgsubr
          endchar
        </CharString>
        <CharString name="Dotaccent">
          783 110 hstem
          112 110 vstem
          167 132 callsubr
          endchar
        </CharString>
        <CharString name="Dotaccentsmall">
          553 106 hstem
          113 107 vstem
          167 553 rmoveto
          29 24 24 29 31 -24 22 -29 -31 -23 -24 -29 -29 25 -24 29 hvcurveto
          endchar
        </CharString>
        <CharString name="E">
          84 -3 callsubr
          hstem
          157 -107 callsubr
          endchar
        </CharString>
        <CharString name="Eacute">
          84 -3 callsubr
          246 -20 hstem
          157 -107 callsubr
          -154 238 rmoveto
          -105 callgsubr
          endchar
        </CharString>
        <CharString name="Ebreve">
          84 -3 callsubr
          53 61 hstem
          157 -107 callsubr
          -145 198 -101 callsubr
          endchar
        </CharString>
        <CharString name="Ecaron">
          84 -3 callsubr
          231 -20 hstem
          157 -107 callsubr
          -349 56 -62 callsubr
        </CharString>
        <CharString name="Ecircumflex">
          84 -3 callsubr
          231 -20 hstem
          157 -107 callsubr
          -210 231 -95 callsubr
          endchar
        </CharString>
        <CharString name="Edieresis">
          84 -3 callsubr
          55 129 hstem
          307 140 callsubr
          157 -107 callsubr
          -134 55 rmoveto
          71 callgsubr
          -44 callgsubr
          29 -27 24 -31 -19 -44 callsubr
          -29 25 -25 32 vhcurveto
          -272 hmoveto
          71 callgsubr
          -44 callgsubr
          29 -26 24 -31 -40 callgsubr
          26 -25 32 vhcurveto
          endchar
        </CharString>
        <CharString name="Edotaccent">
          84 -3 callsubr
          54 94 hstem
          133 -107 callsubr
          -239 103 -51 callsubr
        </CharString>
        <CharString name="Egrave">
          84 -3 callsubr
          232 -20 hstem
          157 -107 callsubr
          -363 188 rmoveto
          -59 callgsubr
        </CharString>
        <CharString name="Emacron">
          84 -3 callsubr
          56 66 hstem
          157 -107 callsubr
          -117 122 5 callsubr
        </CharString>
        <CharString name="Eng">
          168 -195 -21 216 31 628 31 hstem
          599 -31 callgsubr
          -5 -31 rlineto
          37 21 -3 -6 6 -69 callsubr
          -39 -22 3 7 -5 hvcurveto
          -14 18 -3 26 7 33 110 519 rcurveline
          278 -637 rlineto
          -9 -43 -5 -23 -1 vvcurveto
          -8 -30 -10 -21 -12 -11 rrcurveto
          -8 -8 -10 -4 -12 hhcurveto
          -10 -19 6 12 -27 hvcurveto
          -53 -73 rlineto
          -13 18 20 -7 23 hhcurveto
          34 32 14 29 31 hvcurveto
          15 15 15 30 13 47 5 19 5 21 5 25 125 589 rcurveline
          152 callgsubr
          rrcurveto
          85 callgsubr
          endchar
        </CharString>
        <CharString name="Eogonek">
          84 -188 54 134 38 293 39 281 39 hstem
          224 77 vstem
          157 -107 callsubr
          -427 -688 rmoveto
          -73 -35 -47 -57 -43 vvcurveto
          -19 8 -14 17 -10 vhcurveto
          -8 15 17 -4 20 hhcurveto
          41 39 203 callgsubr
          -8 19 rlineto
          -11 -19 -20 -5 -21 hhcurveto
          -19 -14 5 9 -8 hvcurveto
          -5 7 -3 7 9 vvcurveto
          30 23 33 46 36 vhcurveto
          endchar
        </CharString>
        <CharString name="Epsilon">
          105 -3 callsubr
          hstem
          152 -107 callsubr
          endchar
        </CharString>
        <CharString name="Epsilontonos">
          271 -3 callsubr
          22 -20 hstem
          307 -107 callsubr
          -727 14 rmoveto
          -105 callgsubr
          endchar
        </CharString>
        <CharString name="Eta">
          187 123 callgsubr
          hstem
          550 -104 callgsubr
          endchar
        </CharString>
        <CharString name="Etatonos">
          333 123 callgsubr
          25 -20 hstem
          701 -104 callgsubr
          -835 17 rmoveto
          -105 callgsubr
          endchar
        </CharString>
        <CharString name="Eth">
          127 135 callgsubr
          91 363 rmoveto
          -8 -35 rlineto
          91 hlineto
          -63 -300 -11 callsubr
          76 callsubr
          hintmask 10101100
          117 callgsubr
          hintmask 01110100
          -10 -32 -41 callgsubr
          -62 -293 rlineto
          139 hmoveto
          61 285 45 5 38 0 31 -3 rlinecurve
          83 callgsubr
          67 callgsubr
          62 294 rcurveline
          101 hlineto
          7 35 rlineto
          endchar
        </CharString>
        <CharString name="Euro">
          91 0 54 188 53 54 54 188 54 hstem
          136 53 vstem
          628 403 rmoveto
          -556 hlineto
          -23 -54 rlineto
          557 hlineto
          -23 -54 rmoveto
          -511 hlineto
          -23 -53 rlineto
          511 hlineto
          107 -90 rmoveto
          -65 -58 -70 -33 -81 hhcurveto
          -75 -64 26 51 -52 hvcurveto
          -52 52 -26 64 75 vvcurveto
          75 26 64 52 52 vhcurveto
          52 52 64 26 75 hhcurveto
          80 70 -32 -64 59 hvcurveto
          23 54 rlineto
          64 -63 -78 32 -91 hhcurveto
          -92 -77 -31 -62 -61 hvcurveto
          -61 -61 -31 -77 -92 vvcurveto
          -91 31 -77 61 -62 vhcurveto
          -61 61 77 -31 92 hhcurveto
          83 70 24 49 56 hvcurveto
          endchar
        </CharString>
        <CharString name="F">
          107 0 31 300 39 281 39 hstem
          186 -31 callgsubr
          -7 -41 callsubr
          -133 -628 rlineto
          -94 hlineto
          -61 callsubr
          325 -84 callgsubr
          -94 hlineto
          63 300 -66 callsubr
          endchar
        </CharString>
        <CharString name="G">
          54 -16 73 callsubr
          hstem
          39 137 vstem
          -91 callgsubr
          endchar
        </CharString>
        <CharString name="Gamma">
          97 0 31 623 36 hstem
          190 -31 callgsubr
          -7 -41 callsubr
          -167 -628 rlineto
          -94 hlineto
          -8 -31 rlineto
          337 hlineto
          9 31 rlineto
          -93 hlineto
          165 623 rlineto
          120 hlineto
          52 -3 39 -9 26 -15 35 -20 16 -33 -3 -45 -1 -12 -2 -14 -3 -15 38 -1 rcurveline
          51 203 rlineto
          endchar
        </CharString>
        <CharString name="Gbreve">
          54 -16 73 callsubr
          38 61 hstem
          39 137 vstem
          -91 callgsubr
          -73 267 -101 callsubr
          endchar
        </CharString>
        <CharString name="Gcircumflex">
          54 -16 73 callsubr
          -34 247 hstemhm
          39 137 hintmask 11110100
          -91 callgsubr
          hintmask 11101100
          -148 297 -95 callsubr
          endchar
        </CharString>
        <CharString name="Gcommaaccent">
          54 -315 62 callsubr
          83 73 callsubr
          hstemhm
          39 137 59 127 hintmask 10111111
          -91 callgsubr
          -485 -937 -55 callgsubr
          hvcurveto
          hintmask 01111111
          -40 callsubr
        </CharString>
        <CharString name="Gdotaccent">
          54 -16 73 callsubr
          40 94 hstem
          39 137 vstem
          -91 callgsubr
          -159 173 -51 callsubr
        </CharString>
        <CharString name="Grave">
          772 -21 174 -20 hstem
          275 770 rmoveto
          -39 47 -23 28 -7 9 -47 58 rcurveline
          -92 13 -4 -4 -6 -15 102 -76 98 -77 7 -2 12 12 rlineto
          endchar
        </CharString>
        <CharString name="Gravesmall">
          -142 486 -21 204 -20 hstem
          197 648 21 callsubr
        </CharString>
        <CharString name="H">
          147 123 callgsubr
          hstem
          523 -104 callgsubr
          endchar
        </CharString>
        <CharString name="H18533">
          -259 67 -21 284 -20 hstem
          194 330 rmoveto
          -39 -34 -14 -28 -28 hvcurveto
          -27 -27 -14 -34 -39 vvcurveto
          -39 14 -34 27 -28 vhcurveto
          -27 27 34 -14 40 hhcurveto
          39 34 14 27 27 hvcurveto
          27 28 14 34 39 vvcurveto
          39 -14 34 -28 27 vhcurveto
          28 -27 -33 14 -39 hhcurveto
          endchar
        </CharString>
        <CharString name="H18543">
          -330 92 186 hstem
          65 186 vstem
          65 278 rmoveto
          -186 186 186 vlineto
          endchar
        </CharString>
        <CharString name="H18551">
          -330 94 30 125 31 hstem
          68 30 125 31 vstem
          68 280 rmoveto
          -186 186 186 vlineto
          -31 -156 rmoveto
          -125 125 125 hlineto
          endchar
        </CharString>
        <CharString name="H22073">
          -210 -4 30 319 30 hstem
          29 30 319 30 vstem
          29 -4 rmoveto
          379 379 -379 hlineto
          349 -30 rmoveto
          -319 -319 319 vlineto
          endchar
        </CharString>
        <CharString name="Hbar">
          197 0 112 callsubr
          116 34 128 31 hstem
          523 -31 callgsubr
          -5 -31 rlineto
          93 hlineto
          -27 -128 rlineto
          -250 hlineto
          27 128 -41 callgsubr
          6 31 rlineto
          -334 hlineto
          -6 -41 callsubr
          -27 -128 rlineto
          -90 hlineto
          -7 -34 rlineto
          89 hlineto
          -99 -466 rlineto
          -94 hlineto
          -6 -31 rlineto
          333 -84 callgsubr
          -94 hlineto
          67 315 rlineto
          250 hlineto
          -66 -315 rlineto
          -94 hlineto
          -61 callsubr
          328 -84 callgsubr
          -94 hlineto
          99 466 rlineto
          107 hlineto
          7 34 rlineto
          -106 hlineto
          27 128 -41 callgsubr
          5 31 rlineto
          -299 -309 rmoveto
          -250 hlineto
          25 116 rlineto
          250 hlineto
          endchar
        </CharString>
        <CharString name="Hcircumflex">
          147 123 callgsubr
          225 -20 hstem
          523 -104 callgsubr
          -270 225 -95 callsubr
          endchar
        </CharString>
        <CharString name="Hungarumlaut">
          19 763 -21 hstem
          188 809 178 callsubr
          8 -14 -1 -12 -9 -164 -124 rcurveline
          17 -12 rlineto
          367 67 150 callsubr
          -7 10 -13 6 vhcurveto
          -15 8 -14 -1 -12 -9 -165 -124 rcurveline
          18 -12 rlineto
          endchar
        </CharString>
        <CharString name="Hungarumlautsmall">
          -229 530 -21 hstem
          196 576 178 callsubr
          7 -14 0 -11 -9 -165 -124 rcurveline
          17 -12 rlineto
          367 67 178 callsubr
          7 -14 0 -12 -9 -164 -124 rcurveline
          17 -12 rlineto
          endchar
        </CharString>
        <CharString name="I">
          -176 129 callgsubr
          141 -31 callgsubr
          -6 -41 callsubr
          -134 214 callsubr
          -61 callsubr
          330 -84 callgsubr
          -94 hlineto
          134 628 -41 callgsubr
          5 31 rlineto
          endchar
        </CharString>
        <CharString name="IJ">
          173 -213 65 148 31 628 31 hstem
          141 -31 callgsubr
          -6 -41 callsubr
          -134 214 callsubr
          -61 callsubr
          330 -84 callgsubr
          -94 hlineto
          134 628 -41 callgsubr
          5 31 rlineto
          20 hmoveto
          -33 callgsubr
          endchar
        </CharString>
        <CharString name="Iacute">
          -176 20 callgsubr
          243 -20 hstem
          141 -31 callgsubr
          -6 -41 callsubr
          -134 214 callsubr
          -61 callsubr
          330 -84 callgsubr
          -94 hlineto
          134 628 -41 callgsubr
          5 31 rlineto
          24 235 rmoveto
          -105 callgsubr
          endchar
        </CharString>
        <CharString name="Ibreve">
          -176 20 callgsubr
          58 61 hstem
          141 -31 callgsubr
          -6 -41 callsubr
          -134 214 callsubr
          -61 callsubr
          330 -84 callgsubr
          -94 hlineto
          134 628 -41 callgsubr
          5 31 rlineto
          3 203 -101 callsubr
          endchar
        </CharString>
        <CharString name="Icircumflex">
          -176 20 callgsubr
          229 -20 hstem
          141 -31 callgsubr
          -6 -41 callsubr
          -134 214 callsubr
          -61 callsubr
          330 -84 callgsubr
          -94 hlineto
          134 628 -41 callgsubr
          5 31 rlineto
          -69 229 -95 callsubr
          endchar
        </CharString>
        <CharString name="Idieresis">
          -176 20 callgsubr
          49 129 hstem
          141 140 callsubr
          141 -31 callgsubr
          -6 -41 callsubr
          -134 214 callsubr
          -61 callsubr
          330 -84 callgsubr
          -94 hlineto
          134 628 -41 callgsubr
          5 31 rlineto
          49 vmoveto
          71 callgsubr
          -44 callgsubr
          29 -27 24 -31 -19 -44 callsubr
          -29 25 -25 32 vhcurveto
          -272 hmoveto
          71 callgsubr
          -44 callgsubr
          29 -26 24 -31 -40 callgsubr
          26 -25 32 vhcurveto
          endchar
        </CharString>
        <CharString name="Idotaccent">
          -176 20 callgsubr
          55 94 hstem
          141 -31 callgsubr
          -6 -41 callsubr
          -134 214 callsubr
          -61 callsubr
          330 -84 callgsubr
          -94 hlineto
          134 628 -41 callgsubr
          5 31 rlineto
          -94 104 -51 callsubr
        </CharString>
        <CharString name="Igrave">
          -176 20 callgsubr
          236 -20 hstem
          141 -31 callgsubr
          -6 -41 callsubr
          -134 214 callsubr
          -61 callsubr
          330 -84 callgsubr
          -94 hlineto
          134 628 -41 callgsubr
          5 31 rlineto
          -244 192 rmoveto
          -59 callgsubr
        </CharString>
        <CharString name="Imacron">
          -176 20 callgsubr
          47 66 hstem
          141 -31 callgsubr
          -6 -41 callsubr
          -134 214 callsubr
          -61 callsubr
          330 -84 callgsubr
          -94 hlineto
          134 628 -41 callgsubr
          5 31 rlineto
          8 113 5 callsubr
        </CharString>
        <CharString name="Iogonek">
          -176 -188 54 134 31 628 31 hstem
          32 78 vstem
          141 -31 callgsubr
          -6 -41 callsubr
          -134 214 callsubr
          -61 callsubr
          330 -84 callgsubr
          -94 hlineto
          134 628 -41 callgsubr
          5 31 rlineto
          -318 -688 rmoveto
          -75 -35 -46 -57 -43 80 callsubr
          -5 7 -3 7 9 vvcurveto
          30 23 33 45 36 vhcurveto
          endchar
        </CharString>
        <CharString name="Iota">
          -207 129 callgsubr
          154 -31 callgsubr
          -6 -41 callsubr
          -134 214 callsubr
          -61 callsubr
          330 -84 callgsubr
          -94 hlineto
          134 628 -41 callgsubr
          5 31 rlineto
          endchar
        </CharString>
        <CharString name="Iotadieresis">
          -163 20 callgsubr
          50 129 hstem
          138 140 callsubr
          154 -31 callgsubr
          -6 -41 callsubr
          -134 214 callsubr
          -61 callsubr
          330 -84 callgsubr
          -94 hlineto
          134 628 -41 callgsubr
          5 31 rlineto
          -16 50 rmoveto
          71 callgsubr
          -44 callgsubr
          29 -27 24 -31 -19 -44 callsubr
          -29 25 -25 32 vhcurveto
          -272 hmoveto
          71 callgsubr
          -44 callgsubr
          29 -26 24 -31 -40 callgsubr
          26 -25 32 vhcurveto
          endchar
        </CharString>
        <CharString name="Iotatonos">
          -46 20 callgsubr
          23 -20 hstem
          283 -31 callgsubr
          -6 -41 callsubr
          -134 214 callsubr
          -61 callsubr
          330 -84 callgsubr
          -94 hlineto
          134 628 -41 callgsubr
          5 31 rlineto
          -419 15 rmoveto
          -105 callgsubr
          endchar
        </CharString>
        <CharString name="Itilde">
          -176 20 callgsubr
          -31 198 8 -20 hstemhm
          hintmask 11010000
          141 -31 callgsubr
          -6 -41 callsubr
          -134 214 callsubr
          -61 callsubr
          330 -84 callgsubr
          -94 hlineto
          134 628 -41 callgsubr
          5 31 rlineto
          -12 175 -1 callsubr
          hintmask 10100000
          -75 callgsubr
          hintmask 11010000
          58 callgsubr
        </CharString>
        <CharString name="J">
          -263 -213 65 807 31 hstem
          181 -31 callgsubr
          -33 callgsubr
          endchar
        </CharString>
        <CharString name="Jcircumflex">
          -263 -213 65 807 31 234 -20 hstem
          121 -31 callgsubr
          -33 callgsubr
          -84 234 -95 callsubr
          endchar
        </CharString>
        <CharString name="K">
          147 129 callgsubr
          606 -65 callgsubr
          endchar
        </CharString>
        <CharString name="Kappa">
          176 129 callgsubr
          603 -65 callgsubr
          endchar
        </CharString>
        <CharString name="Kcommaaccent">
          147 -303 62 callsubr
          87 31 628 31 hstemhm
          327 127 hintmask 10111000
          606 -65 callgsubr
          -564 -993 -55 callgsubr
          hvcurveto
          hintmask 01111000
          -40 callsubr
        </CharString>
        <CharString name="L">
          27 0 38 621 31 hstem
          644 240 rmoveto
          -16 -64 -32 -50 -48 -37 -17 -13 -22 -11 -28 122 callgsubr
          -182 -3 132 622 rlineto
          95 -84 callgsubr
          -326 hlineto
          -7 -41 callsubr
          -133 -628 rlineto
          -94 hlineto
          -61 callsubr
          630 hlineto
          63 240 rlineto
          endchar
        </CharString>
        <CharString name="Lacute">
          27 0 38 621 31 248 -20 hstem
          644 240 rmoveto
          -16 -64 -32 -50 -48 -37 -17 -13 -22 -11 -28 122 callgsubr
          -182 -3 132 622 rlineto
          95 -84 callgsubr
          -326 hlineto
          -7 -41 callsubr
          -133 -628 rlineto
          -94 hlineto
          -61 callsubr
          630 hlineto
          63 240 rlineto
          -200 -31 callgsubr
          -105 callgsubr
          endchar
        </CharString>
        <CharString name="Lambda">
          165 0 31 679 -20 hstem
          675 31 rmoveto
          -92 679 rlineto
          -89 hlineto
          -339 -572 -24 -41 -17 -25 -11 -11 rlinecurve
          -21 -21 -28 -10 -35 1 rrcurveto
          -14 hlineto
          -61 callsubr
          -32 callsubr
          -21 -20 3 7 -21 hvcurveto
          -2 12 rlineto
          27 47 88 94 150 vhcurveto
          53 81 52 80 53 81 71 -529 rcurveline
          -89 hlineto
          -61 callsubr
          310 -84 callgsubr
          endchar
        </CharString>
        <CharString name="Lcaron">
          27 0 38 621 31 27 -20 hstem
          578 141 vstem
          644 240 rmoveto
          -16 -64 -32 -50 -48 -37 -17 -13 -22 -11 -28 122 callgsubr
          -182 -3 132 622 rlineto
          95 -84 callgsubr
          -326 hlineto
          -7 -41 callsubr
          -133 -628 rlineto
          -94 hlineto
          -61 callsubr
          630 hlineto
          63 240 rlineto
          33 375 -68 callsubr
        </CharString>
        <CharString name="Lcommaaccent">
          27 -309 62 callsubr
          93 38 621 31 hstemhm
          255 127 hintmask 10111000
          644 240 rmoveto
          -16 -64 -32 -50 -48 -37 -17 -13 -22 -11 -28 122 callgsubr
          -182 -3 132 622 rlineto
          95 -84 callgsubr
          -326 hlineto
          -7 -41 callsubr
          -133 -628 rlineto
          -94 hlineto
          -61 callsubr
          630 hlineto
          63 240 rlineto
          -457 -549 -55 callgsubr
          hvcurveto
          hintmask 01111000
          -40 callsubr
        </CharString>
        <CharString name="Ldot">
          27 0 38 278 110 233 31 hstem
          479 110 vstem
          644 240 rmoveto
          -16 -64 -32 -50 -48 -37 -17 -13 -22 -11 -28 122 callgsubr
          -182 -3 132 622 rlineto
          95 -84 callgsubr
          -326 hlineto
          -7 -41 callsubr
          -133 -628 rlineto
          -94 hlineto
          -61 callsubr
          630 hlineto
          63 240 rlineto
          -149 76 rmoveto
          138 callsubr
        </CharString>
        <CharString name="Lslash">
          33 0 38 621 31 hstem
          47 278 rmoveto
          -1 -1 3 -6 6 -11 rrcurveto
          7 -10 3 -4 3 vvcurveto
          149 88 126 75 103 63 -5 10 -6 10 -6 10 rrcurveto
          218 -265 rmoveto
          -16 -64 -32 -50 -48 -37 -17 -13 -22 -11 -28 122 callgsubr
          -182 -3 132 622 rlineto
          95 -84 callgsubr
          -326 hlineto
          -7 -41 callsubr
          -133 -628 rlineto
          -94 hlineto
          -61 callsubr
          630 hlineto
          63 240 rlineto
          endchar
        </CharString>
        <CharString name="M">
          261 129 callgsubr
          751 -11 callgsubr
        </CharString>
        <CharString name="Macron">
          813 50 hstem
          325 863 rmoveto
          -317 -50 317 hlineto
          endchar
        </CharString>
        <CharString name="Macronsmall">
          574 44 hstem
          315 618 rmoveto
          -297 -44 297 hlineto
          endchar
        </CharString>
        <CharString name="Mu">
          318 129 callgsubr
          754 -11 callgsubr
        </CharString>
        <CharString name="N">
          82 141 callgsubr
          hstemhm
          hintmask 10100000
          599 -69 callgsubr
          hintmask 01100000
          -24 callgsubr
          endchar
        </CharString>
        <CharString name="NULL">
          -653 endchar
        </CharString>
        <CharString name="Nacute">
          82 141 callgsubr
          244 -20 hstemhm
          hintmask 10110000
          599 -69 callgsubr
          hintmask 01110000
          -24 callgsubr
          -146 236 rmoveto
          -105 callgsubr
          endchar
        </CharString>
        <CharString name="Ncaron">
          82 141 callgsubr
          231 -20 hstemhm
          hintmask 10110000
          599 -69 callgsubr
          hintmask 01110000
          -24 callgsubr
          -372 56 -62 callsubr
        </CharString>
        <CharString name="Ncommaaccent">
          82 -310 62 callsubr
          94 31 -26 -21 675 31 hstemhm
          281 127 hintmask 10101100
          599 -69 callgsubr
          hintmask 10011100
          -24 callgsubr
          -572 -1000 -55 callgsubr
          hvcurveto
          hintmask 01101100
          -40 callsubr
        </CharString>
        <CharString name="Ntilde">
          82 141 callgsubr
          175 -20 hstemhm
          hintmask 10110000
          680 865 25 callgsubr
          -111 -175 rmoveto
          -5 -31 rlineto
          37 22 -3 -6 5 -69 callsubr
          -39 -22 3 7 -5 hvcurveto
          -14 17 -3 25 7 35 110 519 rcurveline
          hintmask 01110000
          -24 callgsubr
          endchar
        </CharString>
        <CharString name="Nu">
          144 141 callgsubr
          hstemhm
          hintmask 10100000
          604 -69 callgsubr
          hintmask 01100000
          -24 callgsubr
          endchar
        </CharString>
        <CharString name="Numero">
          456 -1 46 -41 -21 167 24 268 25 -25 244 4 -20 21 -20 hstemhm
          111 43 483 43 62 64 189 65 hintmask 1011010111100000
          736 -1 rmoveto
          119 1 109 0 99 -1 rrcurveto
          46 vlineto
          -101 -1 -109 0 -117 1 rrcurveto
          19 619 rmoveto
          9 5 4 8 9 -5 5 -10 hvcurveto
          hintmask 1010100111100000
          -3 -32 -32 -1 -32 hhcurveto
          hintmask 1011010111100000
          -27 -40 1 3 -53 hvcurveto
          165 callsubr
          21 -2 20 -5 17 -8 24 -10 12 -13 1 -17 9 -464 rcurveline
          -255 311 -147 181 -41 52 -69 -1 rcurveline
          hintmask 1011001111100000
          -27 -27 1 2 -27 hvcurveto
          165 callsubr
          17 -2 14 -5 13 -8 rrcurveto
          15 -10 7 -13 -15 vvcurveto
          -7 -533 -1 -15 -12 -13 -24 -12 rlinecurve
          -11 -5 -12 -5 -14 -4 rrcurveto
          165 callsubr
          hintmask 0111010111100000
          3 37 33 2 27 hhcurveto
          hintmask 1011010111100000
          32 38 -2 -3 45 hvcurveto
          9 5 4 8 9 -5 5 -10 -13 -16 3 7 -18 hvcurveto
          -26 11 -13 14 18 vvcurveto
          -10 521 83 -104 82 -104 83 -103 rlinecurve
          hintmask 0111010111100000
          149 -187 85 -101 20 -17 25 22 rcurveline
          8 606 rlineto
          14 12 13 23 12 vhcurveto
          10 5 12 4 14 5 rrcurveto
          305 -355 rmoveto
          43 -16 37 -31 31 vhcurveto
          31 -31 -37 16 -44 hhcurveto
          -44 -38 -16 -31 -31 hvcurveto
          -31 -31 -15 -37 -43 vvcurveto
          -46 15 -38 30 -30 vhcurveto
          -30 30 38 -15 46 hhcurveto
          45 37 15 30 31 hvcurveto
          31 30 15 38 46 vvcurveto
          -65 -1 rmoveto
          -83 -35 -51 -59 -61 -34 57 77 75 39 59 56 56 38 -58 -76 vhcurveto
          endchar
        </CharString>
        <CharString name="O">
          97 52 callgsubr
          185 callsubr
          vstem
          699 339 -106 callgsubr
          endchar
        </CharString>
        <CharString name="OE">
          366 -16 39 -23 38 -18 -21 332 39 281 39 -17 39 hstemhm
          48 136 hintmask 10011010
          669 -31 callgsubr
          -17 -33 4 8 -49 hvcurveto
          hintmask 10010110
          -45 8 -35 3 -25 -1 -96 -4 -85 -34 -75 -65 -77 -67 -51 -87 -24 -108 rrcurveto
          -6 -27 -3 -28 -27 vvcurveto
          -81 25 -68 49 -54 vhcurveto
          49 -54 62 -26 74 2 13 1 34 2 55 5 rrcurveto
          hintmask 00111010
          5 53 37 2 21 hhcurveto
          hintmask 01011010
          452 1 63 240 rlineto
          -39 hlineto
          -16 -64 -32 -50 -48 -37 -17 -13 -22 -11 -28 122 callgsubr
          -182 -3 62 294 -66 callsubr
          -653 -595 rmoveto
          hintmask 10010110
          -48 -38 -45 -24 -51 hhcurveto
          -88 -44 50 99 43 8 58 16 74 hvcurveto
          23 106 28 79 35 51 42 63 55 30 67 -3 33 -1 26 -13 20 -25 8 -11 7 -12 5 -14 rrcurveto
          endchar
        </CharString>
        <CharString name="Oacute">
          97 52 callgsubr
          230 164 callsubr
          vstem
          699 339 -106 callgsubr
          88 592 rmoveto
          -105 callgsubr
          endchar
        </CharString>
        <CharString name="Obreve">
          97 52 callgsubr
          39 61 185 callsubr
          vstem
          699 339 -106 callgsubr
          71 554 -101 callsubr
          endchar
        </CharString>
        <CharString name="Ocircumflex">
          97 52 callgsubr
          -34 244 148 callsubr
          hintmask 11011000
          699 339 -106 callgsubr
          hintmask 10111000
          12 580 -95 callsubr
          endchar
        </CharString>
        <CharString name="Odieresis">
          97 -12 38 650 34 36 129 hstemhm
          38 133 95 201 callgsubr
          -118 135 hintmask 11111100
          596 746 rmoveto
          19 17 8 16 17 hvcurveto
          -44 callgsubr
          29 -26 24 -31 -40 -39 -36 -39 -29 25 -25 32 vhcurveto
          -272 hmoveto
          19 17 23 callgsubr
          -20 -19 -30 callgsubr
          -29 26 -25 32 vhcurveto
          356 -403 rmoveto
          hintmask 11111010
          8 38 4 36 34 vvcurveto
          161 -92 98 -155 -89 -82 -32 -65 -75 vhcurveto
          -78 -69 -51 -88 -23 -107 rrcurveto
          -6 -28 -3 -27 -27 vvcurveto
          -80 24 -67 47 58 callsubr
          61 -26 74 hhcurveto
          87 81 34 69 75 hvcurveto
          75 153 callgsubr
          -148 -3 rmoveto
          -21 -100 -27 -75 -33 -50 rrcurveto
          -59 -39 -49 -30 -61 hhcurveto
          -87 -44 53 105 43 7 53 14 65 hvcurveto
          221 47 82 110 117 89 callgsubr
          -100 -45 -8 -62 -17 -79 hvcurveto
          endchar
        </CharString>
        <CharString name="Ogonek">
          -193 49 144 -20 hstem
          59 59 vstem
          274 -123 rmoveto
          -10 15 rlineto
          -8 hlineto
          -24 -30 -29 -12 -28 hhcurveto
          -34 -17 16 32 25 20 32 41 39 hvcurveto
          -36 hlineto
          -56 -37 -28 -38 -38 vvcurveto
          -45 34 -35 47 42 45 21 43 47 vhcurveto
          endchar
        </CharString>
        <CharString name="Ogoneksmall">
          -189 51 138 -20 hstem
          65 55 vstem
          269 -126 rmoveto
          2 3 1 3 3 vvcurveto
          9 -4 4 -7 -3 -2 -1 -1 -2 vhcurveto
          -21 -35 -29 -11 -24 hhcurveto
          -28 -18 17 24 29 19 32 39 36 hvcurveto
          -32 hlineto
          -54 -37 -27 -40 -43 vvcurveto
          -17 6 -15 12 -13 vhcurveto
          -16 13 19 -8 25 hhcurveto
          45 56 30 33 28 hvcurveto
          endchar
        </CharString>
        <CharString name="Ograve">
          97 52 callgsubr
          -34 249 148 callsubr
          hintmask 11011000
          699 339 -106 callgsubr
          -158 541 rmoveto
          hintmask 10111000
          -59 callgsubr
        </CharString>
        <CharString name="Ohm">
          97 52 callgsubr
          35 129 hstemhm
          57 134 77 86 callsubr
          -102 136 hintmask 11111010
          699 339 -106 callgsubr
          47 405 rmoveto
          71 callgsubr
          hintmask 11111100
          -44 callgsubr
          29 -27 24 -31 -19 -44 callsubr
          -29 25 -25 32 vhcurveto
          -272 hmoveto
          71 callgsubr
          -44 callgsubr
          29 -26 24 -31 -40 callgsubr
          26 -25 32 vhcurveto
          endchar
        </CharString>
        <CharString name="Ohorn">
          76 52 callgsubr
          38 211 callgsubr
          140 -11 122 hintmask 11111000
          -15 callgsubr
          hintmask 11110100
          2 8 193 callsubr
          33 -19 25 -39 19 vhcurveto
          3 -5 -6 1 -6 hhcurveto
          -24 -23 -23 -21 -23 28 -10 21 -13 hvcurveto
          10 -9 4 -10 -3 -12 -5 -22 -25 -15 -47 -8 rrcurveto
          85 -40 -75 43 -109 hhcurveto
          -89 -81 -33 -65 -75 hvcurveto
          104 callsubr
          -28 -3 -27 74 callgsubr
          60 -26 73 hhcurveto
          88 82 34 69 77 hvcurveto
          77 153 callgsubr
          -153 -3 rmoveto
          -21 -101 -27 -75 -32 -49 rrcurveto
          -59 -39 -50 -30 -62 hhcurveto
          -84 -42 51 101 43 7 55 15 69 hvcurveto
          23 105 28 79 33 52 rrcurveto
          63 41 52 32 64 hhcurveto
          hintmask 11111000
          91 callgsubr
          endchar
        </CharString>
        <CharString name="Ohungarumlaut">
          97 52 callgsubr
          264 164 callsubr
          vstem
          699 339 -106 callgsubr
          139 599 -56 callsubr
        </CharString>
        <CharString name="Omacron">
          97 52 callgsubr
          36 66 185 callsubr
          vstem
          699 339 -106 callgsubr
          66 472 5 callsubr
        </CharString>
        <CharString name="Omega">
          205 0 104 -104 168 501 34 hstemhm
          126 78 callgsubr
          hintmask 10111000
          825 474 -99 callgsubr
          hintmask 01111000
          -104 callsubr
          hintmask 10111000
          -84 callsubr
          endchar
        </CharString>
        <CharString name="Omegatonos">
          290 0 104 -104 168 501 34 15 -20 hstemhm
          218 78 callgsubr
          hintmask 10101100
          917 474 -99 callgsubr
          hintmask 01101100
          -104 callsubr
          hintmask 10011100
          -84 callsubr
          -723 236 rmoveto
          -105 callgsubr
          endchar
        </CharString>
        <CharString name="Omicron">
          101 52 callgsubr
          hstem
          38 77 callsubr
          vstem
          680 339 -106 callgsubr
          endchar
        </CharString>
        <CharString name="Omicrontonos">
          266 52 callgsubr
          12 -20 hstemhm
          212 77 callsubr
          hintmask 11011000
          854 339 -106 callgsubr
          -512 374 rmoveto
          hintmask 10111000
          -105 callgsubr
          endchar
        </CharString>
        <CharString name="Oslash">
          119 -78 -21 83 38 650 34 58 164 callsubr
          vstem
          497 764 rmoveto
          -281 -863 rlineto
          54 hlineto
          281 863 rlineto
          148 -425 -106 callgsubr
          endchar
        </CharString>
        <CharString name="Oslashacute">
          180 -78 -21 83 38 650 34 231 164 callsubr
          vstem
          497 764 rmoveto
          -281 -863 rlineto
          54 hlineto
          281 863 rlineto
          148 -425 -106 callgsubr
          15 593 rmoveto
          -105 callgsubr
          endchar
        </CharString>
        <CharString name="Otilde">
          97 52 callgsubr
          -34 184 8 -20 148 callsubr
          hintmask 11011100
          699 339 -106 callgsubr
          70 528 -1 callsubr
          hintmask 10101100
          -75 callgsubr
          hintmask 11011100
          58 callgsubr
        </CharString>
        <CharString name="P">
          -11 0 31 268 28 332 31 hstem
          595 137 vstem
          726 495 rmoveto
          4 20 2 18 17 vvcurveto
          52 -22 37 -43 22 vhcurveto
          19 -37 -59 10 -80 hhcurveto
          -312 hlineto
          -5 -31 rlineto
          101 hlineto
          -141 -628 rlineto
          -94 hlineto
          -61 callsubr
          333 -84 callgsubr
          -94 hlineto
          57 268 -17 callgsubr
          87 74 15 29 61 hvcurveto
          72 34 43 51 14 67 rrcurveto
          -137 -2 rmoveto
          -11 -58 -26 -43 -42 -29 rrcurveto
          -24 -35 -43 -12 -49 hhcurveto
          -41 hlineto
          71 332 rlineto
          60 hlineto
          81 41 -35 -71 -17 -2 -20 -4 -23 hvcurveto
          endchar
        </CharString>
        <CharString name="Phi">
          208 0 31 540 28 60 31 hstem
          820 361 rmoveto
          16 75 -18 60 -53 45 -48 41 -63 20 -79 -3 13 60 rcurveline
          94 hlineto
          6 31 rlineto
          -325 hlineto
          -6 -41 callsubr
          -13 -60 -77 3 -71 -20 -65 -41 rlinecurve
          -72 -45 -44 -60 -16 -75 -18 -84 15 -64 49 -45 43 -40 65 -22 87 -3 -16 -72 rcurveline
          -94 hlineto
          -6 -31 rlineto
          325 hlineto
          6 31 rlineto
          -94 hlineto
          16 72 89 3 73 22 59 40 rlinecurve
          67 45 43 64 18 84 rrcurveto
          -136 2 rmoveto
          -29 -139 -69 -77 -110 -17 93 441 rcurveline
          49 -1 35 -24 20 -46 18 -40 4 -46 -11 -51 rrcurveto
          -345 -233 rmoveto
          -102 17 -37 77 29 139 11 51 23 46 35 40 40 46 45 24 49 1 rrcurveto
          endchar
        </CharString>
        <CharString name="Pi">
          201 217 callgsubr
          190 23 callsubr
        </CharString>
        <CharString name="Psi">
          285 -1 32 -13 -21 254 37 246 169 -44 31 -17 30 hstemhm
          119 127 -90 132 hintmask 10100110
          988 630 rmoveto
          1 24 -8 19 -17 13 rrcurveto
          11 -16 -20 6 -25 hhcurveto
          -57 -43 -36 -73 -28 hvcurveto
          -23 -67 -22 -67 -23 -67 -35 -72 -56 -35 -77 2 rrcurveto
          -14 hlineto
          hintmask 10101010
          98 371 -41 callgsubr
          8 31 rlineto
          -331 hlineto
          -61 callsubr
          86 hlineto
          -99 -371 rlineto
          -17 hlineto
          -37 -27 7 14 -19 hvcurveto
          -21 17 -9 26 2 35 1 24 7 35 13 46 rrcurveto
          hintmask 10110001
          13 46 7 34 1 23 2 39 -16 28 -35 17 -27 13 -34 6 -43 -2 -38 -1 rcurveline
          -9 -34 45 4 26 -23 -3 -45 rlinecurve
          -1 -21 -7 -31 -11 -41 rrcurveto
          hintmask 10110010
          -11 -41 -6 -31 -1 -21 -3 -61 20 -44 43 -27 36 -22 50 -9 65 3 34 2 rcurveline
          -58 -222 rlineto
          -85 hlineto
          hintmask 01110010
          -9 -34 329 3 rlineto
          hintmask 10100110
          9 31 rlineto
          -93 hlineto
          58 220 95 -4 70 34 47 73 rlinecurve
          15 24 26 69 37 113 rrcurveto
          75 24 33 38 41 hhcurveto
          15 7 -7 -14 -1 hvcurveto
          -2 -9 -31 -11 -25 -28 -3 -32 rlinecurve
          hintmask 10110010
          -25 -1 13 -13 28 hhcurveto
          23 20 11 21 17 hvcurveto
          16 19 8 22 1 23 rrcurveto
          endchar
        </CharString>
        <CharString name="Q">
          105 -16 37 651 34 hstem
          47 135 384 139 vstem
          703 -93 rmoveto
          -26 -20 -26 -9 -27 3 -17 1 -33 11 -50 20 -57 23 -40 16 -25 11 -37 9 -28 6 -17 1 1 5 rcurveline
          85 7 78 38 72 69 73 69 46 81 19 91 rrcurveto
          7 36 4 35 33 vvcurveto
          79 -21 63 -41 47 vhcurveto
          49 -43 -61 25 -77 hhcurveto
          -95 -85 -33 -65 -75 hvcurveto
          -77 -67 -51 -87 -23 -109 rrcurveto
          -6 -27 -3 -26 -27 vvcurveto
          -79 24 -67 47 -54 vhcurveto
          -54 48 60 -27 72 hhcurveto
          -5 vlineto
          -43 -7 -41 -18 -38 -28 -60 -51 rcurveline
          5 -27 32 20 32 13 33 7 rlinecurve
          27 5 30 0 33 -5 30 -5 31 -11 33 -17 43 -23 31 -14 17 -6 33 -12 28 -3 25 6 30 7 29 16 28 25 11 11 11 11 11 13 rrcurveto
          -157 455 rmoveto
          -213 -46 -75 -107 -105 hhcurveto
          -89 -45 49 99 42 8 59 17 75 hvcurveto
          23 106 27 78 33 51 rrcurveto
          61 41 55 31 68 hhcurveto
          75 37 -50 -99 -46 -8 -61 -16 -75 hvcurveto
          endchar
        </CharString>
        <CharString name="R">
          94 129 callgsubr
          595 129 vstem
          -83 callsubr
          endchar
        </CharString>
        <CharString name="Racute">
          101 20 callgsubr
          246 -20 hstem
          595 129 vstem
          -83 callsubr
          5 414 rmoveto
          -105 callgsubr
          endchar
        </CharString>
        <CharString name="Rcaron">
          101 20 callgsubr
          231 -20 hstem
          595 129 vstem
          -83 callsubr
          -188 232 -62 callsubr
        </CharString>
        <CharString name="Rcommaaccent">
          94 -306 62 callsubr
          90 31 628 31 hstemhm
          340 127 128 129 hintmask 10111100
          -83 callsubr
          -279 -820 -55 callgsubr
          hvcurveto
          hintmask 01111100
          -40 callsubr
        </CharString>
        <CharString name="Rho">
          31 0 31 268 28 332 31 hstem
          571 137 vstem
          702 495 rmoveto
          4 20 2 18 17 vvcurveto
          52 -22 37 -43 22 vhcurveto
          19 -37 -59 10 -80 hhcurveto
          -312 hlineto
          -5 -31 rlineto
          101 hlineto
          -141 -628 rlineto
          -94 hlineto
          -61 callsubr
          333 -84 callgsubr
          -94 hlineto
          57 268 -17 callgsubr
          87 74 15 29 61 hvcurveto
          72 34 43 51 14 67 rrcurveto
          -137 -2 rmoveto
          -11 -58 -26 -43 -42 -29 rrcurveto
          -24 -35 -43 -12 -49 hhcurveto
          -41 hlineto
          71 332 rlineto
          60 hlineto
          81 41 -35 -71 -17 -2 -20 -4 -23 hvcurveto
          endchar
        </CharString>
        <CharString name="Ring">
          743 22 147 22 hstem
          65 42 119 42 vstem
          268 838 rmoveto
          57 -45 39 -56 -57 -45 -40 -56 -56 45 -39 57 56 45 39 56 vhcurveto
          -42 hmoveto
          -19 -5 -16 -11 -14 vhcurveto
          -16 -11 -15 -8 -17 hhcurveto
          -36 -24 37 36 37 24 37 36 35 24 -37 -37 hvcurveto
          endchar
        </CharString>
        <CharString name="Ringsmall">
          518 21 134 21 hstem
          72 40 108 40 vstem
          260 607 rmoveto
          52 -41 35 -53 -52 -42 -36 -51 -52 42 -37 52 53 41 37 52 vhcurveto
          -40 hmoveto
          -35 -21 -33 -33 -32 -22 33 35 35 21 31 33 17 13 -7 -14 11 vhcurveto
          9 -13 4 -15 -17 vvcurveto
          endchar
        </CharString>
        <CharString name="S">
          200 callsubr
          hstem
          104 92 269 30 vstem
          -93 callsubr
          endchar
        </CharString>
        <CharString name="Sacute">
          200 callsubr
          237 -20 hstem
          -93 callsubr
          -10 273 rmoveto
          -105 callgsubr
          endchar
        </CharString>
        <CharString name="Scaron">
          200 callsubr
          224 -20 hstem
          104 92 269 30 vstem
          -93 callsubr
          -205 93 -62 callsubr
        </CharString>
        <CharString name="Scedilla">
          -98 -225 46 72 42 50 56 -27 -21 648 56 hstemhm
          465 30 hintmask 11101100
          -93 callsubr
          -194 -793 15 callsubr
          hintmask 11011100
          42 64 rlineto
          -41 hlineto
          -64 -96 8 -8 rlineto
          3 13 12 1 9 hhcurveto
          23 12 -8 -17 -3 0 -4 -1 -3 hvcurveto
          -25 -5 -20 -12 -34 hhcurveto
          -17 -22 3 6 -25 hvcurveto
          -24 -37 rlineto
          -12 28 28 -6 28 hhcurveto
          35 31 5 11 27 hvcurveto
          36 15 21 23 7 31 rrcurveto
          endchar
        </CharString>
        <CharString name="Scircumflex">
          200 callsubr
          218 -20 hstem
          104 92 269 30 vstem
          -93 callsubr
          -63 262 -95 callsubr
          endchar
        </CharString>
        <CharString name="Scommaaccent">
          -98 -317 62 callsubr
          86 56 600 56 hstemhm
          104 92 -23 127 165 30 hintmask 10111010
          -93 callsubr
          -373 -970 rmoveto
          92 7 52 45 11 83 rrcurveto
          hintmask 01110110
          21 callgsubr
        </CharString>
        <CharString name="Sigma">
          123 1 104 549 37 1 -20 hstemhm
          hintmask 10100000
          211 15 callgsubr
        </CharString>
        <CharString name="T">
          32 0 31 456 203 hstem
          59 -53 callgsubr
          endchar
        </CharString>
        <CharString name="Tau">
          66 0 31 456 203 hstem
          128 -53 callgsubr
          endchar
        </CharString>
        <CharString name="Tbar">
          67 0 31 389 44 23 203 hstem
          59 -31 callgsubr
          -44 -203 rlineto
          42 hlineto
          15 52 24 40 33 29 27 23 47 14 67 6 34 3 rcurveline
          -41 -190 rlineto
          -167 hlineto
          -9 -44 rlineto
          167 hlineto
          -83 -389 rlineto
          -93 hlineto
          -61 callsubr
          332 -84 callgsubr
          -94 hlineto
          83 389 rlineto
          170 hlineto
          9 44 rlineto
          -170 hlineto
          41 190 32 -3 65 -6 41 -14 17 -23 rlinecurve
          17 -22 8 -27 -33 vvcurveto
          -10 -1 -13 -2 -16 140 callgsubr
          endchar
        </CharString>
        <CharString name="Tcaron">
          67 0 31 456 203 231 -20 hstem
          59 -53 callgsubr
          -356 56 -62 callsubr
        </CharString>
        <CharString name="Tcommaaccent">
          67 -316 62 callsubr
          100 31 456 203 hstemhm
          156 127 hintmask 10111000
          59 -53 callgsubr
          -581 -1006 -55 callgsubr
          hvcurveto
          hintmask 01111000
          -40 callsubr
        </CharString>
        <CharString name="Theta">
          82 -16 38 204 182 -114 114 -114 180 198 34 hstemhm
          66 77 callsubr
          hintmask 10011110
          708 339 -106 callgsubr
          -71 138 rmoveto
          hintmask 11001110
          -14 -66 rlineto
          -146 hlineto
          hintmask 10011110
          13 66 rlineto
          -33 hlineto
          hintmask 11001110
          -52 -248 rlineto
          33 hlineto
          hintmask 10101110
          15 68 rlineto
          149 hlineto
          hintmask 11001110
          -18 -68 rlineto
          32 hlineto
          hintmask 10011110
          53 248 rlineto
          endchar
        </CharString>
        <CharString name="Thorn">
          24 0 31 540 32 56 31 hstem
          525 140 vstem
          658 408 rmoveto
          5 21 2 18 17 vvcurveto
          51 -23 37 -47 22 vhcurveto
          19 -40 -60 10 -80 hhcurveto
          -10 hlineto
          12 56 rlineto
          93 -84 callgsubr
          -324 hlineto
          -61 callsubr
          93 hlineto
          -133 214 callsubr
          -61 callsubr
          324 -84 callgsubr
          -93 hlineto
          114 540 rlineto
          85 42 -37 -73 -17 -2 -18 -4 -20 hvcurveto
          -15 -86 -51 -53 -86 -20 17 -29 rcurveline
          155 20 92 63 27 107 rrcurveto
          endchar
        </CharString>
        <CharString name="Tilde">
          783 62 -14 62 hstemhm
          hintmask 01000000
          333 893 rmoveto
          -21 hlineto
          hintmask 10000000
          -32 -13 -20 -16 -27 hhcurveto
          -13 -23 8 16 -34 hvcurveto
          hintmask 01000000
          16 -34 -27 8 -19 hhcurveto
          -26 -23 -12 -23 -21 hvcurveto
          -19 -21 -12 -23 -5 -27 rrcurveto
          hintmask 10000000
          4 -4 rlineto
          21 hlineto
          hintmask 01000000
          32 11 21 16 29 hhcurveto
          10 22 -8 -16 34 hvcurveto
          hintmask 10000000
          -16 35 27 -8 20 hhcurveto
          27 23 12 23 21 hvcurveto
          18 20 12 24 6 28 rrcurveto
          endchar
        </CharString>
        <CharString name="Tildesmall">
          550 59 -37 -21 49 59 2 -20 hstemhm
          hintmask 10010000
          333 661 rmoveto
          -25 hlineto
          -35 -13 -18 -17 -25 hhcurveto
          -12 -23 8 17 -35 hvcurveto
          hintmask 01100000
          17 -35 -26 8 -19 hhcurveto
          -26 -23 -11 -23 -20 hvcurveto
          -19 -20 -12 -24 -5 -27 3 -3 rcurveline
          24 hlineto
          33 13 19 16 26 hhcurveto
          12 23 -8 -17 34 hvcurveto
          hintmask 10010000
          -17 34 26 -8 19 hhcurveto
          27 23 12 23 21 hvcurveto
          17 20 12 24 6 29 rrcurveto
          endchar
        </CharString>
        <CharString name="U">
          86 callgsubr
          hstem
          62 138 vstem
          594 -102 callsubr
          endchar
        </CharString>
        <CharString name="Uacute">
          86 callgsubr
          245 -20 hstem
          32 138 vstem
          564 -102 callsubr
          -134 237 rmoveto
          -105 callgsubr
          endchar
        </CharString>
        <CharString name="Ubreve">
          86 callgsubr
          54 61 hstem
          62 138 vstem
          594 -102 callsubr
          -157 199 -101 callsubr
          endchar
        </CharString>
        <CharString name="Ucircumflex">
          86 callgsubr
          231 -20 hstem
          62 138 vstem
          594 -102 callsubr
          -237 231 -95 callsubr
          endchar
        </CharString>
        <CharString name="Udieresis">
          86 callgsubr
          52 129 hstem
          168 137 98 201 callgsubr
          vstem
          733 742 rmoveto
          19 17 8 16 17 hvcurveto
          -44 callgsubr
          29 -26 24 -31 -19 -44 callsubr
          -29 25 -25 32 vhcurveto
          -272 hmoveto
          19 17 23 callgsubr
          -40 callgsubr
          26 -25 32 vhcurveto
          239 -52 rmoveto
          -61 callsubr
          37 22 176 callgsubr
          10 -10 5 -15 -20 vvcurveto
          -10 -1 -11 -3 -12 vhcurveto
          -66 -310 rlineto
          -157 -33 -82 -79 -129 hhcurveto
          -103 -51 46 93 23 3 27 7 30 hvcurveto
          88 414 rlineto
          93 -84 callgsubr
          -324 hlineto
          -61 callsubr
          93 hlineto
          -93 -437 rlineto
          -3 -13 -1 -14 -13 vvcurveto
          -56 23 -47 47 -39 vhcurveto
          47 -38 61 -19 74 1 95 1 72 22 50 45 51 45 36 74 23 104 64 297 rcurveline
          7 35 14 26 20 16 rrcurveto
          7 8 24 3 39 hhcurveto
          -63 callsubr
          endchar
        </CharString>
        <CharString name="Ugrave">
          86 callgsubr
          234 -20 hstem
          32 138 vstem
          564 -102 callsubr
          -399 190 rmoveto
          -59 callgsubr
        </CharString>
        <CharString name="Uhorn">
          119 -16 142 callsubr
          149 callsubr
          hintmask 11011000
          -9 callgsubr
          hintmask 10111000
          -22 callsubr
          hintmask 11011000
          -88 callsubr
          endchar
        </CharString>
        <CharString name="Uhungarumlaut">
          86 callgsubr
          274 -20 hstem
          62 138 vstem
          594 -102 callsubr
          -100 239 -56 callsubr
        </CharString>
        <CharString name="Umacron">
          86 callgsubr
          53 66 hstem
          62 138 vstem
          594 -102 callsubr
          -146 119 5 callsubr
        </CharString>
        <CharString name="Uogonek">
          102 -188 54 118 131 callgsubr
          hstemhm
          62 138 -7 78 hintmask 11110000
          594 -102 callsubr
          -510 -688 rmoveto
          hintmask 11101000
          44 callgsubr
          39 203 callgsubr
          -7 -37 callsubr
        </CharString>
        <CharString name="Upsilon">
          63 121 callgsubr
          hstemhm
          304 110 hintmask 10110000
          770 -98 callgsubr
          hintmask 11010000
          -21 callgsubr
          endchar
        </CharString>
        <CharString name="Upsilondieresis">
          36 219 callsubr
          55 129 hstemhm
          237 137 -93 114 115 136 -136 234 hintmask 1010101010000000
          742 40 callgsubr
          hintmask 1001110100000000
          9 -42 -44 5 -46 hhcurveto
          hintmask 1010101100000000
          -4 -25 79 -4 53 -28 27 -53 rlinecurve
          17 -35 9 -40 -46 vvcurveto
          -43 -11 -72 -21 -101 vhcurveto
          -49 -232 rlineto
          -89 hlineto
          -7 144 callgsubr
          7 31 rlineto
          -94 hlineto
          50 232 21 95 23 76 25 57 rlinecurve
          48 107 52 62 55 15 rrcurveto
          2 7 6 1 5 hhcurveto
          19 9 -7 -15 -6 -2 -4 -4 -1 hvcurveto
          -25 -7 -17 -18 -9 -31 rrcurveto
          hintmask 1100110100000000
          136 callgsubr
          -175 132 rmoveto
          19 17 8 16 17 hvcurveto
          -44 callgsubr
          29 -26 24 -31 -40 -39 -36 -39 -29 25 -25 32 vhcurveto
          -272 hmoveto
          19 17 8 16 17 hvcurveto
          17 17 9 17 18 vvcurveto
          29 -27 24 -29 -20 -19 -30 callgsubr
          -29 26 -25 32 vhcurveto
          endchar
        </CharString>
        <CharString name="Upsilontonos">
          264 121 callgsubr
          12 -20 hstemhm
          210 246 0 110 hintmask 10100100
          922 -98 callgsubr
          hintmask 11001000
          -21 callgsubr
          -728 78 rmoveto
          hintmask 10011000
          -105 callgsubr
          endchar
        </CharString>
        <CharString name="Uring">
          86 callgsubr
          54 50 100 50 hstem
          62 138 222 51 103 51 vstem
          594 -102 callsubr
          -321 54 -53 callsubr
          endchar
        </CharString>
        <CharString name="Utilde">
          86 callgsubr
          -31 193 8 -20 hstemhm
          62 138 hintmask 11011000
          594 -102 callsubr
          -188 170 -1 callsubr
          hintmask 10101000
          -75 callgsubr
          hintmask 11011000
          58 callgsubr
        </CharString>
        <CharString name="V">
          99 5 -21 675 31 hstem
          556 -31 callgsubr
          -61 callsubr
          38 21 -3 -7 3 hvcurveto
          1 -3 1 -4 -4 vvcurveto
          -16 -12 -29 -25 -41 vhcurveto
          -253 -422 -71 529 rlineto
          80 -84 callgsubr
          -309 hlineto
          -61 callsubr
          76 hlineto
          90 -675 rlineto
          92 hlineto
          335 568 31 53 25 32 21 11 rlinecurve
          15 9 24 3 35 -1 7 31 rcurveline
          endchar
        </CharString>
        <CharString name="W">
          169 callsubr
          hstem
          99 153 vstem
          816 -31 callgsubr
          -61 callsubr
          31 20 -3 -6 7 hvcurveto
          3 -3 1 -4 -7 vvcurveto
          -19 -9 -29 -17 -37 vhcurveto
          -164 -346 -71 485 rlineto
          -62 hlineto
          -285 -464 -22 433 rlineto
          77 -84 callgsubr
          -307 hlineto
          -61 callsubr
          75 hlineto
          27 -679 rlineto
          40 hlineto
          332 534 71 -534 rlineto
          62 hlineto
          270 572 16 34 15 24 14 15 rlinecurve
          12 12 25 25 69 -3 7 31 rcurveline
          endchar
        </CharString>
        <CharString name="Wacute">
          169 callsubr
          248 -20 hstem
          99 153 vstem
          816 -31 callgsubr
          -61 callsubr
          31 20 -3 -6 7 hvcurveto
          3 -3 1 -4 -7 vvcurveto
          -19 -9 -29 -17 -37 vhcurveto
          -164 -346 -71 485 rlineto
          -62 hlineto
          -285 -464 -22 433 rlineto
          77 -84 callgsubr
          -307 hlineto
          -61 callsubr
          75 hlineto
          27 -679 rlineto
          40 hlineto
          332 534 71 -534 rlineto
          62 hlineto
          270 572 16 34 15 24 14 15 rlinecurve
          12 12 25 25 69 -3 7 31 rcurveline
          -274 240 rmoveto
          -105 callgsubr
          endchar
        </CharString>
        <CharString name="Wcircumflex">
          375 1 -21 679 31 231 -20 hstem
          99 153 vstem
          816 -31 callgsubr
          -61 callsubr
          31 20 -3 -6 7 hvcurveto
          3 -3 1 -4 -7 vvcurveto
          -19 -9 -29 -17 -37 vhcurveto
          -164 -346 -71 485 rlineto
          -62 hlineto
          -285 -464 -22 433 rlineto
          77 -84 callgsubr
          -307 hlineto
          -61 callsubr
          75 hlineto
          27 -679 rlineto
          40 hlineto
          332 534 71 -534 rlineto
          62 hlineto
          270 572 16 34 15 24 14 15 rlinecurve
          12 12 25 25 69 -3 7 31 rcurveline
          -364 231 -95 callsubr
          endchar
        </CharString>
        <CharString name="Wdieresis">
          169 callsubr
          51 129 hstem
          99 153 142 138 0 135 0 137 vstem
          816 -31 callgsubr
          -61 callsubr
          31 20 -3 -6 7 hvcurveto
          3 -3 1 -4 -7 vvcurveto
          -19 -9 -29 -17 -37 vhcurveto
          -164 -346 -71 485 rlineto
          -62 hlineto
          -285 -464 -22 433 rlineto
          77 -84 callgsubr
          -307 hlineto
          -61 callsubr
          75 hlineto
          27 -679 rlineto
          40 hlineto
          332 534 71 -534 rlineto
          62 hlineto
          270 572 16 34 15 24 14 15 rlinecurve
          12 12 25 25 69 -3 7 31 rcurveline
          -322 51 rmoveto
          71 callgsubr
          -44 callgsubr
          29 -27 24 -31 -19 -44 callsubr
          -29 25 -25 32 vhcurveto
          -272 hmoveto
          71 callgsubr
          -44 callgsubr
          29 -26 24 -31 -40 callgsubr
          26 -25 32 vhcurveto
          endchar
        </CharString>
        <CharString name="Wgrave">
          169 callsubr
          238 -20 hstem
          99 153 vstem
          816 -31 callgsubr
          -61 callsubr
          31 20 -3 -6 7 hvcurveto
          3 -3 1 -4 -7 vvcurveto
          -19 -9 -29 -17 -37 vhcurveto
          -164 -346 -71 485 rlineto
          -62 hlineto
          -285 -464 -22 433 rlineto
          77 -84 callgsubr
          -307 hlineto
          -61 callsubr
          75 hlineto
          27 -679 rlineto
          40 hlineto
          332 534 71 -534 rlineto
          62 hlineto
          270 572 16 34 15 24 14 15 rlinecurve
          12 12 25 25 69 -3 7 31 rcurveline
          -542 194 rmoveto
          -59 callgsubr
        </CharString>
        <CharString name="X">
          156 129 callgsubr
          680 -31 callgsubr
          -6 -31 rlineto
          21 12 0 -1 3 hvcurveto
          10 -1 8 -5 6 -7 rrcurveto
          1 -2 1 -3 -3 vvcurveto
          -13 -12 -16 -23 -21 vhcurveto
          -183 -155 -37 76 -37 76 -38 75 rlinecurve
          89 hlineto
          6 31 rlineto
          -330 hlineto
          -5 -31 rlineto
          71 hlineto
          170 -333 -77 -71 -77 -72 -77 -73 rlinecurve
          -33 -27 -27 -18 -19 -11 rrcurveto
          -15 -27 -29 -8 -31 hhcurveto
          -61 callsubr
          239 -84 callgsubr
          -32 hlineto
          -8 1 -8 5 -9 9 rrcurveto
          -3 3 -1 3 4 vvcurveto
          12 10 16 20 20 vhcurveto
          101 93 69 63 37 34 132 -263 rcurveline
          -83 hlineto
          -61 callsubr
          341 -84 callgsubr
          -85 hlineto
          -195 369 210 184 33 29 27 20 20 10 rlinecurve
          11 21 28 5 35 179 callsubr
          endchar
        </CharString>
        <CharString name="Xi">
          93 0 104 -104 187 108 107 126 162 -99 99 hstemhm
          hintmask 10110000
          226 -31 callgsubr
          -43 -162 rlineto
          40 hlineto
          hintmask 10101000
          42 3 24 21 47 hhcurveto
          345 hlineto
          19 12 -2 -4 6 hvcurveto
          9 -6 4 -11 -1 -17 rrcurveto
          hintmask 01110000
          -1 -9 -1 -8 -2 -6 rrcurveto
          34 hlineto
          40 162 rlineto
          -187 -225 rmoveto
          -42 -11 -8 -21 -7 hhcurveto
          -259 hlineto
          -2 -1 2 4 11 4 19 9 27 hvcurveto
          -30 hlineto
          -64 -242 rlineto
          29 hlineto
          13 47 13 24 14 1 rrcurveto
          247 hlineto
          5 2 -1 -3 hvcurveto
          -7 -29 -6 -23 -5 -16 rrcurveto
          28 hlineto
          65 242 rlineto
          11 -278 rmoveto
          hintmask 10110000
          -55 -14 -29 -28 -43 hhcurveto
          -386 hlineto
          -29 -14 16 32 1 hvcurveto
          hintmask 01110000
          1 13 2 11 4 11 rrcurveto
          -39 hlineto
          -50 -187 rlineto
          585 hlineto
          50 187 rlineto
          endchar
        </CharString>
        <CharString name="Y">
          43 20 callgsubr
          1 -20 hstemhm
          hintmask 11000000
          63 callgsubr
          rlineto
          hintmask 10100000
          -311 1 -4 -31 rlineto
          81 hlineto
          142 -372 -53 -257 rlineto
          -94 hlineto
          -61 callsubr
          324 -84 callgsubr
          -94 hlineto
          51 245 205 283 31 40 26 25 20 10 rlinecurve
          hintmask 11000000
          46 callgsubr
          endchar
        </CharString>
        <CharString name="Yacute">
          -13 20 callgsubr
          243 -20 hstem
          464 -83 callgsubr
          -167 235 rmoveto
          -105 callgsubr
          endchar
        </CharString>
        <CharString name="Ycircumflex">
          -13 20 callgsubr
          225 -20 hstem
          464 -83 callgsubr
          -264 225 -95 callsubr
          endchar
        </CharString>
        <CharString name="Ydieresis">
          -13 20 callgsubr
          51 129 hstem
          180 140 callsubr
          439 -83 callgsubr
          -198 51 rmoveto
          71 callgsubr
          -44 callgsubr
          29 -27 24 -31 -19 -44 callsubr
          -29 25 -25 32 vhcurveto
          -272 hmoveto
          71 callgsubr
          -44 callgsubr
          29 -26 24 -31 -40 callgsubr
          26 -25 32 vhcurveto
          endchar
        </CharString>
        <CharString name="Ygrave">
          -13 20 callgsubr
          235 -20 hstem
          464 -83 callgsubr
          -406 191 rmoveto
          -59 callgsubr
        </CharString>
        <CharString name="Z">
          201 callsubr
          1 -20 hstemhm
          hintmask 11000000
          185 -60 callgsubr
          rlineto
          hintmask 10100000
          542 653 rlineto
          endchar
        </CharString>
        <CharString name="Zacute">
          201 callsubr
          244 -20 hstem
          185 -60 callgsubr
          542 653 rlineto
          -102 235 rmoveto
          -105 callgsubr
          endchar
        </CharString>
        <CharString name="Zcaron">
          201 callsubr
          232 -20 hstem
          185 -60 callgsubr
          542 653 rlineto
          -304 56 -62 callsubr
        </CharString>
        <CharString name="Zdotaccent">
          201 callsubr
          57 94 hstem
          185 -60 callgsubr
          542 653 rlineto
          -207 105 -51 callsubr
        </CharString>
        <CharString name="Zeta">
          61 0 38 614 37 1 -20 hstemhm
          hintmask 11000000
          179 -60 callgsubr
          rlineto
          hintmask 10100000
          542 653 rlineto
          endchar
        </CharString>
        <CharString name="_247">
          -63 120 67 135 68 hstem
          114 390 rmoveto
          -13 -68 rlineto
          526 hlineto
          14 68 rlineto
          -569 -203 rmoveto
          -15 -67 rlineto
          527 hlineto
          15 67 rlineto
          endchar
        </CharString>
        <CharString name="_454">
          97 endchar
        </CharString>
        <CharString name="a">
          30 callsubr
          1 105 callgsubr
          hintmask 10110000
          507 112 rmoveto
          -20 -16 rlineto
          -19 -24 -18 -10 -13 hhcurveto
          -9 -5 7 13 3 3 17 7 32 hvcurveto
          45 214 5 22 5 21 7 19 rlinecurve
          15 43 -16 12 -45 -27 rlineto
          hintmask 11010000
          17 -39 -33 9 -27 hhcurveto
          -29 -22 -3 -7 -16 hvcurveto
          -18 -8 -28 -19 -39 -31 -35 -28 -22 -20 -11 -12 -21 -25 -19 -44 -17 -64 rrcurveto
          -16 -59 -8 -49 -40 vvcurveto
          -19 4 -17 8 -15 vhcurveto
          -17 9 14 -9 18 hhcurveto
          45 50 31 61 55 hvcurveto
          41 45 35 50 30 57 2 -2 rcurveline
          -35 -142 rlineto
          hintmask 11001000
          -103 callgsubr
          endchar
        </CharString>
        <CharString name="aacute">
          30 callsubr
          247 -20 hstem
          44 112 vstem
          538 -13 callgsubr
          -31 -595 -106 callsubr
          -103 callgsubr
          endchar
        </CharString>
        <CharString name="abreve">
          30 callsubr
          63 61 70 callsubr
          hintmask 11110000
          -93 callgsubr
          hintmask 11101000
          -103 callgsubr
          146 282 -101 callsubr
          endchar
        </CharString>
        <CharString name="acircumflex">
          30 callsubr
          232 105 callgsubr
          hintmask 11110000
          457 701 -95 callsubr
          -36 -414 -106 callsubr
          hintmask 11101000
          -103 callgsubr
          endchar
        </CharString>
        <CharString name="acute">
          -653 170 callgsubr
          298 720 rmoveto
          -105 callgsubr
          endchar
        </CharString>
        <CharString name="acutecomb">
          -142 486 -21 205 -20 hstem
          407 635 9 callgsubr
        </CharString>
        <CharString name="adieresis">
          30 callsubr
          63 129 hstem
          44 112 27 201 callgsubr
          vstem
          513 532 rmoveto
          19 17 8 16 17 hvcurveto
          -44 callgsubr
          29 -26 24 -31 -19 -44 callsubr
          -29 25 -25 32 vhcurveto
          -272 hmoveto
          19 17 23 callgsubr
          -40 callgsubr
          26 -25 32 vhcurveto
          266 -420 -106 callsubr
          -103 callgsubr
          endchar
        </CharString>
        <CharString name="ae">
          205 callgsubr
          hstemhm
          37 105 190 96 182 94 hintmask 11101110
          704 -36 callgsubr
          hintmask 11011110
          57 callgsubr
          endchar
        </CharString>
        <CharString name="aeacute">
          205 callgsubr
          251 -20 hstemhm
          38 105 190 96 182 94 hintmask 11101111
          705 -36 callgsubr
          hintmask 11011111
          57 callgsubr
          349 490 rmoveto
          -105 callgsubr
          endchar
        </CharString>
        <CharString name="afii00208">
          138 callgsubr
        </CharString>
        <CharString name="agrave">
          30 callsubr
          240 105 callgsubr
          hintmask 11110000
          -93 callgsubr
          hintmask 11101000
          -103 callgsubr
          -26 270 rmoveto
          -59 callgsubr
        </CharString>
        <CharString name="alpha">
          15 -16 7 callsubr
          180 callgsubr
          256 35 hintmask 10111000
          -99 callsubr
          hintmask 01111000
          -72 callgsubr
          hintmask 10111000
          -79 callsubr
          endchar
        </CharString>
        <CharString name="alphatonos">
          15 -16 7 callsubr
          255 190 callgsubr
          256 35 hintmask 10111100
          557 -16 callgsubr
          -37 -236 -97 callgsubr
          hintmask 01111100
          -72 callgsubr
          hintmask 10111100
          -79 callsubr
          endchar
        </CharString>
        <CharString name="amacron">
          30 callsubr
          59 66 70 callsubr
          hintmask 11110000
          -93 callgsubr
          hintmask 11101000
          -103 callgsubr
          159 199 5 callsubr
        </CharString>
        <CharString name="ampersand">
          180 -17 53 604 55 hstemhm
          74 117 -7 98 305 91 95 38 hintmask 11101100
          811 445 rmoveto
          37 -20 27 -40 17 vhcurveto
          -14 -25 rlineto
          24 -9 12 -15 -21 vvcurveto
          -45 -33 -21 -83 -12 vhcurveto
          -120 -18 -58 -9 -41 -18 -25 -29 rlinecurve
          -10 -105 rlineto
          24 hlineto
          4 15 rlineto
          43 11 23 21 35 hhcurveto
          53 34 -32 -49 -50 -21 -40 -43 -31 hvcurveto
          -27 -37 -45 -13 -52 hhcurveto
          -56 -46 14 27 -36 hvcurveto
          -40 30 -20 42 55 vvcurveto
          52 19 41 38 31 vhcurveto
          29 35 43 14 53 hhcurveto
          12 9 -1 -2 6 hvcurveto
          14 57 rlineto
          -13 hlineto
          -1 -6 -4 0 -3 hhcurveto
          -30 -26 9 18 -21 hvcurveto
          hintmask 11011100
          -23 19 -12 24 29 vvcurveto
          68 47 49 68 37 35 -14 -27 32 vhcurveto
          -60 30 vlineto
          1 35 7 42 13 51 rrcurveto
          19 -30 -39 9 -48 hhcurveto
          -51 -53 -20 -41 -54 hvcurveto
          -62 -47 -31 -47 -49 vvcurveto
          -55 38 -42 55 -7 vhcurveto
          -2 vlineto
          hintmask 11101100
          -135 -41 -68 -70 -98 vvcurveto
          -66 25 -50 51 -34 vhcurveto
          -29 43 56 -14 69 hhcurveto
          81 77 19 38 72 hvcurveto
          87 46 43 61 75 vvcurveto
          37 -26 30 -33 7 vhcurveto
          2 vlineto
          76 14 rlineto
          77 14 39 44 75 vvcurveto
          endchar
        </CharString>
        <CharString name="anoteleia">
          -436 327 126 hstem
          45 127 vstem
          109 453 rmoveto
          -36 -28 -28 -35 -36 28 -27 36 35 28 28 35 35 -28 28 -35 hvcurveto
          endchar
        </CharString>
        <CharString name="aogonek">
          -98 -188 54 117 84 350 52 1 -20 161 callgsubr
          105 78 -26 26 hintmask 11011100
          507 112 rmoveto
          -20 -16 rlineto
          -19 -24 -18 -10 -13 hhcurveto
          -9 -5 7 13 3 3 17 7 32 hvcurveto
          45 214 5 22 5 21 7 19 rlinecurve
          15 43 -16 12 -45 -27 rlineto
          hintmask 11101010
          17 -39 -33 9 -27 hhcurveto
          -29 -22 -3 -7 -16 hvcurveto
          -18 -8 -28 -19 -39 -31 -35 -28 -22 -20 -11 -12 -21 -25 -19 -44 -17 -64 rrcurveto
          -16 -59 -8 -49 -40 vvcurveto
          -19 4 -17 8 -15 vhcurveto
          -17 9 14 -9 18 hhcurveto
          45 50 31 61 55 hvcurveto
          41 45 35 50 30 57 2 -2 rcurveline
          -35 -142 rlineto
          -103 callgsubr
          5 -393 rmoveto
          hintmask 11101100
          -75 -35 -46 -57 -43 80 callsubr
          -5 7 -3 7 9 vvcurveto
          30 23 33 45 36 vhcurveto
          endchar
        </CharString>
        <CharString name="approxequal">
          167 154 48 -35 -21 75 47 50 47 19 48 10 -20 hstemhm
          hintmask 10110100
          734 442 rmoveto
          -51 -73 -61 -26 -49 hhcurveto
          -33 -46 11 22 -61 hvcurveto
          hintmask 10111000
          23 -60 -47 11 -33 hhcurveto
          -58 -62 -24 -47 -66 hvcurveto
          -53 vlineto
          43 27 30 18 16 7 rrcurveto
          16 33 33 8 31 hhcurveto
          33 46 -11 -22 60 hvcurveto
          -22 61 47 -11 33 hhcurveto
          53 61 23 46 69 hvcurveto
          hintmask 10110100
          -108 vmoveto
          -51 -76 -61 -26 -46 hhcurveto
          -33 -47 11 22 -60 hvcurveto
          22 -59 -46 11 -32 hhcurveto
          -59 -63 -23 -45 -67 hvcurveto
          hintmask 01111000
          -54 vlineto
          39 25 29 17 20 9 rrcurveto
          16 34 33 8 31 hhcurveto
          32 46 -11 -23 60 hvcurveto
          hintmask 10111000
          -22 60 46 -11 32 hhcurveto
          63 63 24 47 61 hvcurveto
          endchar
        </CharString>
        <CharString name="aring">
          30 callsubr
          62 50 100 50 hstem
          44 112 157 55 102 51 vstem
          -93 callgsubr
          -103 callgsubr
          21 136 rmoveto
          31 29 12 25 25 hvcurveto
          25 25 13 27 31 vvcurveto
          47 -33 33 -48 -31 -29 -12 -25 -25 vhcurveto
          -25 -25 -13 -28 -31 vvcurveto
          -45 33 -34 48 vhcurveto
          72 111 rmoveto
          -32 -29 -29 -33 -27 -13 13 26 32 30 29 32 27 13 -13 -26 vhcurveto
          endchar
        </CharString>
        <CharString name="aringacute">
          30 callsubr
          56 50 100 50 210 -20 hstem
          44 112 145 51 vstem
          -93 callgsubr
          -103 callgsubr
          5 130 -53 callsubr
          148 291 rmoveto
          -105 callgsubr
          endchar
        </CharString>
        <CharString name="asciicircum">
          -153 265 -21 382 -20 hstem
          274 626 rmoveto
          -48 hlineto
          -177 -382 rlineto
          63 hlineto
          138 311 138 -311 rlineto
          62 hlineto
          endchar
        </CharString>
        <CharString name="asciitilde">
          -47 169 99 -96 -21 86 99 10 -20 hstemhm
          hintmask 10010000
          501 346 rmoveto
          -52 -31 -30 -26 -28 hhcurveto
          -14 -33 11 23 -51 hvcurveto
          hintmask 01100000
          23 -51 -39 11 -27 hhcurveto
          -53 -49 -41 -81 -44 hvcurveto
          54 -63 19 32 13 19 5 6 rlinecurve
          19 17 19 10 22 hhcurveto
          9 40 -14 -29 73 hvcurveto
          hintmask 10010000
          -17 42 30 -8 19 hhcurveto
          50 47 38 77 45 hvcurveto
          endchar
        </CharString>
        <CharString name="asterisk">
          -251 333 -21 81 236 81 -20 hstem
          305 196 vstem
          501 599 rmoveto
          20 -11 10 -23 -8 -8 -2 -4 -9 vhcurveto
          -6 -3 -14 -11 -22 -21 -22 -20 -25 -18 -28 -16 2 7 10 24 19 41 rrcurveto
          16 35 8 23 11 vvcurveto
          23 -10 12 -20 -23 -23 -21 -25 -5 vhcurveto
          -1 -7 0 -11 3 -16 rrcurveto
          3 -20 1 -17 -15 vvcurveto
          -15 -1 -16 -2 -17 vhcurveto
          -21 17 -19 19 -15 22 -15 19 -9 12 -5 3 rrcurveto
          4 -7 -7 2 -8 hhcurveto
          -27 -23 -21 -25 -15 5 -10 10 -6 hvcurveto
          5 -3 14 -3 23 -5 26 -5 27 -10 29 -14 -33 -14 -31 -10 -29 -6 -26 -5 -16 -4 -6 -3 rrcurveto
          -21 -11 -11 -15 -19 vvcurveto
          -5 1 -4 2 -4 vhcurveto
          -12 3 10 -6 15 hhcurveto
          9 8 2 4 9 hvcurveto
          7 3 14 12 22 19 25 21 26 19 28 17 -8 -31 -11 -28 -15 -27 -14 -27 -7 -15 -1 -4 -5 -30 11 -15 25 -1 rrcurveto
          21 25 22 23 5 hvcurveto
          1 6 -1 10 -2 14 rrcurveto
          -3 17 -1 17 17 vvcurveto
          16 1 18 2 19 vhcurveto
          21 -17 17 -19 15 -22 rrcurveto
          -37 27 8 -2 16 hhcurveto
          16 13 6 13 9 hvcurveto
          7 8 4 9 10 vvcurveto
          13 -6 10 -11 7 vhcurveto
          -4 3 -13 4 -23 5 -25 5 -27 10 -27 15 35 14 31 10 27 5 24 5 15 3 6 3 rrcurveto
          21 10 11 16 21 vvcurveto
          endchar
        </CharString>
        <CharString name="at">
          180 -12 56 99 30 298 30 124 56 hstem
          82 56 72 95 388 51 vstem
          744 404 rmoveto
          74 -29 64 -58 55 vhcurveto
          56 -61 -75 28 -90 hhcurveto
          -99 -83 -34 -69 -67 hvcurveto
          -67 -68 -33 -84 -99 vvcurveto
          -99 35 -81 70 -64 vhcurveto
          -63 68 84 -32 99 hhcurveto
          63 58 17 33 55 hvcurveto
          55 34 41 45 29 56 rrcurveto
          -64 hlineto
          -86 -58 -75 -43 -93 hhcurveto
          -89 -73 26 52 -58 hvcurveto
          -61 54 -30 71 87 vvcurveto
          85 28 69 57 55 vhcurveto
          55 57 72 27 85 hhcurveto
          78 63 -24 -47 49 hvcurveto
          44 -43 22 -50 -59 vvcurveto
          -60 -18 -54 -36 -49 vhcurveto
          -46 -34 -30 -23 -25 hhcurveto
          -14 -7 8 17 7 1 8 3 9 hvcurveto
          74 274 rlineto
          -94 hlineto
          -15 -60 rlineto
          -2 hlineto
          45 -7 -27 23 -47 hhcurveto
          -54 -48 -23 -45 -41 hvcurveto
          -41 -45 -21 -50 -55 vvcurveto
          -42 11 -33 21 -25 vhcurveto
          -27 23 31 -13 40 hhcurveto
          25 22 7 14 19 hvcurveto
          14 11 17 18 19 26 rrcurveto
          -55 4 24 -27 43 hhcurveto
          25 27 9 18 31 hvcurveto
          27 15 24 19 19 21 rrcurveto
          45 49 23 62 74 vvcurveto
          -266 -2 rmoveto
          -46 -11 -46 -21 -47 vhcurveto
          -61 -28 -30 -30 -33 hhcurveto
          -33 -17 26 52 39 12 45 23 49 hvcurveto
          59 27 30 29 34 hhcurveto
          16 12 -8 -16 9 hvcurveto
          7 -13 3 -15 -17 vvcurveto
          endchar
        </CharString>
        <CharString name="atilde">
          30 callsubr
          -52 227 8 105 callgsubr
          hintmask 11011000
          -93 callgsubr
          hintmask 10100100
          -103 callgsubr
          hintmask 11011000
          141 257 -1 callsubr
          hintmask 10101000
          -75 callgsubr
          hintmask 11011000
          58 callgsubr
        </CharString>
        <CharString name="b">
          -116 -17 46 374 66 240 -20 hstem
          44 110 226 114 vstem
          494 363 rmoveto
          28 -5 23 -10 19 vhcurveto
          24 -13 -19 12 -25 hhcurveto
          -49 -47 -17 -35 -46 hvcurveto
          -38 -29 -32 -36 -27 -43 -2 2 rcurveline
          66 324 6 29 5 21 3 15 rlinecurve
          -10 9 -41 -17 -66 -16 -91 -13 rlinecurve
          -7 -38 36 7 29 6 22 5 rlinecurve
          -80 -478 rlineto
          -6 -36 -3 -24 -13 vvcurveto
          -37 13 -28 25 -19 vhcurveto
          -17 22 29 -8 35 hhcurveto
          61 61 22 43 61 hvcurveto
          95 67 48 105 143 vvcurveto
          -114 -34 rmoveto
          -64 -15 -66 -29 -67 vhcurveto
          -11 -26 -15 -22 -17 -19 rrcurveto
          -24 -22 -22 -12 -23 hhcurveto
          -48 -24 29 59 35 7 38 14 40 hvcurveto
          16 47 23 39 31 32 rrcurveto
          37 35 33 18 29 hhcurveto
          13 10 -10 -19 7 hvcurveto
          5 -15 3 -15 -15 vvcurveto
          endchar
        </CharString>
        <CharString name="backslash">
          210 callsubr
          162 720 rmoveto
          -90 hlineto
          372 -720 rlineto
          90 hlineto
          endchar
        </CharString>
        <CharString name="bar">
          210 callsubr
          259 88 vstem
          347 184 callgsubr
          endchar
        </CharString>
        <CharString name="beta">
          -56 -201 -21 206 76 281 100 233 31 hstemhm
          -14 128 335 118 -78 100 hintmask 11111010
          589 580 rmoveto
          83 -62 42 -123 -96 -74 -43 -85 -51 vhcurveto
          -36 -61 -29 -94 -21 -127 -30 -178 -16 -94 -3 -9 -1 -5 -12 -34 -22 -63 rrcurveto
          -18 -53 -9 -32 -12 vvcurveto
          -25 21 -12 42 13 14 3 5 13 vhcurveto
          17 7 8 9 11 vvcurveto
          -1 105 8 94 17 84 11 -31 20 -26 31 -21 31 -21 32 -12 33 -1 73 -3 64 24 53 49 rrcurveto
          hintmask 11111100
          54 50 27 60 71 vvcurveto
          65 -38 62 -57 29 vhcurveto
          hintmask 11111010
          68 37 49 76 76 vvcurveto
          -100 19 rmoveto
          -33 -10 -33 -20 -34 vhcurveto
          -39 -23 -26 -19 -30 hhcurveto
          -37 -23 -1 -2 -8 hvcurveto
          -27 -7 -13 -17 -1 -27 rrcurveto
          -29 24 -17 31 40 34 10 19 28 vhcurveto
          hintmask 11111100
          14 -16 7 -25 -33 vvcurveto
          -55 -16 -51 -31 -48 vhcurveto
          -55 -35 -44 -27 -52 hhcurveto
          -54 -39 28 57 -25 hvcurveto
          353 77 90 176 101 hhcurveto
          hintmask 11111010
          45 23 -25 -50 hvcurveto
          endchar
        </CharString>
        <CharString name="braceleft">
          -84 -21 825 -20 hstemhm
          40 94 -55 92 hintmask 11010000
          334 720 rmoveto
          -68 hlineto
          -18 -22 -8 -16 -26 hvcurveto
          -29 -18 -19 -35 -9 -52 -31 -180 rcurveline
          -5 -32 -10 -24 -13 -15 -14 -17 -22 -11 -30 -5 rrcurveto
          -2 vlineto
          41 -11 20 -23 -34 vvcurveto
          -11 -1 -13 -3 -15 vhcurveto
          -28 -159 rlineto
          hintmask 11100000
          -5 -27 -2 -20 -13 vvcurveto
          -25 10 -21 20 -17 vhcurveto
          -14 16 16 -7 15 hhcurveto
          74 2 hlineto
          -38 9 -19 24 39 vvcurveto
          10 1 11 2 13 vhcurveto
          29 168 rlineto
          hintmask 11010000
          3 21 2 18 13 vvcurveto
          45 -21 27 -43 10 vhcurveto
          2 vlineto
          33 6 25 13 16 21 13 18 10 27 7 37 31 180 rcurveline
          11 64 22 28 59 17 rrcurveto
          endchar
        </CharString>
        <CharString name="braceright">
          -84 -21 825 -20 hstemhm
          162 92 -55 94 hintmask 11100000
          315 310 rmoveto
          -41 11 -20 23 34 vvcurveto
          11 1 13 3 15 vhcurveto
          28 159 rlineto
          hintmask 11010000
          5 27 2 20 13 vvcurveto
          25 -10 21 -19 17 vhcurveto
          14 -17 -16 7 -15 hhcurveto
          -74 -2 hlineto
          38 -9 19 -24 -39 vvcurveto
          -10 -1 -11 -2 -13 vhcurveto
          -29 -168 rlineto
          hintmask 11100000
          -3 -21 -2 -18 -13 vvcurveto
          -45 21 -27 43 -10 vhcurveto
          -2 vlineto
          -33 -6 -25 -13 -16 -21 -13 -18 -10 -27 -7 -37 -31 -180 rcurveline
          -11 -64 -22 -28 -59 -17 rrcurveto
          -2 68 vlineto
          18 22 8 16 26 hvcurveto
          29 18 19 35 9 52 31 180 rcurveline
          11 64 23 31 60 9 rrcurveto
          endchar
        </CharString>
        <CharString name="bracketleft">
          -327 -194 37 786 37 hstem
          41 120 vstem
          301 -157 rmoveto
          -140 786 140 37 -260 -860 260 hlineto
          endchar
        </CharString>
        <CharString name="bracketright">
          -327 -194 37 786 37 hstem
          166 120 vstem
          286 666 rmoveto
          -260 -37 140 -786 -140 -37 260 hlineto
          endchar
        </CharString>
        <CharString name="breve">
          -293 532 61 hstem
          327 677 -101 callsubr
          endchar
        </CharString>
        <CharString name="brokenbar">
          -414 5 -21 702 -20 hstem
          90 59 vstem
          149 686 rmoveto
          -59 -294 59 hlineto
          -114 vmoveto
          -59 -294 59 hlineto
          endchar
        </CharString>
        <CharString name="bullet">
          -59 190 -21 337 -20 hstem
          466 337 rmoveto
          46 -17 40 -33 33 vhcurveto
          33 -33 -40 17 -46 hhcurveto
          -46 -40 -17 -33 -33 hvcurveto
          -33 -33 -17 -40 -46 vvcurveto
          -46 17 -40 33 -33 vhcurveto
          -33 33 40 -16 46 hhcurveto
          46 40 16 33 33 hvcurveto
          33 33 17 40 46 vvcurveto
          endchar
        </CharString>
        <CharString name="c">
          141 callsubr
          hstem
          32 114 vstem
          436 445 rmoveto
          16 -45 -38 8 -33 hhcurveto
          -28 -32 -10 -20 -37 hvcurveto
          -61 -33 -44 -32 -25 -31 -17 -21 -15 -35 -13 -49 rrcurveto
          -11 -43 -5 -38 -34 vvcurveto
          -42 11 -33 21 -25 vhcurveto
          -27 23 32 -13 42 hhcurveto
          38 42 12 24 47 hvcurveto
          26 13 38 24 49 34 -10 30 rcurveline
          -47 -69 -56 -23 -41 hhcurveto
          -52 -27 39 52 63 12 62 23 61 hvcurveto
          53 21 33 27 45 hhcurveto
          31 30 -11 -22 29 hvcurveto
          3 -3 2 -4 -1 -7 -6 -56 rcurveline
          33 hlineto
          13 67 11 47 11 27 rrcurveto
          endchar
        </CharString>
        <CharString name="cacute">
          141 callsubr
          248 -20 hstem
          32 114 vstem
          436 445 rmoveto
          16 -45 -38 8 -33 hhcurveto
          -28 -32 -10 -20 -37 hvcurveto
          -61 -33 -44 -32 -25 -31 -17 -21 -15 -35 -13 -49 rrcurveto
          -11 -43 -5 -38 -34 vvcurveto
          -42 11 -33 21 -25 vhcurveto
          -27 23 32 -13 42 hhcurveto
          38 42 12 24 47 hvcurveto
          26 13 38 24 49 34 -10 30 rcurveline
          -47 -69 -56 -23 -41 hhcurveto
          -52 -27 39 52 63 12 62 23 61 hvcurveto
          53 21 33 27 45 hhcurveto
          31 30 -11 -22 29 hvcurveto
          3 -3 2 -4 -1 -7 -6 -56 rcurveline
          33 hlineto
          13 67 11 47 11 27 rrcurveto
          -24 264 rmoveto
          -105 callgsubr
          endchar
        </CharString>
        <CharString name="caron">
          553 -21 175 -20 hstem
          238 532 -62 callsubr
        </CharString>
        <CharString name="ccaron">
          141 callsubr
          239 -20 hstem
          32 114 vstem
          436 445 rmoveto
          16 -45 -38 8 -33 hhcurveto
          -28 -32 -10 -20 -37 hvcurveto
          -61 -33 -44 -32 -25 -31 -17 -21 -15 -35 -13 -49 rrcurveto
          -11 -43 -5 -38 -34 vvcurveto
          -42 11 -33 21 -25 vhcurveto
          -27 23 32 -13 42 hhcurveto
          38 42 12 24 47 hvcurveto
          26 13 38 24 49 34 -10 30 rcurveline
          -47 -69 -56 -23 -41 hhcurveto
          -52 -27 39 52 63 12 62 23 61 hvcurveto
          53 21 33 27 45 hhcurveto
          31 30 -11 -22 29 hvcurveto
          3 -3 2 -4 -1 -7 -6 -56 rcurveline
          33 hlineto
          13 67 11 47 11 27 rrcurveto
          -191 88 -62 callsubr
        </CharString>
        <CharString name="ccedilla">
          -209 -218 41 77 41 42 67 357 62 hstem
          32 114 55 92 vstem
          436 445 rmoveto
          16 -45 -38 8 -33 hhcurveto
          -28 -32 -10 -20 -37 hvcurveto
          -61 -33 -44 -32 -25 -31 -17 -21 -15 -35 -13 -49 rrcurveto
          -11 -43 -5 -38 -34 vvcurveto
          -42 11 -33 21 -25 vhcurveto
          -27 23 32 -13 42 hhcurveto
          38 42 12 24 47 hvcurveto
          26 13 38 24 49 34 -10 30 rcurveline
          -47 -69 -56 -23 -41 hhcurveto
          -52 -27 39 52 63 12 62 23 61 hvcurveto
          53 21 33 27 45 hhcurveto
          31 30 -11 -22 29 hvcurveto
          3 -3 2 -4 -1 -7 -6 -56 rcurveline
          33 hlineto
          13 67 11 47 11 27 rrcurveto
          -143 -575 rmoveto
          44 -41 27 -47 -9 -10 -1 -2 -9 vhcurveto
          46 67 rlineto
          -44 hlineto
          -68 -97 13 -12 rlineto
          3 10 11 1 12 hhcurveto
          29 15 -12 -24 -27 -19 -14 -38 -19 -21 6 11 -25 hvcurveto
          -22 -33 rlineto
          -17 38 37 -8 36 hhcurveto
          32 28 7 13 23 hvcurveto
          28 16 14 23 29 vvcurveto
          endchar
        </CharString>
        <CharString name="ccircumflex">
          141 callsubr
          235 -20 hstem
          32 114 vstem
          436 445 rmoveto
          16 -45 -38 8 -33 hhcurveto
          -28 -32 -10 -20 -37 hvcurveto
          -61 -33 -44 -32 -25 -31 -17 -21 -15 -35 -13 -49 rrcurveto
          -11 -43 -5 -38 -34 vvcurveto
          -42 11 -33 21 -25 vhcurveto
          -27 23 32 -13 42 hhcurveto
          38 42 12 24 47 hvcurveto
          26 13 38 24 49 34 -10 30 rcurveline
          -47 -69 -56 -23 -41 hhcurveto
          -52 -27 39 52 63 12 62 23 61 hvcurveto
          53 21 33 27 45 hhcurveto
          31 30 -11 -22 29 hvcurveto
          3 -3 2 -4 -1 -7 -6 -56 rcurveline
          33 hlineto
          13 67 11 47 11 27 rrcurveto
          -36 259 -95 callsubr
          endchar
        </CharString>
        <CharString name="cdotaccent">
          141 callsubr
          63 94 hstem
          32 114 vstem
          436 445 rmoveto
          16 -45 -38 8 -33 hhcurveto
          -28 -32 -10 -20 -37 hvcurveto
          -61 -33 -44 -32 -25 -31 -17 -21 -15 -35 -13 -49 rrcurveto
          -11 -43 -5 -38 -34 vvcurveto
          -42 11 -33 21 -25 vhcurveto
          -27 23 32 -13 42 hhcurveto
          38 42 12 24 47 hvcurveto
          26 13 38 24 49 34 -10 30 rcurveline
          -47 -69 -56 -23 -41 hhcurveto
          -52 -27 39 52 63 12 62 23 61 hvcurveto
          53 21 33 27 45 hhcurveto
          31 30 -11 -22 29 hvcurveto
          3 -3 2 -4 -1 -7 -6 -56 rcurveline
          33 hlineto
          13 67 11 47 11 27 rrcurveto
          -60 136 -51 callsubr
        </CharString>
        <CharString name="cedilla">
          -225 46 72 42 58 -20 hstem
          270 -140 15 callsubr
          -57 callsubr
          endchar
        </CharString>
        <CharString name="cedillaalt">
          -155 35 0 61 hstemhm
          hintmask 10000000
          154 -155 rmoveto
          23 22 7 13 21 hvcurveto
          25 15 13 19 21 vvcurveto
          14 -6 12 -11 9 vhcurveto
          -13 11 -19 5 -24 -2 -15 -1 -17 -5 -19 -10 rrcurveto
          -6 -3 -3 -3 -5 vvcurveto
          -5 6 -2 13 3 vhcurveto
          hintmask 01000000
          2 8 8 1 8 hhcurveto
          27 11 -10 -20 -4 hvcurveto
          -21 -5 -18 -10 -30 -15 -28 9 -9 hhcurveto
          -13 -7 -5 -10 -6 4 -5 7 -3 hvcurveto
          hintmask 10000000
          -10 23 22 -5 21 hhcurveto
          endchar
        </CharString>
        <CharString name="cedillacomb">
          -409 -225 46 72 42 58 -20 hstem
          241 -140 15 callsubr
          -57 callsubr
          endchar
        </CharString>
        <CharString name="cent">
          -239 608 -20 hstem
          35 81 vstem
          360 480 rmoveto
          -15 14 -26 10 -38 6 11 98 rcurveline
          -33 hlineto
          -10 -86 -1 -9 rlineto
          -14 hlineto
          -55 -47 -19 -39 -39 hvcurveto
          -39 -39 -19 -46 -55 vvcurveto
          -53 15 -44 31 -36 vhcurveto
          31 -36 40 -22 49 -7 -15 -117 rcurveline
          1 -3 11 0 21 3 13 101 rcurveline
          2 14 50 1 41 15 33 29 rlinecurve
          7 6 3 6 6 vvcurveto
          7 -4 4 -8 -6 -7 -2 -5 -7 vhcurveto
          -32 -22 -32 -11 -33 1 rrcurveto
          -1 hlineto
          38 322 12 -5 8 -7 3 -9 rlinecurve
          -21 7 13 -10 19 hhcurveto
          19 13 17 20 9 -3 8 -7 6 hvcurveto
          -154 -321 rmoveto
          -59 17 -30 53 -1 87 -1 46 11 39 23 33 23 33 28 17 35 1 rrcurveto
          10 hlineto
          endchar
        </CharString>
        <CharString name="centsuperior">
          -333 238 -21 386 -20 hstem
          40 58 69 23 vstem
          274 317 rmoveto
          -29 -13 -22 -6 -17 1 -16 1 rcurveline
          217 vlineto
          25 27 -15 -12 5 hvcurveto
          1 -2 2 -10 3 -19 4 -3 rcurveline
          10 hlineto
          4 3 1 24 3 24 5 23 rlinecurve
          12 -21 -26 6 -29 hhcurveto
          -4 -5 0 -1 -5 hvcurveto
          21 vlineto
          11 1 10 1 11 vhcurveto
          -5 3 rlineto
          -18 hlineto
          -3 -3 rlineto
          1 -9 0 -11 -13 vvcurveto
          -24 vlineto
          -7 -1 -18 -7 -30 -15 rrcurveto
          -48 -23 -24 -40 -56 vvcurveto
          -76 48 -50 79 -5 vhcurveto
          -13 0 -17 -1 -20 vhcurveto
          3 -3 rlineto
          19 hlineto
          4 3 rlineto
          -1 17 -1 16 13 vvcurveto
          5 vlineto
          28 1 26 6 23 12 13 21 rcurveline
          -113 -5 rmoveto
          -23 7 -17 16 -13 25 rrcurveto
          -11 23 -5 24 25 vvcurveto
          57 23 30 46 3 vhcurveto
          endchar
        </CharString>
        <CharString name="ch">
          355 -17 67 357 62 240 -20 hstemhm
          32 114 593 118 -45 122 hintmask 11111000
          436 445 rmoveto
          16 -45 -38 8 -33 hhcurveto
          -28 -32 -10 -20 -37 hvcurveto
          -61 -33 -44 -32 -25 -31 -17 -21 -15 -35 -13 -49 rrcurveto
          -11 -43 -5 -38 -34 vvcurveto
          -42 11 -33 21 -25 vhcurveto
          -27 23 32 -13 42 hhcurveto
          38 42 12 24 47 hvcurveto
          26 13 38 24 49 34 -10 30 rcurveline
          -47 -69 -56 -23 -41 hhcurveto
          -52 -27 39 52 63 12 62 23 61 hvcurveto
          53 21 33 27 45 hhcurveto
          31 30 -11 -22 29 hvcurveto
          3 -3 2 -4 -1 -7 -6 -56 rcurveline
          33 hlineto
          13 67 11 47 11 27 rrcurveto
          510 -340 rmoveto
          -16 -10 rlineto
          -20 -32 -20 -10 -9 hhcurveto
          -8 -4 4 9 24 3 22 5 20 hvcurveto
          38 144 7 23 6 24 7 23 rlinecurve
          hintmask 11110100
          -59 callsubr
          hintmask 11111000
          -29 -103 -14 -64 -25 -24 callsubr
          30 62 32 64 94 vhcurveto
          endchar
        </CharString>
        <CharString name="ch202">
          -403 endchar
        </CharString>
        <CharString name="chi">
          -73 -239 124 441 141 -117 117 hstemhm
          70 232 -19 55 -55 213 hintmask 11010000
          455 454 rmoveto
          -67 -102 -51 -76 -35 -50 -3 83 -6 53 -8 24 rrcurveto
          54 -17 -39 27 -59 hhcurveto
          -61 -39 -33 -59 -25 15 -24 24 hvcurveto
          hintmask 10100100
          13 18 24 27 hhcurveto
          37 26 -20 -41 16 hvcurveto
          9 -23 7 -36 4 -49 -120 -165 -105 -136 -91 -107 rrcurveto
          145 hlineto
          91 127 68 95 46 63 rrcurveto
          -11 -90 -6 -57 -23 vvcurveto
          -85 32 -42 63 29 26 7 15 23 vhcurveto
          27 17 13 21 27 vvcurveto
          38 -16 19 -31 -7 -11 -3 -7 -14 vhcurveto
          -7 -13 -11 -3 -8 hhcurveto
          hintmask 11001000
          -34 -16 44 88 3 hvcurveto
          2 90 264 347 rlineto
          endchar
        </CharString>
        <CharString name="circumflex">
          552 -21 175 -20 hstem
          262 706 -95 callsubr
          endchar
        </CharString>
        <CharString name="colon">
          -310 -16 127 230 126 hstemhm
          110 133 -63 133 hintmask 11010000
          234 341 rmoveto
          41 38 36 41 28 -22 21 -32 -40 -39 -36 -40 -29 23 -21 31 hvcurveto
          -69 -357 rmoveto
          hintmask 11100000
          16 callgsubr
          endchar
        </CharString>
        <CharString name="colonmonetary">
          67 -51 -21 22 -21 77 -21 712 -20 73 -20 hstemhm
          42 153 hintmask 10111100
          253 115 rmoveto
          -39 40 -19 54 69 vvcurveto
          27 3 29 7 31 vhcurveto
          18 82 36 66 53 50 57 53 69 26 80 -1 rrcurveto
          7 hlineto
          33 -2 rmoveto
          13 -1 13 -3 12 -4 -287 -556 rcurveline
          -11 5 -10 6 -9 7 rrcurveto
          302 657 rmoveto
          -28 -53 rlineto
          -27 hlineto
          -113 -100 -29 -57 -85 hvcurveto
          -94 -63 -59 -86 -23 -110 rrcurveto
          -7 -32 -3 -31 -29 vvcurveto
          -119 53 -82 107 -44 vhcurveto
          -26 -49 -15 -29 -4 -9 rrcurveto
          38 hlineto
          38 76 11 -3 12 -3 12 -3 rlinecurve
          hintmask 01111100
          -34 -66 rlineto
          37 hlineto
          31 61 rlineto
          -3 22 23 -2 23 hhcurveto
          93 81 18 37 68 hvcurveto
          32 49 -9 12 rlineto
          -34 -65 -67 -17 -70 hhcurveto
          -34 -31 4 9 -28 hvcurveto
          285 558 23 -11 20 -17 15 -21 rlinecurve
          -13 -86 -17 callgsubr
          26 79 18 51 11 23 -3 11 rcurveline
          -35 17 -35 12 -33 7 33 64 rcurveline
          -34 hlineto
          -30 -59 -13 2 -13 2 -14 1 rlinecurve
          27 54 rlineto
          endchar
        </CharString>
        <CharString name="comma">
          -391 -130 -21 143 101 -72 -21 hstemhm
          hintmask 10100000
          56 -151 rmoveto
          36 15 34 23 31 30 rrcurveto
          39 37 19 34 33 vvcurveto
          hintmask 11000000
          39 -29 33 -40 -28 -28 -23 -29 -5 vhcurveto
          -27 -5 17 -22 23 hhcurveto
          hintmask 10100000
          7 21 8 7 hhcurveto
          13 4 -8 -15 -3 hvcurveto
          -9 -39 -40 -40 -71 -39 7 -10 rcurveline
          endchar
        </CharString>
        <CharString name="commaaccent">
          -653 -229 -21 90 103 hstemhm
          -59 117 -41 41 hintmask 11100000
          -55 -250 rmoveto
          75 7 38 41 74 vvcurveto
          40 -22 31 -40 -31 -24 -19 -31 -34 20 -18 39 -1 vhcurveto
          hintmask 11010000
          11 -1 6 -5 -9 vvcurveto
          -25 -26 -19 -51 -13 vhcurveto
          5 -18 rlineto
          endchar
        </CharString>
        <CharString name="commasuperior">
          -503 206 -21 165 -20 hstem
          111 350 rmoveto
          -13 -5 -15 -4 -16 -4 -7 -2 -6 -1 -3 -1 -9 -52 -17 -47 -27 -42 7 -7 rcurveline
          25 11 34 39 29 48 25 59 rlinecurve
          endchar
        </CharString>
        <CharString name="congruent">
          -153 152 55 74 55 87 57 5 57 13 -20 hstemhm
          hintmask 11101000
          452 555 rmoveto
          -50 -28 -33 -25 -37 hhcurveto
          -17 -33 10 21 -49 hvcurveto
          hintmask 11110000
          21 -49 -36 10 -23 hhcurveto
          -28 -26 -11 -23 -24 hvcurveto
          -15 -13 -17 -23 -21 -33 33 -35 rcurveline
          17 27 14 18 10 9 rrcurveto
          18 18 20 9 21 hhcurveto
          13 23 -6 -13 31 hvcurveto
          -29 74 47 -14 19 hhcurveto
          50 43 33 65 35 hvcurveto
          hintmask 11101000
          1 -185 rmoveto
          -470 -55 470 hlineto
          -74 vmoveto
          -470 -55 470 hlineto
          endchar
        </CharString>
        <CharString name="copyright">
          79 -17 42 107 31 348 26 111 44 hstem
          11 43 121 66 250 25 162 43 vstem
          -10 callsubr
          -172 -99 rmoveto
          -50 -24 -40 -25 -57 hhcurveto
          -45 -36 19 39 -27 hvcurveto
          -24 35 -12 40 46 vvcurveto
          47 12 40 24 31 vhcurveto
          34 26 36 17 46 hhcurveto
          69 36 -35 -69 1 hvcurveto
          25 104 hlineto
          17 -49 -46 9 -43 hhcurveto
          -61 -50 -19 -38 -37 hvcurveto
          -37 -37 -18 -49 -61 vvcurveto
          -59 17 -48 35 -38 vhcurveto
          -37 35 47 -19 58 hhcurveto
          68 68 37 60 23 hvcurveto
          endchar
        </CharString>
        <CharString name="currency">
          -153 112 45 -35 -21 392 47 11 -20 hstemhm
          34 58 318 56 hintmask 10011100
          466 326 rmoveto
          51 -15 44 -31 37 vhcurveto
          45 45 -8 7 -8 8 -8 7 rlinecurve
          -17 17 -9 8 1 1 -41 -51 rcurveline
          hintmask 10101100
          -38 28 -42 13 -45 -1 -48 -1 -42 -13 -35 -26 rrcurveto
          hintmask 01011100
          -41 51 1 -1 -9 -8 -17 -16 rlinecurve
          -15 -14 -8 -8 -1 -1 45 -45 rcurveline
          -31 -37 -15 -44 -51 vvcurveto
          -51 15 -44 31 -37 vhcurveto
          -45 -45 -1 -1 7 -9 17 -16 rlinecurve
          9 -7 8 -8 9 -7 41 51 rcurveline
          hintmask 10101100
          -27 37 41 -13 47 hhcurveto
          46 42 13 27 37 hvcurveto
          hintmask 01101100
          41 -51 3 2 8 8 14 13 rlinecurve
          17 15 8 9 -1 1 -45 45 rcurveline
          31 37 15 44 51 vvcurveto
          -56 -1 rmoveto
          -47 -16 -39 -32 -33 vhcurveto
          hintmask 10101100
          -33 -32 -37 -16 -42 hhcurveto
          -43 -37 16 32 -32 hvcurveto
          -31 33 -16 40 47 vvcurveto
          46 16 39 31 33 vhcurveto
          33 32 37 17 43 hhcurveto
          42 37 -17 -33 32 hvcurveto
          32 -33 16 -39 -46 vvcurveto
          endchar
        </CharString>
        <CharString name="d">
          -98 -17 82 354 50 240 -20 hstemhm
          38 114 0 163 hintmask 11110000
          537 709 101 callgsubr
          -36 -181 rcurveline
          6 -23 -22 3 -23 hhcurveto
          -29 -34 -10 -21 -37 hvcurveto
          -60 -33 -40 -32 -21 -30 -20 -30 -17 -43 -13 -57 rrcurveto
          -13 -51 -6 -46 -40 vvcurveto
          -62 23 -31 46 26 34 19 37 43 vhcurveto
          53 47 50 64 45 82 2 -2 rcurveline
          -38 -156 rlineto
          hintmask 11101000
          -4 callsubr
          endchar
        </CharString>
        <CharString name="dagger">
          -64 -133 -21 552 141 168 -20 hstem
          561 467 rmoveto
          1 7 1 6 5 vvcurveto
          36 -19 18 -37 -7 -6 -1 -1 -6 vhcurveto
          -29 -12 -28 -12 -28 -12 -33 -12 -28 -6 -25 -1 11 61 34 37 32 41 10 14 6 13 3 13 rrcurveto
          31 7 -36 15 -37 hhcurveto
          -19 -17 -4 -7 -16 hvcurveto
          -19 -8 -11 -12 -3 -15 -2 -9 0 -13 2 -18 rrcurveto
          11 -31 12 -30 -29 vvcurveto
          -13 -2 -17 -4 -19 vhcurveto
          -23 1 -26 6 -27 12 -9 4 -23 12 -37 20 rrcurveto
          1 -5 -6 1 -7 hhcurveto
          -39 -40 -28 -44 -9 hvcurveto
          -1 -5 -1 -6 -5 vvcurveto
          -33 27 -20 35 5 6 1 1 6 vhcurveto
          35 79 56 18 33 hhcurveto
          -9 -47 -23 -89 -37 -132 -42 -146 -29 -84 -15 -22 -10 -19 -6 -13 -2 -8 -3 -15 6 -12 15 -9 rrcurveto
          -7 13 15 -4 19 hhcurveto
          19 18 4 7 16 hvcurveto
          20 9 12 12 3 15 1 4 -1 13 -2 23 rrcurveto
          -2 6 -1 11 16 vvcurveto
          51 9 86 17 123 vhcurveto
          17 115 13 76 10 36 22 -2 25 -6 27 -11 15 -6 24 -11 32 -17 rrcurveto
          -1 5 6 -1 5 hhcurveto
          40 37 26 43 9 hvcurveto
          endchar
        </CharString>
        <CharString name="daggerdbl">
          -64 -218 -21 166 144 326 144 166 -20 hstem
          562 1 rmoveto
          1 6 1 6 5 vvcurveto
          32 -23 21 -31 -7 -7 -1 -2 -8 vhcurveto
          -70 -22 -50 -12 -31 -3 22 79 21 68 19 58 5 28 4 41 5 53 4 42 3 26 3 11 22 -2 23 -4 23 -7 10 -3 23 -8 35 -13 rrcurveto
          -2 7 7 -1 7 hhcurveto
          36 37 29 41 8 hvcurveto
          1 6 1 6 6 vvcurveto
          33 -22 23 -31 -7 -6 -1 -1 -4 vhcurveto
          -3 -1 -28 -12 -53 -21 rrcurveto
          -13 -30 -26 -6 -22 hhcurveto
          5 32 7 25 11 19 1 2 13 20 26 37 rrcurveto
          11 17 6 14 13 vvcurveto
          28 -21 14 -43 -51 -37 -25 -41 -6 1 -7 2 -7 vhcurveto
          9 -37 5 -25 -11 vvcurveto
          -15 -3 -21 -5 -26 vhcurveto
          -22 -23 6 13 -25 hvcurveto
          -21 11 -22 10 -21 11 rrcurveto
          3 -6 -7 1 -7 hhcurveto
          -23 -20 -9 -19 -18 hvcurveto
          -17 -19 -9 -20 -23 vvcurveto
          -32 24 -23 32 7 8 1 3 7 vhcurveto
          17 51 54 20 47 hhcurveto
          -22 -77 -20 -67 -18 -57 -13 -97 -9 -68 -4 -40 rrcurveto
          -47 -46 20 17 -44 hvcurveto
          3 -6 -7 1 -7 hhcurveto
          -37 -39 -30 -41 -9 hvcurveto
          -1 -6 -1 -6 -5 vvcurveto
          -33 25 -24 31 7 8 1 3 7 vhcurveto
          26 11 26 10 26 11 rrcurveto
          13 29 26 6 23 hhcurveto
          -7 -33 -9 -25 -9 -18 -3 -6 -13 -20 -23 -33 rrcurveto
          -11 -17 -5 -14 -13 vvcurveto
          -28 22 -14 43 49 37 24 41 7 -1 7 -2 7 vhcurveto
          -11 40 -5 24 9 vvcurveto
          16 4 21 7 25 vhcurveto
          22 23 -6 -13 25 hvcurveto
          65 -32 rlineto
          -3 7 7 -1 7 hhcurveto
          36 37 30 44 9 hvcurveto
          endchar
        </CharString>
        <CharString name="dcaron">
          -98 -17 82 354 50 252 -20 hstem
          24 114 460 141 vstem
          523 709 101 callgsubr
          -36 -181 rcurveline
          6 -23 -22 3 -23 hhcurveto
          -29 -34 -10 -21 -37 hvcurveto
          -60 -33 -40 -32 -21 -30 -20 -30 -17 -43 -13 -57 rrcurveto
          -13 -51 -6 -46 -40 vvcurveto
          -62 23 -31 46 26 34 19 37 43 vhcurveto
          53 47 50 64 45 82 2 -2 rcurveline
          -38 -156 rlineto
          -4 callsubr
          366 218 -68 callsubr
        </CharString>
        <CharString name="dcroat">
          -91 -17 82 354 50 69 36 152 -20 hstem
          38 114 vstem
          540 726 101 callgsubr
          -17 -84 rcurveline
          -119 hlineto
          -7 -36 rlineto
          119 hlineto
          -15 -78 rlineto
          6 -23 -22 3 -23 hhcurveto
          -29 -34 -10 -21 -37 hvcurveto
          -60 -33 -40 -32 -21 -30 -20 -30 -17 -43 -13 -57 rrcurveto
          -13 -51 -6 -46 -40 vvcurveto
          -62 23 -31 46 26 34 19 37 43 vhcurveto
          53 47 50 64 45 82 2 -2 rcurveline
          -38 -156 rlineto
          -5 -19 -2 -16 -13 158 callsubr
          25 27 56 33 66 87 vhcurveto
          -9 28 -26 -17 rlineto
          -19 -29 -16 -9 -4 hhcurveto
          -9 -5 6 11 9 2 13 3 17 hvcurveto
          84 417 rlineto
          60 hlineto
          8 36 rlineto
          -61 hlineto
          16 78 5 27 5 21 4 17 rlinecurve
          -190 -411 rmoveto
          -10 -40 -27 -50 -43 -59 rrcurveto
          -61 -45 -34 -31 -23 hhcurveto
          -17 -9 9 17 44 8 54 16 65 hvcurveto
          18 73 21 50 23 25 rrcurveto
          11 11 21 6 32 hhcurveto
          24 27 -6 -12 31 hvcurveto
          endchar
        </CharString>
        <CharString name="degree">
          -305 382 35 188 35 hstem
          40 56 156 56 vstem
          308 511 rmoveto
          38 -13 31 -26 24 vhcurveto
          24 -26 -32 12 -37 hhcurveto
          -37 -32 -12 -24 -26 hvcurveto
          -26 -24 -13 -31 -38 vvcurveto
          -39 13 -32 27 -24 vhcurveto
          -23 25 31 -11 38 hhcurveto
          76 58 50 79 hvcurveto
          -56 hmoveto
          -56 -33 -38 -45 -45 -33 38 56 56 33 38 45 45 33 -38 -56 vhcurveto
          endchar
        </CharString>
        <CharString name="delta">
          -38 -16 31 383 34 225 52 hstem
          42 125 264 131 vstem
          621 575 rmoveto
          25 -39 30 -78 33 vhcurveto
          31 -71 -52 15 -33 hhcurveto
          -33 -30 -8 -16 -26 hvcurveto
          -30 -19 -15 -25 -32 vvcurveto
          -29 27 -36 53 -41 vhcurveto
          39 -28 40 -28 39 -29 rrcurveto
          9 -29 -30 5 -31 hhcurveto
          -76 -66 -26 -53 -55 hvcurveto
          -55 -52 -28 -64 -75 vvcurveto
          -53 19 -44 38 -33 vhcurveto
          -32 36 45 -16 54 hhcurveto
          91 76 26 52 62 hvcurveto
          66 56 33 73 89 vvcurveto
          54 -26 51 -51 49 vhcurveto
          -9 8 -47 36 -86 64 rrcurveto
          -51 38 -25 33 28 vvcurveto
          1 9 23 7 rlineto
          47 82 -56 -112 115 hvcurveto
          15 5 18 12 21 19 rrcurveto
          21 19 11 17 14 vvcurveto
          -190 -251 rmoveto
          -52 -20 -63 -41 -73 vhcurveto
          -81 -46 -47 -40 -47 hhcurveto
          -42 -21 27 55 61 18 62 36 65 hvcurveto
          75 42 48 38 55 hhcurveto
          17 18 -4 -8 18 hvcurveto
          8 -14 4 -21 -27 vvcurveto
          endchar
        </CharString>
        <CharString name="dialytika">
          -288 -8 callsubr
        </CharString>
        <CharString name="dieresis">
          -288 531 129 hstem
          124 140 callsubr
          454 531 rmoveto
          71 callgsubr
          -44 callgsubr
          29 -27 24 -31 -19 -44 callsubr
          -29 25 -25 32 vhcurveto
          -272 hmoveto
          71 callgsubr
          -44 callgsubr
          29 -26 24 -31 -40 callgsubr
          26 -25 32 vhcurveto
          endchar
        </CharString>
        <CharString name="dieresistonos">
          -310 531 129 -129 191 -171 -21 hstemhm
          100 138 212 137 hintmask 10011000
          587 607 75 callsubr
          hintmask 01011000
          221 callgsubr
          hintmask 00111000
          -107 20 callsubr
          145 115 rlineto
          17 13 9 15 17 vvcurveto
          -225 -83 rmoveto
          hintmask 10011000
          28 callsubr
          endchar
        </CharString>
        <CharString name="divide">
          -59 10 113 105 55 105 114 hstem
          241 114 vstem
          355 444 rmoveto
          31 -27 27 -31 -29 -27 -27 -31 -29 27 -27 29 31 27 25 31 vhcurveto
          188 -161 rmoveto
          -494 -55 494 hlineto
          -188 -161 rmoveto
          29 -27 27 -31 -29 -27 -27 -29 -31 27 -26 29 32 26 25 32 vhcurveto
          endchar
        </CharString>
        <CharString name="dollar">
          -131 -85 -21 90 33 655 31 68 -20 hstem
          579 703 rmoveto
          -7 -21 -11 -15 -15 -8 -24 25 -54 18 -43 1 14 68 rcurveline
          -38 hlineto
          -14 -68 -52 -1 -46 -14 -39 -26 rlinecurve
          -43 -29 -27 -40 -11 -50 rrcurveto
          -4 -17 -2 -17 -15 vvcurveto
          -40 14 -36 28 -33 vhcurveto
          15 -18 33 -28 50 -38 -62 -284 rcurveline
          -99 1 -47 52 3 104 rrcurveto
          -16 hlineto
          -43 -190 rlineto
          18 hlineto
          9 21 11 16 13 11 rrcurveto
          -32 44 48 -16 52 hhcurveto
          -19 -90 rlineto
          38 hlineto
          19 90 58 4 49 17 41 31 rlinecurve
          44 33 28 45 12 56 rrcurveto
          3 14 1 13 13 vvcurveto
          43 -17 40 -33 35 vhcurveto
          -19 20 -35 27 -51 33 65 264 rcurveline
          80 -5 48 -54 -4 -79 rrcurveto
          15 hlineto
          36 169 rlineto
          -274 -277 rmoveto
          -26 23 -16 16 -7 8 rrcurveto
          -20 23 -10 23 23 vvcurveto
          9 2 8 3 9 vhcurveto
          10 30 21 26 32 21 rrcurveto
          18 28 24 9 21 hhcurveto
          46 -528 rmoveto
          -7 -36 -18 -30 -29 -24 -29 -23 -31 -13 -34 -1 58 266 rcurveline
          21 -17 20 -17 21 -17 rrcurveto
          21 -19 10 -22 -24 vvcurveto
          -7 -1 -8 -2 -8 vhcurveto
          endchar
        </CharString>
        <CharString name="dollarsuperior">
          -333 232 -21 508 -20 hstem
          29 51 67 24 75 53 vstem
          171 272 rmoveto
          77 11 51 49 76 vvcurveto
          35 -13 25 -27 16 vhcurveto
          -18 11 -29 7 -41 5 rrcurveto
          152 vlineto
          28 23 -9 -17 18 hvcurveto
          3 -23 1 -17 1 -13 4 -4 rcurveline
          11 hlineto
          4 5 3 31 2 19 2 13 1 7 rlinecurve
          -1 6 -23 15 -34 8 -43 1 rlinecurve
          1 17 0 12 5 vvcurveto
          -5 4 rlineto
          -17 hlineto
          -4 -4 rlineto
          -8 0 -12 1 -15 vhcurveto
          -79 -11 -39 -41 -70 vvcurveto
          -60 39 -34 79 -7 vhcurveto
          -164 vlineto
          -15 -15 4 7 -17 hvcurveto
          -19 8 -12 10 -6 11 -5 51 rcurveline
          -4 5 rlineto
          -12 hlineto
          -4 -4 -3 -35 -3 -29 -3 -21 rlinecurve
          4 -6 33 -15 38 -7 43 -1 rlinecurve
          -1 -27 0 -18 -10 vvcurveto
          4 -5 rlineto
          18 hlineto
          5 5 rlineto
          -26 294 rmoveto
          -45 6 -22 22 39 vvcurveto
          41 27 35 40 5 vhcurveto
          24 -205 rmoveto
          26 -3 18 -6 11 -8 rrcurveto
          13 -11 7 -17 -24 vvcurveto
          -48 -28 -39 -47 -3 vhcurveto
          endchar
        </CharString>
        <CharString name="dotaccent">
          -293 535 94 hstem
          235 584 -51 callsubr
        </CharString>
        <CharString name="dotbelowcomb">
          -653 -218 106 hstem
          -53 106 vstem
          53 -165 -78 callgsubr
          endchar
        </CharString>
        <CharString name="dotlessi">
          94 callgsubr
          -5 callsubr
          endchar
        </CharString>
        <CharString name="e">
          37 callgsubr
          hstem
          129 callsubr
          vstem
          418 385 -17 callsubr
        </CharString>
        <CharString name="eacute">
          37 callgsubr
          247 -20 hstem
          129 callsubr
          vstem
          438 -13 callgsubr
          -20 -322 -17 callsubr
        </CharString>
        <CharString name="ebreve">
          37 callgsubr
          60 61 hstem
          129 callsubr
          vstem
          418 385 -105 callsubr
          138 304 -101 callsubr
          endchar
        </CharString>
        <CharString name="ecaron">
          37 callgsubr
          232 -20 hstem
          129 callsubr
          vstem
          418 385 -105 callsubr
          -58 156 -62 callsubr
        </CharString>
        <CharString name="ecircumflex">
          -209 -17 64 374 38 242 -20 hstem
          129 callsubr
          vstem
          387 701 -95 callsubr
          -55 -141 rmoveto
          49 -32 25 -63 -40 -24 -2 -3 -9 vhcurveto
          -30 -11 -30 -17 -31 -21 -31 -21 -23 -24 -15 -25 -13 -20 -12 -30 -12 -39 rrcurveto
          -17 -54 -8 -46 -38 vvcurveto
          -83 41 -42 83 37 41 11 23 45 vhcurveto
          11 6 38 23 63 40 -10 28 rcurveline
          -45 -67 -52 -22 -39 hhcurveto
          -51 -26 27 53 19 2 22 3 25 hvcurveto
          74 16 55 17 35 17 rrcurveto
          71 35 36 47 60 vvcurveto
          -94 -15 rmoveto
          -35 -14 -30 -28 -26 vhcurveto
          -23 -21 -30 -16 -37 -11 -41 -12 rcurveline
          14 58 rlineto
          96 23 38 48 52 hhcurveto
          31 15 -17 -34 hvcurveto
          endchar
        </CharString>
        <CharString name="edieresis">
          37 callgsubr
          63 129 hstemhm
          28 114 -9 137 54 94 -12 136 hintmask 11101010
          463 532 rmoveto
          19 17 8 16 17 hvcurveto
          -44 callgsubr
          29 -26 24 -31 -19 -44 callsubr
          -29 25 -25 32 vhcurveto
          -272 hmoveto
          19 17 23 callgsubr
          -40 callgsubr
          26 -25 32 vhcurveto
          hintmask 11110100
          227 -147 -17 callsubr
        </CharString>
        <CharString name="edotaccent">
          37 callgsubr
          65 94 hstem
          129 callsubr
          vstem
          418 385 -105 callsubr
          43 213 -51 callsubr
        </CharString>
</ttFont>
